G04 (created by PCBNEW (2013-mar-13)-testing) date Mon 25 May 2015 11:56:23 PM EDT*
%MOIN*%
G04 Gerber Fmt 3.4, Leading zero omitted, Abs format*
%FSLAX34Y34*%
G01*
G70*
G90*
G04 APERTURE LIST*
%ADD10C,0.005906*%
%ADD11R,0.037402X0.021654*%
%ADD12R,0.035000X0.055000*%
%ADD13R,0.055000X0.035000*%
%ADD14R,0.030000X0.020000*%
%ADD15R,0.055000X0.055000*%
%ADD16C,0.055000*%
%ADD17R,0.055118X0.027559*%
%ADD18R,0.055118X0.039370*%
%ADD19R,0.047244X0.027559*%
%ADD20R,0.047244X0.047244*%
%ADD21R,0.031496X0.047244*%
%ADD22R,0.125984X0.047244*%
%ADD23R,0.074803X0.059055*%
%ADD24R,0.019685X0.019685*%
%ADD25C,0.035400*%
%ADD26R,0.021654X0.023622*%
%ADD27R,0.023622X0.021654*%
%ADD28R,0.021260X0.033465*%
%ADD29R,0.033465X0.021260*%
%ADD30C,0.050000*%
%ADD31O,0.007874X0.023622*%
%ADD32O,0.023622X0.007874*%
%ADD33R,0.060630X0.066929*%
G04 APERTURE END LIST*
G54D10*
G54D11*
X30905Y-45816D03*
X30905Y-45324D03*
X30905Y-46309D03*
X30905Y-46801D03*
X30118Y-46801D03*
X30118Y-46309D03*
X30118Y-45816D03*
X30118Y-45324D03*
G54D12*
X39862Y-50787D03*
X38877Y-50787D03*
G54D13*
X38582Y-51673D03*
X38582Y-52657D03*
G54D12*
X45570Y-51771D03*
X46555Y-51771D03*
G54D14*
X43791Y-52540D03*
X43791Y-51790D03*
X44791Y-52540D03*
X43791Y-52165D03*
X44791Y-51790D03*
X40460Y-51790D03*
X40460Y-52540D03*
X39460Y-51790D03*
X40460Y-52165D03*
X39460Y-52540D03*
G54D15*
X44972Y-44291D03*
G54D16*
X45972Y-44291D03*
G54D17*
X40846Y-47165D03*
X40846Y-47598D03*
X40846Y-48031D03*
X40846Y-48464D03*
X40846Y-48897D03*
X40846Y-49330D03*
X40846Y-49763D03*
X40846Y-50196D03*
G54D18*
X40846Y-46417D03*
G54D19*
X40807Y-50590D03*
G54D20*
X42500Y-50905D03*
G54D21*
X44940Y-50905D03*
G54D22*
X46358Y-50905D03*
G54D23*
X46751Y-45669D03*
G54D24*
X47027Y-46062D03*
G54D25*
X45432Y-49094D03*
X45432Y-47362D03*
G54D15*
X41625Y-52165D03*
G54D16*
X42625Y-52165D03*
G54D26*
X29370Y-45275D03*
X28897Y-45275D03*
X29370Y-46259D03*
X28897Y-46259D03*
X29251Y-49606D03*
X28779Y-49606D03*
X29251Y-50236D03*
X28779Y-50236D03*
X34881Y-49212D03*
X34409Y-49212D03*
X39527Y-50000D03*
X40000Y-50000D03*
X34409Y-46850D03*
X34881Y-46850D03*
X29960Y-51377D03*
X29488Y-51377D03*
X28307Y-51377D03*
X28779Y-51377D03*
G54D27*
X36023Y-45708D03*
X36023Y-45236D03*
X34055Y-45708D03*
X34055Y-45236D03*
G54D15*
X37885Y-44291D03*
G54D16*
X38885Y-44291D03*
G54D15*
X43429Y-44291D03*
G54D16*
X42429Y-44291D03*
X41429Y-44291D03*
X40429Y-44291D03*
G54D15*
X34940Y-50976D03*
G54D16*
X34940Y-51976D03*
G54D26*
X32244Y-49803D03*
X31771Y-49803D03*
X32244Y-50196D03*
X31771Y-50196D03*
X34409Y-49606D03*
X34881Y-49606D03*
X36850Y-44094D03*
X36377Y-44094D03*
X34409Y-48818D03*
X34881Y-48818D03*
X36850Y-44488D03*
X36377Y-44488D03*
G54D27*
X35236Y-45236D03*
X35236Y-45708D03*
X36909Y-50649D03*
X36909Y-51122D03*
X36515Y-50649D03*
X36515Y-51122D03*
X36417Y-45236D03*
X36417Y-45708D03*
X35629Y-45236D03*
X35629Y-45708D03*
X36122Y-50649D03*
X36122Y-51122D03*
X35728Y-50649D03*
X35728Y-51122D03*
X34842Y-45236D03*
X34842Y-45708D03*
X34448Y-45236D03*
X34448Y-45708D03*
G54D26*
X34881Y-48425D03*
X34409Y-48425D03*
X34881Y-48031D03*
X34409Y-48031D03*
X45629Y-52559D03*
X46102Y-52559D03*
X34881Y-47637D03*
X34409Y-47637D03*
X34881Y-47244D03*
X34409Y-47244D03*
G54D28*
X36299Y-49911D03*
X36614Y-49911D03*
X36929Y-49911D03*
X37244Y-49911D03*
X37559Y-49911D03*
X37874Y-49911D03*
X38188Y-49911D03*
X38503Y-49911D03*
X38503Y-49911D03*
X38188Y-49911D03*
X37874Y-49911D03*
X37559Y-49911D03*
X37244Y-49911D03*
X36929Y-49911D03*
X36614Y-49911D03*
X36299Y-49911D03*
X36299Y-49911D03*
X36614Y-49911D03*
X36929Y-49911D03*
X37244Y-49911D03*
X37559Y-49911D03*
X37874Y-49911D03*
X38188Y-49911D03*
X38503Y-49911D03*
X38503Y-49911D03*
X38188Y-49911D03*
X37874Y-49911D03*
X37559Y-49911D03*
X37244Y-49911D03*
X36929Y-49911D03*
X36614Y-49911D03*
X36299Y-49911D03*
G54D29*
X35718Y-49330D03*
X35718Y-49015D03*
X35718Y-48700D03*
X35718Y-48385D03*
X35718Y-48070D03*
X35718Y-47755D03*
X35718Y-47440D03*
X35718Y-47125D03*
G54D28*
X36299Y-46545D03*
X36614Y-46545D03*
X36929Y-46545D03*
X37244Y-46545D03*
X37559Y-46545D03*
X37874Y-46545D03*
X38188Y-46545D03*
X38503Y-46545D03*
G54D29*
X39084Y-47125D03*
X39084Y-47440D03*
X39084Y-47755D03*
X39084Y-48070D03*
X39084Y-48385D03*
X39084Y-48700D03*
X39084Y-49015D03*
X39084Y-49330D03*
G54D30*
X30590Y-48149D03*
G54D31*
X30905Y-49212D03*
X30748Y-49212D03*
X30590Y-49212D03*
X30433Y-49212D03*
X30275Y-49212D03*
X30118Y-49212D03*
G54D32*
X31102Y-49409D03*
X31102Y-49566D03*
X31102Y-49724D03*
X31102Y-49881D03*
X31102Y-50039D03*
X31102Y-50196D03*
X29921Y-49409D03*
X29921Y-49566D03*
X29921Y-49724D03*
X29921Y-49881D03*
X29921Y-50039D03*
X29921Y-50196D03*
G54D31*
X30905Y-50393D03*
X30748Y-50393D03*
X30590Y-50393D03*
X30433Y-50393D03*
X30275Y-50393D03*
X30118Y-50393D03*
G54D33*
X30511Y-49803D03*
G54D27*
X36811Y-45708D03*
X36811Y-45236D03*
M02*
