G04 (created by PCBNEW (2013-mar-13)-testing) date Mon 25 May 2015 11:56:23 PM EDT*
%MOIN*%
G04 Gerber Fmt 3.4, Leading zero omitted, Abs format*
%FSLAX34Y34*%
G01*
G70*
G90*
G04 APERTURE LIST*
%ADD10C,0.005906*%
%ADD11C,0.005118*%
%ADD12C,0.015000*%
%ADD13C,0.005000*%
%ADD14C,0.012000*%
%ADD15C,0.011811*%
G04 APERTURE END LIST*
G54D10*
G54D11*
X43510Y-45253D02*
X43339Y-45253D01*
X43425Y-45253D02*
X43425Y-44953D01*
X43396Y-44996D01*
X43368Y-45025D01*
X43339Y-45039D01*
X41482Y-45239D02*
X41525Y-45253D01*
X41596Y-45253D01*
X41625Y-45239D01*
X41639Y-45225D01*
X41654Y-45196D01*
X41654Y-45168D01*
X41639Y-45139D01*
X41625Y-45125D01*
X41596Y-45110D01*
X41539Y-45096D01*
X41511Y-45082D01*
X41496Y-45068D01*
X41482Y-45039D01*
X41482Y-45010D01*
X41496Y-44982D01*
X41511Y-44968D01*
X41539Y-44953D01*
X41611Y-44953D01*
X41654Y-44968D01*
X41754Y-44953D02*
X41825Y-45253D01*
X41882Y-45039D01*
X41939Y-45253D01*
X42011Y-44953D01*
X42125Y-45253D02*
X42125Y-44953D01*
X42196Y-44953D01*
X42239Y-44968D01*
X42268Y-44996D01*
X42282Y-45025D01*
X42296Y-45082D01*
X42296Y-45125D01*
X42282Y-45182D01*
X42268Y-45210D01*
X42239Y-45239D01*
X42196Y-45253D01*
X42125Y-45253D01*
X38690Y-45253D02*
X38690Y-44953D01*
X38762Y-44953D01*
X38805Y-44968D01*
X38833Y-44996D01*
X38847Y-45025D01*
X38862Y-45082D01*
X38862Y-45125D01*
X38847Y-45182D01*
X38833Y-45210D01*
X38805Y-45239D01*
X38762Y-45253D01*
X38690Y-45253D01*
X39090Y-45096D02*
X38990Y-45096D01*
X38990Y-45253D02*
X38990Y-44953D01*
X39133Y-44953D01*
X39247Y-44953D02*
X39247Y-45196D01*
X39262Y-45225D01*
X39276Y-45239D01*
X39305Y-45253D01*
X39362Y-45253D01*
X39390Y-45239D01*
X39405Y-45225D01*
X39419Y-45196D01*
X39419Y-44953D01*
X35883Y-52477D02*
X35583Y-52477D01*
X35583Y-52363D01*
X35598Y-52335D01*
X35612Y-52320D01*
X35640Y-52306D01*
X35683Y-52306D01*
X35712Y-52320D01*
X35726Y-52335D01*
X35740Y-52363D01*
X35740Y-52477D01*
X35583Y-52206D02*
X35883Y-52135D01*
X35669Y-52077D01*
X35883Y-52020D01*
X35583Y-51949D01*
X35883Y-51663D02*
X35740Y-51763D01*
X35883Y-51835D02*
X35583Y-51835D01*
X35583Y-51720D01*
X35598Y-51692D01*
X35612Y-51677D01*
X35640Y-51663D01*
X35683Y-51663D01*
X35712Y-51677D01*
X35726Y-51692D01*
X35740Y-51720D01*
X35740Y-51835D01*
X35912Y-51606D02*
X35912Y-51377D01*
X35883Y-51306D02*
X35583Y-51306D01*
X35726Y-51306D02*
X35726Y-51135D01*
X35883Y-51135D02*
X35583Y-51135D01*
X35583Y-50935D02*
X35583Y-50877D01*
X35598Y-50849D01*
X35626Y-50820D01*
X35683Y-50806D01*
X35783Y-50806D01*
X35840Y-50820D01*
X35869Y-50849D01*
X35883Y-50877D01*
X35883Y-50935D01*
X35869Y-50963D01*
X35840Y-50992D01*
X35783Y-51006D01*
X35683Y-51006D01*
X35626Y-50992D01*
X35598Y-50963D01*
X35583Y-50935D01*
X35883Y-50535D02*
X35883Y-50677D01*
X35583Y-50677D01*
X35883Y-50435D02*
X35583Y-50435D01*
X35583Y-50363D01*
X35598Y-50320D01*
X35626Y-50292D01*
X35655Y-50277D01*
X35712Y-50263D01*
X35755Y-50263D01*
X35812Y-50277D01*
X35840Y-50292D01*
X35869Y-50320D01*
X35883Y-50363D01*
X35883Y-50435D01*
G54D12*
X47184Y-49744D02*
X47184Y-46712D01*
X47578Y-49744D02*
X47578Y-46712D01*
X47578Y-46712D02*
X43956Y-46712D01*
X43956Y-46712D02*
X43956Y-49744D01*
X43956Y-49744D02*
X47578Y-49744D01*
G54D13*
X37647Y-45984D02*
X37155Y-45984D01*
X37647Y-45354D02*
X37647Y-45984D01*
X37155Y-45354D02*
X37647Y-45354D01*
X37155Y-45984D02*
X37155Y-45354D01*
G54D10*
X37401Y-45807D02*
X37637Y-45570D01*
X37165Y-45570D02*
X37401Y-45807D01*
X37637Y-45570D02*
X37165Y-45570D01*
X37559Y-45649D02*
X37283Y-45649D01*
X37559Y-45610D02*
X37244Y-45610D01*
X37480Y-45688D02*
X37322Y-45688D01*
X37362Y-45728D02*
X37480Y-45688D01*
X37480Y-45728D02*
X37362Y-45728D01*
G54D13*
X35157Y-47982D02*
X35157Y-48474D01*
X34527Y-47982D02*
X35157Y-47982D01*
X34527Y-48474D02*
X34527Y-47982D01*
X35157Y-48474D02*
X34527Y-48474D01*
G54D10*
X34980Y-48228D02*
X34744Y-47992D01*
X34744Y-48464D02*
X34980Y-48228D01*
X34744Y-47992D02*
X34744Y-48464D01*
X34822Y-48070D02*
X34822Y-48346D01*
X34783Y-48070D02*
X34783Y-48385D01*
X34862Y-48149D02*
X34862Y-48307D01*
X34901Y-48267D02*
X34862Y-48149D01*
X34901Y-48149D02*
X34901Y-48267D01*
G54D13*
X37155Y-50472D02*
X37647Y-50472D01*
X37155Y-51102D02*
X37155Y-50472D01*
X37647Y-51102D02*
X37155Y-51102D01*
X37647Y-50472D02*
X37647Y-51102D01*
G54D10*
X37401Y-50649D02*
X37165Y-50885D01*
X37637Y-50885D02*
X37401Y-50649D01*
X37165Y-50885D02*
X37637Y-50885D01*
X37244Y-50807D02*
X37519Y-50807D01*
X37244Y-50846D02*
X37559Y-50846D01*
X37322Y-50767D02*
X37480Y-50767D01*
X37440Y-50728D02*
X37322Y-50767D01*
X37322Y-50728D02*
X37440Y-50728D01*
G54D13*
X39645Y-48474D02*
X39645Y-47982D01*
X40275Y-48474D02*
X39645Y-48474D01*
X40275Y-47982D02*
X40275Y-48474D01*
X39645Y-47982D02*
X40275Y-47982D01*
G54D10*
X39822Y-48228D02*
X40059Y-48464D01*
X40059Y-47992D02*
X39822Y-48228D01*
X40059Y-48464D02*
X40059Y-47992D01*
X39980Y-48385D02*
X39980Y-48110D01*
X40019Y-48385D02*
X40019Y-48070D01*
X39940Y-48307D02*
X39940Y-48149D01*
X39901Y-48188D02*
X39940Y-48307D01*
X39901Y-48307D02*
X39901Y-48188D01*
G54D14*
X37385Y-44791D02*
X37385Y-43791D01*
X37385Y-43791D02*
X39385Y-43791D01*
X39385Y-43791D02*
X39385Y-44791D01*
X39385Y-44791D02*
X37385Y-44791D01*
X43929Y-44791D02*
X43929Y-44791D01*
X43929Y-43791D02*
X43929Y-44791D01*
X43929Y-44791D02*
X43929Y-44791D01*
X43929Y-44791D02*
X39929Y-44791D01*
X39929Y-44791D02*
X39929Y-43791D01*
X39929Y-43791D02*
X43929Y-43791D01*
X42929Y-43791D02*
X42929Y-44791D01*
X34440Y-50476D02*
X35440Y-50476D01*
X35440Y-50476D02*
X35440Y-52476D01*
X35440Y-52476D02*
X34440Y-52476D01*
X34440Y-52476D02*
X34440Y-50476D01*
G54D10*
X36220Y-47047D02*
X38582Y-47047D01*
X38582Y-47047D02*
X38582Y-49409D01*
X38582Y-49409D02*
X36220Y-49409D01*
X36220Y-49409D02*
X36220Y-47047D01*
X38090Y-48228D02*
G75*
G03X38090Y-48228I-688J0D01*
G74*
G01*
G54D15*
X27890Y-51889D02*
G75*
G03X27890Y-51889I-55J0D01*
G74*
G01*
G54D10*
X27755Y-51377D02*
X27755Y-45078D01*
X27755Y-45078D02*
X34055Y-45078D01*
X34055Y-45078D02*
X34055Y-51377D01*
X34055Y-51377D02*
X27755Y-51377D01*
G54D11*
X46131Y-50815D02*
X46117Y-50830D01*
X46074Y-50844D01*
X46046Y-50844D01*
X46003Y-50830D01*
X45974Y-50801D01*
X45960Y-50772D01*
X45946Y-50715D01*
X45946Y-50672D01*
X45960Y-50615D01*
X45974Y-50587D01*
X46003Y-50558D01*
X46046Y-50544D01*
X46074Y-50544D01*
X46117Y-50558D01*
X46131Y-50572D01*
X46317Y-50544D02*
X46374Y-50544D01*
X46403Y-50558D01*
X46431Y-50587D01*
X46446Y-50644D01*
X46446Y-50744D01*
X46431Y-50801D01*
X46403Y-50830D01*
X46374Y-50844D01*
X46317Y-50844D01*
X46288Y-50830D01*
X46260Y-50801D01*
X46246Y-50744D01*
X46246Y-50644D01*
X46260Y-50587D01*
X46288Y-50558D01*
X46317Y-50544D01*
X46574Y-50844D02*
X46574Y-50544D01*
X46746Y-50844D01*
X46746Y-50544D01*
X47046Y-50844D02*
X46874Y-50844D01*
X46960Y-50844D02*
X46960Y-50544D01*
X46931Y-50587D01*
X46903Y-50615D01*
X46874Y-50630D01*
X38088Y-45811D02*
X37788Y-45811D01*
X37788Y-45740D01*
X37802Y-45697D01*
X37831Y-45669D01*
X37859Y-45654D01*
X37917Y-45640D01*
X37959Y-45640D01*
X38017Y-45654D01*
X38045Y-45669D01*
X38074Y-45697D01*
X38088Y-45740D01*
X38088Y-45811D01*
X38088Y-45354D02*
X38088Y-45526D01*
X38088Y-45440D02*
X37788Y-45440D01*
X37831Y-45469D01*
X37859Y-45497D01*
X37874Y-45526D01*
X35805Y-48489D02*
X35505Y-48489D01*
X35505Y-48417D01*
X35519Y-48374D01*
X35547Y-48346D01*
X35576Y-48332D01*
X35633Y-48317D01*
X35676Y-48317D01*
X35733Y-48332D01*
X35762Y-48346D01*
X35790Y-48374D01*
X35805Y-48417D01*
X35805Y-48489D01*
X35533Y-48203D02*
X35519Y-48189D01*
X35505Y-48160D01*
X35505Y-48089D01*
X35519Y-48060D01*
X35533Y-48046D01*
X35562Y-48032D01*
X35590Y-48032D01*
X35633Y-48046D01*
X35805Y-48217D01*
X35805Y-48032D01*
X38088Y-51008D02*
X37788Y-51008D01*
X37788Y-50937D01*
X37802Y-50894D01*
X37831Y-50865D01*
X37859Y-50851D01*
X37917Y-50837D01*
X37959Y-50837D01*
X38017Y-50851D01*
X38045Y-50865D01*
X38074Y-50894D01*
X38088Y-50937D01*
X38088Y-51008D01*
X37788Y-50737D02*
X37788Y-50551D01*
X37902Y-50651D01*
X37902Y-50608D01*
X37917Y-50580D01*
X37931Y-50565D01*
X37959Y-50551D01*
X38031Y-50551D01*
X38059Y-50565D01*
X38074Y-50580D01*
X38088Y-50608D01*
X38088Y-50694D01*
X38074Y-50723D01*
X38059Y-50737D01*
X39269Y-48489D02*
X38969Y-48489D01*
X38969Y-48417D01*
X38983Y-48374D01*
X39012Y-48346D01*
X39041Y-48332D01*
X39098Y-48317D01*
X39141Y-48317D01*
X39198Y-48332D01*
X39226Y-48346D01*
X39255Y-48374D01*
X39269Y-48417D01*
X39269Y-48489D01*
X39069Y-48060D02*
X39269Y-48060D01*
X38955Y-48132D02*
X39169Y-48203D01*
X39169Y-48017D01*
X37261Y-44512D02*
X36961Y-44512D01*
X36961Y-44398D01*
X36975Y-44369D01*
X36990Y-44355D01*
X37018Y-44341D01*
X37061Y-44341D01*
X37090Y-44355D01*
X37104Y-44369D01*
X37118Y-44398D01*
X37118Y-44512D01*
X37261Y-44055D02*
X37261Y-44227D01*
X37261Y-44141D02*
X36961Y-44141D01*
X37004Y-44169D01*
X37033Y-44198D01*
X37047Y-44227D01*
X40093Y-45253D02*
X40093Y-44953D01*
X40207Y-44953D01*
X40236Y-44968D01*
X40250Y-44982D01*
X40264Y-45010D01*
X40264Y-45053D01*
X40250Y-45082D01*
X40236Y-45096D01*
X40207Y-45110D01*
X40093Y-45110D01*
X40379Y-44982D02*
X40393Y-44968D01*
X40422Y-44953D01*
X40493Y-44953D01*
X40522Y-44968D01*
X40536Y-44982D01*
X40550Y-45010D01*
X40550Y-45039D01*
X40536Y-45082D01*
X40364Y-45253D01*
X40550Y-45253D01*
X34739Y-50332D02*
X34739Y-50032D01*
X34853Y-50032D01*
X34882Y-50046D01*
X34896Y-50061D01*
X34910Y-50089D01*
X34910Y-50132D01*
X34896Y-50161D01*
X34882Y-50175D01*
X34853Y-50189D01*
X34739Y-50189D01*
X35010Y-50032D02*
X35196Y-50032D01*
X35096Y-50146D01*
X35139Y-50146D01*
X35167Y-50161D01*
X35182Y-50175D01*
X35196Y-50203D01*
X35196Y-50275D01*
X35182Y-50303D01*
X35167Y-50318D01*
X35139Y-50332D01*
X35053Y-50332D01*
X35024Y-50318D01*
X35010Y-50303D01*
X39019Y-49651D02*
X39033Y-49609D01*
X39033Y-49537D01*
X39019Y-49509D01*
X39004Y-49494D01*
X38976Y-49480D01*
X38947Y-49480D01*
X38919Y-49494D01*
X38904Y-49509D01*
X38890Y-49537D01*
X38876Y-49594D01*
X38861Y-49623D01*
X38847Y-49637D01*
X38819Y-49651D01*
X38790Y-49651D01*
X38761Y-49637D01*
X38747Y-49623D01*
X38733Y-49594D01*
X38733Y-49523D01*
X38747Y-49480D01*
X38733Y-49380D02*
X39033Y-49309D01*
X38819Y-49251D01*
X39033Y-49194D01*
X38733Y-49123D01*
X39033Y-48851D02*
X39033Y-49023D01*
X39033Y-48937D02*
X38733Y-48937D01*
X38776Y-48966D01*
X38804Y-48994D01*
X38819Y-49023D01*
X34205Y-45543D02*
X34448Y-45543D01*
X34477Y-45529D01*
X34491Y-45514D01*
X34505Y-45486D01*
X34505Y-45429D01*
X34491Y-45400D01*
X34477Y-45386D01*
X34448Y-45372D01*
X34205Y-45372D01*
X34205Y-45257D02*
X34205Y-45057D01*
X34505Y-45186D01*
X31395Y-49364D02*
X31095Y-49364D01*
X31095Y-49249D01*
X31109Y-49221D01*
X31124Y-49206D01*
X31152Y-49192D01*
X31195Y-49192D01*
X31224Y-49206D01*
X31238Y-49221D01*
X31252Y-49249D01*
X31252Y-49364D01*
X31309Y-49078D02*
X31309Y-48935D01*
X31395Y-49106D02*
X31095Y-49006D01*
X31395Y-48906D01*
X31095Y-48678D02*
X31095Y-48735D01*
X31109Y-48764D01*
X31124Y-48778D01*
X31166Y-48806D01*
X31224Y-48821D01*
X31338Y-48821D01*
X31366Y-48806D01*
X31381Y-48792D01*
X31395Y-48764D01*
X31395Y-48706D01*
X31381Y-48678D01*
X31366Y-48664D01*
X31338Y-48649D01*
X31266Y-48649D01*
X31238Y-48664D01*
X31224Y-48678D01*
X31209Y-48706D01*
X31209Y-48764D01*
X31224Y-48792D01*
X31238Y-48806D01*
X31266Y-48821D01*
X31395Y-48521D02*
X31095Y-48521D01*
X31238Y-48521D02*
X31238Y-48349D01*
X31395Y-48349D02*
X31095Y-48349D01*
X31281Y-48206D02*
X31281Y-47978D01*
X31109Y-47678D02*
X31095Y-47706D01*
X31095Y-47749D01*
X31109Y-47792D01*
X31138Y-47821D01*
X31166Y-47835D01*
X31224Y-47849D01*
X31266Y-47849D01*
X31324Y-47835D01*
X31352Y-47821D01*
X31381Y-47792D01*
X31395Y-47749D01*
X31395Y-47721D01*
X31381Y-47678D01*
X31366Y-47664D01*
X31266Y-47664D01*
X31266Y-47721D01*
X31395Y-47535D02*
X31095Y-47535D01*
X31095Y-47421D01*
X31109Y-47392D01*
X31124Y-47378D01*
X31152Y-47364D01*
X31195Y-47364D01*
X31224Y-47378D01*
X31238Y-47392D01*
X31252Y-47421D01*
X31252Y-47535D01*
X31381Y-47249D02*
X31395Y-47206D01*
X31395Y-47135D01*
X31381Y-47106D01*
X31366Y-47092D01*
X31338Y-47078D01*
X31309Y-47078D01*
X31281Y-47092D01*
X31266Y-47106D01*
X31252Y-47135D01*
X31238Y-47192D01*
X31224Y-47221D01*
X31209Y-47235D01*
X31181Y-47249D01*
X31152Y-47249D01*
X31124Y-47235D01*
X31109Y-47221D01*
X31095Y-47192D01*
X31095Y-47121D01*
X31109Y-47078D01*
M02*
