G04 (created by PCBNEW (2013-mar-13)-testing) date Mon 25 May 2015 11:56:23 PM EDT*
%MOIN*%
G04 Gerber Fmt 3.4, Leading zero omitted, Abs format*
%FSLAX34Y34*%
G01*
G70*
G90*
G04 APERTURE LIST*
%ADD10C,0.005906*%
%ADD11R,0.055000X0.055000*%
%ADD12C,0.055000*%
%ADD13R,0.090600X0.019700*%
%ADD14R,0.098400X0.078700*%
%ADD15R,0.015748X0.031496*%
%ADD16R,0.031496X0.015748*%
%ADD17R,0.055118X0.082677*%
%ADD18R,0.039370X0.078740*%
%ADD19C,0.030000*%
%ADD20C,0.008000*%
%ADD21C,0.024000*%
%ADD22C,0.012000*%
%ADD23C,0.006000*%
%ADD24C,0.007992*%
G04 APERTURE END LIST*
G54D10*
G54D11*
X44972Y-44291D03*
G54D12*
X45972Y-44291D03*
G54D13*
X44409Y-48858D03*
X44409Y-48543D03*
X44409Y-48228D03*
X44409Y-47913D03*
X44409Y-47598D03*
G54D14*
X44448Y-49980D03*
X46613Y-49980D03*
X44448Y-46476D03*
X46613Y-46476D03*
G54D11*
X41625Y-52165D03*
G54D12*
X42625Y-52165D03*
G54D15*
X37232Y-45344D03*
X37232Y-45994D03*
X37570Y-45994D03*
X37570Y-45344D03*
G54D16*
X34517Y-48397D03*
X35167Y-48397D03*
X35167Y-48059D03*
X34517Y-48059D03*
G54D15*
X37570Y-51112D03*
X37570Y-50462D03*
X37232Y-50462D03*
X37232Y-51112D03*
G54D16*
X40285Y-48059D03*
X39635Y-48059D03*
X39635Y-48397D03*
X40285Y-48397D03*
G54D11*
X37885Y-44291D03*
G54D12*
X38885Y-44291D03*
G54D11*
X43429Y-44291D03*
G54D12*
X42429Y-44291D03*
X41429Y-44291D03*
X40429Y-44291D03*
G54D11*
X34940Y-50976D03*
G54D12*
X34940Y-51976D03*
G54D17*
X38287Y-46437D03*
X38287Y-50019D03*
X36515Y-46437D03*
X36515Y-50019D03*
G54D18*
X33562Y-45078D03*
X32972Y-45078D03*
X32381Y-45078D03*
X31791Y-45078D03*
X31200Y-45078D03*
X30610Y-45078D03*
X30019Y-45078D03*
X29429Y-45078D03*
X28838Y-45078D03*
X28248Y-45078D03*
X28248Y-51377D03*
X28838Y-51377D03*
X29429Y-51377D03*
X30019Y-51377D03*
X30610Y-51377D03*
X31200Y-51377D03*
X31791Y-51377D03*
X32381Y-51377D03*
X32972Y-51377D03*
X33562Y-51377D03*
G54D19*
X41496Y-46496D03*
X44448Y-51496D03*
X43661Y-49212D03*
X38464Y-45236D03*
X43582Y-47795D03*
X33937Y-52401D03*
X30000Y-52047D03*
X38937Y-50000D03*
X36732Y-48267D03*
X36929Y-47913D03*
X36220Y-49212D03*
X39960Y-52165D03*
X32677Y-50688D03*
X36712Y-48720D03*
X34153Y-51181D03*
X31417Y-50511D03*
X31771Y-49448D03*
X32244Y-49448D03*
X31968Y-50551D03*
X41417Y-48031D03*
X38622Y-48070D03*
X37559Y-47283D03*
X37874Y-47047D03*
X42480Y-49645D03*
X29448Y-52047D03*
X29448Y-52716D03*
X34566Y-44566D03*
X33070Y-48188D03*
X45866Y-45748D03*
X28858Y-45787D03*
X37834Y-49330D03*
X37677Y-48385D03*
X35472Y-46220D03*
X39330Y-51299D03*
X40393Y-51299D03*
X29606Y-49251D03*
X30905Y-48858D03*
X34055Y-48031D03*
X34055Y-48425D03*
X34055Y-47637D03*
X34055Y-47244D03*
X37598Y-51574D03*
X37106Y-51574D03*
X36122Y-51476D03*
X35728Y-51476D03*
X35629Y-44842D03*
X42913Y-46456D03*
X41417Y-48543D03*
X39566Y-49566D03*
X35905Y-46377D03*
X36929Y-49370D03*
X32677Y-50000D03*
X28307Y-48897D03*
X28267Y-52007D03*
G54D20*
X40826Y-46417D02*
X41417Y-46417D01*
X41417Y-46417D02*
X41496Y-46496D01*
G54D21*
X43661Y-50708D02*
X43661Y-49212D01*
X44448Y-51496D02*
X43661Y-50708D01*
G54D20*
X38464Y-45236D02*
X41023Y-45236D01*
X41023Y-45236D02*
X43582Y-47795D01*
G54D22*
X44015Y-48858D02*
X43661Y-49212D01*
X44409Y-48858D02*
X44015Y-48858D01*
G54D20*
X34940Y-51976D02*
X34362Y-51976D01*
X34362Y-51976D02*
X33937Y-52401D01*
X30000Y-51397D02*
X30019Y-51377D01*
X30000Y-52047D02*
X30000Y-51397D01*
X38287Y-50019D02*
X38917Y-50019D01*
X38917Y-50019D02*
X38937Y-50000D01*
X34940Y-51976D02*
X35539Y-51976D01*
X35539Y-51976D02*
X36023Y-52460D01*
X36023Y-52460D02*
X40157Y-52460D01*
X40157Y-52460D02*
X40452Y-52165D01*
X40452Y-52165D02*
X41625Y-52165D01*
X33562Y-51161D02*
X33562Y-51377D01*
X36456Y-48267D02*
X33562Y-51161D01*
X36732Y-48267D02*
X36456Y-48267D01*
X33562Y-51377D02*
X33562Y-51181D01*
X33661Y-50787D02*
X33070Y-50787D01*
X36496Y-47952D02*
X33661Y-50787D01*
X36496Y-47913D02*
X36496Y-47952D01*
X36929Y-47913D02*
X36496Y-47913D01*
X32972Y-51377D02*
X32972Y-50885D01*
X32972Y-50885D02*
X33070Y-50787D01*
X35334Y-50098D02*
X34940Y-50492D01*
X35334Y-50098D02*
X36220Y-49212D01*
X34940Y-50492D02*
X34940Y-50976D01*
X34940Y-50976D02*
X34940Y-51082D01*
X34940Y-51082D02*
X36122Y-52263D01*
X36122Y-52263D02*
X37992Y-52263D01*
X37992Y-52263D02*
X38090Y-52165D01*
X38090Y-52165D02*
X39960Y-52165D01*
X32677Y-50688D02*
X32539Y-50826D01*
X36712Y-48720D02*
X36318Y-48720D01*
X34153Y-50885D02*
X34153Y-51181D01*
X36318Y-48720D02*
X34153Y-50885D01*
X28838Y-51161D02*
X28838Y-51377D01*
X29173Y-50826D02*
X28838Y-51161D01*
X32539Y-50826D02*
X29173Y-50826D01*
X31417Y-50511D02*
X31771Y-50157D01*
X31771Y-49448D02*
X31771Y-50157D01*
X32244Y-50275D02*
X32244Y-49448D01*
X31968Y-50551D02*
X32244Y-50275D01*
X41181Y-47795D02*
X41417Y-48031D01*
X38897Y-47795D02*
X41181Y-47795D01*
X38622Y-48070D02*
X38897Y-47795D01*
X44409Y-48543D02*
X42765Y-48543D01*
X37637Y-47362D02*
X37559Y-47283D01*
X37992Y-47362D02*
X37637Y-47362D01*
X38147Y-47207D02*
X37992Y-47362D01*
X41429Y-47207D02*
X38147Y-47207D01*
X42765Y-48543D02*
X41429Y-47207D01*
X44409Y-48228D02*
X42677Y-48228D01*
X41496Y-47047D02*
X37874Y-47047D01*
X42677Y-48228D02*
X41496Y-47047D01*
X29448Y-52716D02*
X29448Y-52047D01*
X29429Y-52027D02*
X29448Y-52047D01*
X29429Y-52027D02*
X29429Y-51377D01*
G54D23*
X28838Y-45078D02*
X28838Y-45767D01*
X28838Y-45767D02*
X28858Y-45787D01*
G54D20*
X34082Y-48059D02*
X34517Y-48059D01*
X34055Y-48031D02*
X34082Y-48059D01*
X34082Y-48397D02*
X34517Y-48397D01*
X34055Y-48425D02*
X34082Y-48397D01*
X37232Y-45344D02*
X35561Y-45344D01*
X33759Y-47342D02*
X34055Y-47637D01*
X33759Y-47145D02*
X33759Y-47342D01*
X35561Y-45344D02*
X33759Y-47145D01*
X37570Y-45598D02*
X37570Y-45344D01*
X37500Y-45669D02*
X37570Y-45598D01*
X35629Y-45669D02*
X37500Y-45669D01*
X34055Y-47244D02*
X35629Y-45669D01*
X37570Y-51547D02*
X37570Y-51112D01*
X37598Y-51574D02*
X37570Y-51547D01*
X37232Y-51112D02*
X37232Y-51448D01*
X37232Y-51448D02*
X37106Y-51574D01*
X40285Y-48059D02*
X40031Y-48059D01*
X36122Y-51476D02*
X36515Y-51870D01*
X36515Y-51870D02*
X37795Y-51870D01*
X37795Y-51870D02*
X39960Y-49704D01*
X39960Y-48129D02*
X39960Y-49704D01*
X40031Y-48059D02*
X39960Y-48129D01*
X40285Y-48397D02*
X40285Y-49675D01*
X36318Y-52066D02*
X35728Y-51476D01*
X37893Y-52066D02*
X36318Y-52066D01*
X40285Y-49675D02*
X37893Y-52066D01*
X36515Y-46437D02*
X36771Y-46692D01*
X35748Y-44960D02*
X35629Y-44842D01*
X37677Y-44960D02*
X35748Y-44960D01*
X37834Y-45118D02*
X37677Y-44960D01*
X37834Y-46259D02*
X37834Y-45118D01*
X37401Y-46692D02*
X37834Y-46259D01*
X36771Y-46692D02*
X37401Y-46692D01*
G54D22*
X43429Y-44291D02*
X43429Y-45940D01*
X43429Y-45940D02*
X42913Y-46456D01*
X37244Y-47795D02*
X38267Y-47795D01*
X38267Y-47795D02*
X38543Y-47519D01*
X38543Y-47519D02*
X41377Y-47519D01*
X41377Y-47519D02*
X41811Y-47952D01*
X41811Y-47952D02*
X41811Y-48149D01*
X41811Y-48149D02*
X41417Y-48543D01*
X39566Y-49566D02*
X38858Y-48858D01*
X38858Y-48858D02*
X37007Y-48858D01*
X35905Y-46377D02*
X35905Y-46811D01*
X35905Y-46811D02*
X36535Y-47440D01*
X36535Y-47440D02*
X36889Y-47440D01*
X36889Y-47440D02*
X37244Y-47795D01*
X37244Y-47795D02*
X37283Y-47834D01*
X37283Y-47834D02*
X37283Y-48188D01*
X37283Y-48188D02*
X37007Y-48464D01*
X37007Y-48464D02*
X37007Y-48858D01*
X37007Y-49291D02*
X36929Y-49370D01*
X37007Y-48858D02*
X37007Y-49291D01*
G54D20*
X30472Y-48897D02*
X28307Y-48897D01*
X30472Y-48897D02*
X30826Y-48543D01*
X30826Y-48543D02*
X31811Y-48543D01*
X31811Y-48543D02*
X32677Y-49409D01*
X32677Y-50000D02*
X32677Y-49409D01*
X28248Y-51377D02*
X28248Y-51988D01*
X28248Y-51988D02*
X28267Y-52007D01*
G54D22*
X38885Y-44291D02*
X39397Y-43779D01*
X42917Y-43779D02*
X43429Y-44291D01*
X39397Y-43779D02*
X42917Y-43779D01*
G54D10*
G36*
X39602Y-49836D02*
X39207Y-50232D01*
X39207Y-49946D01*
X39166Y-49847D01*
X39090Y-49771D01*
X38990Y-49730D01*
X38883Y-49729D01*
X38784Y-49771D01*
X38708Y-49846D01*
X38702Y-49859D01*
X38682Y-49859D01*
X38682Y-49582D01*
X38664Y-49538D01*
X38630Y-49504D01*
X38586Y-49486D01*
X38539Y-49486D01*
X37987Y-49486D01*
X37943Y-49504D01*
X37910Y-49538D01*
X37891Y-49582D01*
X37891Y-49630D01*
X37891Y-50456D01*
X37910Y-50501D01*
X37943Y-50534D01*
X37987Y-50553D01*
X38035Y-50553D01*
X38586Y-50553D01*
X38630Y-50534D01*
X38664Y-50501D01*
X38682Y-50456D01*
X38682Y-50409D01*
X38682Y-50179D01*
X38734Y-50179D01*
X38783Y-50228D01*
X38883Y-50269D01*
X38990Y-50270D01*
X39089Y-50228D01*
X39165Y-50153D01*
X39206Y-50053D01*
X39207Y-49946D01*
X39207Y-50232D01*
X37868Y-51570D01*
X37868Y-51521D01*
X37827Y-51422D01*
X37789Y-51384D01*
X37789Y-50647D01*
X37789Y-50497D01*
X37789Y-50427D01*
X37789Y-50277D01*
X37768Y-50225D01*
X37728Y-50186D01*
X37677Y-50165D01*
X37621Y-50165D01*
X37606Y-50165D01*
X37571Y-50200D01*
X37571Y-50462D01*
X37754Y-50462D01*
X37789Y-50427D01*
X37789Y-50497D01*
X37754Y-50462D01*
X37571Y-50462D01*
X37571Y-50725D01*
X37606Y-50760D01*
X37621Y-50760D01*
X37677Y-50760D01*
X37728Y-50738D01*
X37768Y-50699D01*
X37789Y-50647D01*
X37789Y-51384D01*
X37751Y-51346D01*
X37745Y-51343D01*
X37751Y-51337D01*
X37769Y-51293D01*
X37769Y-51245D01*
X37769Y-50930D01*
X37751Y-50886D01*
X37717Y-50853D01*
X37673Y-50834D01*
X37625Y-50834D01*
X37570Y-50834D01*
X37570Y-50725D01*
X37570Y-50462D01*
X37570Y-50462D01*
X37570Y-50200D01*
X37535Y-50165D01*
X37519Y-50165D01*
X37464Y-50165D01*
X37412Y-50186D01*
X37401Y-50197D01*
X37390Y-50186D01*
X37338Y-50165D01*
X37283Y-50165D01*
X37267Y-50165D01*
X37232Y-50200D01*
X37232Y-50462D01*
X37387Y-50462D01*
X37415Y-50462D01*
X37570Y-50462D01*
X37570Y-50462D01*
X37415Y-50462D01*
X37387Y-50462D01*
X37232Y-50462D01*
X37232Y-50725D01*
X37267Y-50760D01*
X37283Y-50760D01*
X37338Y-50760D01*
X37390Y-50738D01*
X37401Y-50727D01*
X37412Y-50738D01*
X37464Y-50760D01*
X37519Y-50760D01*
X37535Y-50760D01*
X37570Y-50725D01*
X37570Y-50834D01*
X37468Y-50834D01*
X37424Y-50853D01*
X37401Y-50875D01*
X37378Y-50853D01*
X37334Y-50834D01*
X37287Y-50834D01*
X37232Y-50834D01*
X37232Y-50725D01*
X37232Y-50462D01*
X37232Y-50462D01*
X37232Y-50200D01*
X37197Y-50165D01*
X37181Y-50165D01*
X37125Y-50165D01*
X37074Y-50186D01*
X37034Y-50225D01*
X37013Y-50277D01*
X37013Y-50427D01*
X37048Y-50462D01*
X37232Y-50462D01*
X37232Y-50462D01*
X37048Y-50462D01*
X37013Y-50497D01*
X37013Y-50647D01*
X37034Y-50699D01*
X37074Y-50738D01*
X37125Y-50760D01*
X37181Y-50760D01*
X37197Y-50760D01*
X37232Y-50725D01*
X37232Y-50834D01*
X37129Y-50834D01*
X37085Y-50853D01*
X37051Y-50886D01*
X37033Y-50930D01*
X37033Y-50978D01*
X37033Y-51293D01*
X37040Y-51309D01*
X36953Y-51345D01*
X36877Y-51421D01*
X36836Y-51520D01*
X36836Y-51628D01*
X36870Y-51710D01*
X36582Y-51710D01*
X36391Y-51520D01*
X36392Y-51422D01*
X36351Y-51323D01*
X36275Y-51247D01*
X36175Y-51206D01*
X36068Y-51206D01*
X35969Y-51247D01*
X35925Y-51291D01*
X35881Y-51247D01*
X35782Y-51206D01*
X35674Y-51206D01*
X35575Y-51247D01*
X35499Y-51323D01*
X35472Y-51388D01*
X35335Y-51251D01*
X35335Y-51227D01*
X35335Y-50677D01*
X35317Y-50633D01*
X35283Y-50599D01*
X35239Y-50581D01*
X35192Y-50581D01*
X35100Y-50581D01*
X35100Y-50558D01*
X35447Y-50211D01*
X35447Y-50211D01*
X35447Y-50211D01*
X36176Y-49482D01*
X36273Y-49482D01*
X36373Y-49441D01*
X36449Y-49365D01*
X36490Y-49266D01*
X36490Y-49159D01*
X36449Y-49059D01*
X36373Y-48983D01*
X36308Y-48956D01*
X36385Y-48880D01*
X36490Y-48880D01*
X36559Y-48949D01*
X36658Y-48990D01*
X36766Y-48990D01*
X36827Y-48964D01*
X36827Y-49119D01*
X36776Y-49141D01*
X36700Y-49216D01*
X36659Y-49316D01*
X36659Y-49423D01*
X36685Y-49486D01*
X36216Y-49486D01*
X36172Y-49504D01*
X36138Y-49538D01*
X36120Y-49582D01*
X36120Y-49630D01*
X36120Y-50456D01*
X36138Y-50501D01*
X36172Y-50534D01*
X36216Y-50553D01*
X36264Y-50553D01*
X36815Y-50553D01*
X36859Y-50534D01*
X36893Y-50501D01*
X36911Y-50456D01*
X36911Y-50409D01*
X36911Y-49640D01*
X36982Y-49640D01*
X37081Y-49599D01*
X37157Y-49523D01*
X37199Y-49424D01*
X37199Y-49316D01*
X37187Y-49289D01*
X37187Y-49038D01*
X38783Y-49038D01*
X39296Y-49551D01*
X39296Y-49620D01*
X39337Y-49719D01*
X39413Y-49795D01*
X39512Y-49836D01*
X39602Y-49836D01*
X39602Y-49836D01*
G37*
G54D24*
X39602Y-49836D02*
X39207Y-50232D01*
X39207Y-49946D01*
X39166Y-49847D01*
X39090Y-49771D01*
X38990Y-49730D01*
X38883Y-49729D01*
X38784Y-49771D01*
X38708Y-49846D01*
X38702Y-49859D01*
X38682Y-49859D01*
X38682Y-49582D01*
X38664Y-49538D01*
X38630Y-49504D01*
X38586Y-49486D01*
X38539Y-49486D01*
X37987Y-49486D01*
X37943Y-49504D01*
X37910Y-49538D01*
X37891Y-49582D01*
X37891Y-49630D01*
X37891Y-50456D01*
X37910Y-50501D01*
X37943Y-50534D01*
X37987Y-50553D01*
X38035Y-50553D01*
X38586Y-50553D01*
X38630Y-50534D01*
X38664Y-50501D01*
X38682Y-50456D01*
X38682Y-50409D01*
X38682Y-50179D01*
X38734Y-50179D01*
X38783Y-50228D01*
X38883Y-50269D01*
X38990Y-50270D01*
X39089Y-50228D01*
X39165Y-50153D01*
X39206Y-50053D01*
X39207Y-49946D01*
X39207Y-50232D01*
X37868Y-51570D01*
X37868Y-51521D01*
X37827Y-51422D01*
X37789Y-51384D01*
X37789Y-50647D01*
X37789Y-50497D01*
X37789Y-50427D01*
X37789Y-50277D01*
X37768Y-50225D01*
X37728Y-50186D01*
X37677Y-50165D01*
X37621Y-50165D01*
X37606Y-50165D01*
X37571Y-50200D01*
X37571Y-50462D01*
X37754Y-50462D01*
X37789Y-50427D01*
X37789Y-50497D01*
X37754Y-50462D01*
X37571Y-50462D01*
X37571Y-50725D01*
X37606Y-50760D01*
X37621Y-50760D01*
X37677Y-50760D01*
X37728Y-50738D01*
X37768Y-50699D01*
X37789Y-50647D01*
X37789Y-51384D01*
X37751Y-51346D01*
X37745Y-51343D01*
X37751Y-51337D01*
X37769Y-51293D01*
X37769Y-51245D01*
X37769Y-50930D01*
X37751Y-50886D01*
X37717Y-50853D01*
X37673Y-50834D01*
X37625Y-50834D01*
X37570Y-50834D01*
X37570Y-50725D01*
X37570Y-50462D01*
X37570Y-50462D01*
X37570Y-50200D01*
X37535Y-50165D01*
X37519Y-50165D01*
X37464Y-50165D01*
X37412Y-50186D01*
X37401Y-50197D01*
X37390Y-50186D01*
X37338Y-50165D01*
X37283Y-50165D01*
X37267Y-50165D01*
X37232Y-50200D01*
X37232Y-50462D01*
X37387Y-50462D01*
X37415Y-50462D01*
X37570Y-50462D01*
X37570Y-50462D01*
X37415Y-50462D01*
X37387Y-50462D01*
X37232Y-50462D01*
X37232Y-50725D01*
X37267Y-50760D01*
X37283Y-50760D01*
X37338Y-50760D01*
X37390Y-50738D01*
X37401Y-50727D01*
X37412Y-50738D01*
X37464Y-50760D01*
X37519Y-50760D01*
X37535Y-50760D01*
X37570Y-50725D01*
X37570Y-50834D01*
X37468Y-50834D01*
X37424Y-50853D01*
X37401Y-50875D01*
X37378Y-50853D01*
X37334Y-50834D01*
X37287Y-50834D01*
X37232Y-50834D01*
X37232Y-50725D01*
X37232Y-50462D01*
X37232Y-50462D01*
X37232Y-50200D01*
X37197Y-50165D01*
X37181Y-50165D01*
X37125Y-50165D01*
X37074Y-50186D01*
X37034Y-50225D01*
X37013Y-50277D01*
X37013Y-50427D01*
X37048Y-50462D01*
X37232Y-50462D01*
X37232Y-50462D01*
X37048Y-50462D01*
X37013Y-50497D01*
X37013Y-50647D01*
X37034Y-50699D01*
X37074Y-50738D01*
X37125Y-50760D01*
X37181Y-50760D01*
X37197Y-50760D01*
X37232Y-50725D01*
X37232Y-50834D01*
X37129Y-50834D01*
X37085Y-50853D01*
X37051Y-50886D01*
X37033Y-50930D01*
X37033Y-50978D01*
X37033Y-51293D01*
X37040Y-51309D01*
X36953Y-51345D01*
X36877Y-51421D01*
X36836Y-51520D01*
X36836Y-51628D01*
X36870Y-51710D01*
X36582Y-51710D01*
X36391Y-51520D01*
X36392Y-51422D01*
X36351Y-51323D01*
X36275Y-51247D01*
X36175Y-51206D01*
X36068Y-51206D01*
X35969Y-51247D01*
X35925Y-51291D01*
X35881Y-51247D01*
X35782Y-51206D01*
X35674Y-51206D01*
X35575Y-51247D01*
X35499Y-51323D01*
X35472Y-51388D01*
X35335Y-51251D01*
X35335Y-51227D01*
X35335Y-50677D01*
X35317Y-50633D01*
X35283Y-50599D01*
X35239Y-50581D01*
X35192Y-50581D01*
X35100Y-50581D01*
X35100Y-50558D01*
X35447Y-50211D01*
X35447Y-50211D01*
X35447Y-50211D01*
X36176Y-49482D01*
X36273Y-49482D01*
X36373Y-49441D01*
X36449Y-49365D01*
X36490Y-49266D01*
X36490Y-49159D01*
X36449Y-49059D01*
X36373Y-48983D01*
X36308Y-48956D01*
X36385Y-48880D01*
X36490Y-48880D01*
X36559Y-48949D01*
X36658Y-48990D01*
X36766Y-48990D01*
X36827Y-48964D01*
X36827Y-49119D01*
X36776Y-49141D01*
X36700Y-49216D01*
X36659Y-49316D01*
X36659Y-49423D01*
X36685Y-49486D01*
X36216Y-49486D01*
X36172Y-49504D01*
X36138Y-49538D01*
X36120Y-49582D01*
X36120Y-49630D01*
X36120Y-50456D01*
X36138Y-50501D01*
X36172Y-50534D01*
X36216Y-50553D01*
X36264Y-50553D01*
X36815Y-50553D01*
X36859Y-50534D01*
X36893Y-50501D01*
X36911Y-50456D01*
X36911Y-50409D01*
X36911Y-49640D01*
X36982Y-49640D01*
X37081Y-49599D01*
X37157Y-49523D01*
X37199Y-49424D01*
X37199Y-49316D01*
X37187Y-49289D01*
X37187Y-49038D01*
X38783Y-49038D01*
X39296Y-49551D01*
X39296Y-49620D01*
X39337Y-49719D01*
X39413Y-49795D01*
X39512Y-49836D01*
X39602Y-49836D01*
G54D10*
G36*
X39800Y-49425D02*
X39795Y-49414D01*
X39720Y-49338D01*
X39635Y-49303D01*
X39635Y-48581D01*
X39635Y-48397D01*
X39635Y-48397D01*
X39635Y-48242D01*
X39635Y-48213D01*
X39635Y-48059D01*
X39373Y-48059D01*
X39338Y-48094D01*
X39338Y-48109D01*
X39338Y-48165D01*
X39359Y-48217D01*
X39370Y-48228D01*
X39359Y-48239D01*
X39338Y-48291D01*
X39338Y-48346D01*
X39338Y-48362D01*
X39373Y-48397D01*
X39635Y-48397D01*
X39635Y-48397D01*
X39373Y-48397D01*
X39338Y-48432D01*
X39338Y-48448D01*
X39338Y-48504D01*
X39359Y-48555D01*
X39399Y-48595D01*
X39450Y-48616D01*
X39600Y-48616D01*
X39635Y-48581D01*
X39635Y-49303D01*
X39620Y-49297D01*
X39551Y-49296D01*
X38985Y-48731D01*
X38927Y-48692D01*
X38915Y-48689D01*
X38858Y-48678D01*
X38858Y-48678D01*
X37187Y-48678D01*
X37187Y-48539D01*
X37410Y-48316D01*
X37410Y-48316D01*
X37410Y-48316D01*
X37449Y-48257D01*
X37449Y-48257D01*
X37463Y-48188D01*
X37463Y-47975D01*
X38267Y-47975D01*
X38267Y-47975D01*
X38267Y-47975D01*
X38325Y-47963D01*
X38336Y-47961D01*
X38336Y-47961D01*
X38389Y-47925D01*
X38352Y-48016D01*
X38352Y-48124D01*
X38393Y-48223D01*
X38468Y-48299D01*
X38568Y-48340D01*
X38675Y-48340D01*
X38774Y-48299D01*
X38850Y-48223D01*
X38891Y-48124D01*
X38892Y-48027D01*
X38963Y-47955D01*
X39338Y-47955D01*
X39338Y-48008D01*
X39338Y-48023D01*
X39373Y-48058D01*
X39635Y-48058D01*
X39635Y-48050D01*
X39636Y-48050D01*
X39636Y-48058D01*
X39643Y-48058D01*
X39643Y-48059D01*
X39636Y-48059D01*
X39636Y-48213D01*
X39636Y-48242D01*
X39636Y-48397D01*
X39643Y-48397D01*
X39643Y-48397D01*
X39636Y-48397D01*
X39636Y-48581D01*
X39671Y-48616D01*
X39800Y-48616D01*
X39800Y-49425D01*
X39800Y-49425D01*
G37*
G54D24*
X39800Y-49425D02*
X39795Y-49414D01*
X39720Y-49338D01*
X39635Y-49303D01*
X39635Y-48581D01*
X39635Y-48397D01*
X39635Y-48397D01*
X39635Y-48242D01*
X39635Y-48213D01*
X39635Y-48059D01*
X39373Y-48059D01*
X39338Y-48094D01*
X39338Y-48109D01*
X39338Y-48165D01*
X39359Y-48217D01*
X39370Y-48228D01*
X39359Y-48239D01*
X39338Y-48291D01*
X39338Y-48346D01*
X39338Y-48362D01*
X39373Y-48397D01*
X39635Y-48397D01*
X39635Y-48397D01*
X39373Y-48397D01*
X39338Y-48432D01*
X39338Y-48448D01*
X39338Y-48504D01*
X39359Y-48555D01*
X39399Y-48595D01*
X39450Y-48616D01*
X39600Y-48616D01*
X39635Y-48581D01*
X39635Y-49303D01*
X39620Y-49297D01*
X39551Y-49296D01*
X38985Y-48731D01*
X38927Y-48692D01*
X38915Y-48689D01*
X38858Y-48678D01*
X38858Y-48678D01*
X37187Y-48678D01*
X37187Y-48539D01*
X37410Y-48316D01*
X37410Y-48316D01*
X37410Y-48316D01*
X37449Y-48257D01*
X37449Y-48257D01*
X37463Y-48188D01*
X37463Y-47975D01*
X38267Y-47975D01*
X38267Y-47975D01*
X38267Y-47975D01*
X38325Y-47963D01*
X38336Y-47961D01*
X38336Y-47961D01*
X38389Y-47925D01*
X38352Y-48016D01*
X38352Y-48124D01*
X38393Y-48223D01*
X38468Y-48299D01*
X38568Y-48340D01*
X38675Y-48340D01*
X38774Y-48299D01*
X38850Y-48223D01*
X38891Y-48124D01*
X38892Y-48027D01*
X38963Y-47955D01*
X39338Y-47955D01*
X39338Y-48008D01*
X39338Y-48023D01*
X39373Y-48058D01*
X39635Y-48058D01*
X39635Y-48050D01*
X39636Y-48050D01*
X39636Y-48058D01*
X39643Y-48058D01*
X39643Y-48059D01*
X39636Y-48059D01*
X39636Y-48213D01*
X39636Y-48242D01*
X39636Y-48397D01*
X39643Y-48397D01*
X39643Y-48397D01*
X39636Y-48397D01*
X39636Y-48581D01*
X39671Y-48616D01*
X39800Y-48616D01*
X39800Y-49425D01*
G54D10*
G36*
X47104Y-51561D02*
X46992Y-52122D01*
X46682Y-52587D01*
X46613Y-52633D01*
X46613Y-50478D01*
X46613Y-49980D01*
X46613Y-49980D01*
X46613Y-49481D01*
X46613Y-46974D01*
X46613Y-46476D01*
X46613Y-46476D01*
X46613Y-45977D01*
X46578Y-45942D01*
X46367Y-45942D01*
X46367Y-44213D01*
X46307Y-44067D01*
X46196Y-43956D01*
X46051Y-43896D01*
X45894Y-43896D01*
X45749Y-43956D01*
X45637Y-44067D01*
X45577Y-44212D01*
X45577Y-44369D01*
X45637Y-44514D01*
X45748Y-44625D01*
X45893Y-44686D01*
X46050Y-44686D01*
X46195Y-44626D01*
X46307Y-44515D01*
X46367Y-44370D01*
X46367Y-44213D01*
X46367Y-45942D01*
X46093Y-45942D01*
X46042Y-45964D01*
X46003Y-46003D01*
X45981Y-46055D01*
X45981Y-46110D01*
X45981Y-46441D01*
X46016Y-46476D01*
X46613Y-46476D01*
X46613Y-46476D01*
X46016Y-46476D01*
X45981Y-46511D01*
X45981Y-46842D01*
X45981Y-46897D01*
X46003Y-46949D01*
X46042Y-46988D01*
X46093Y-47009D01*
X46578Y-47009D01*
X46613Y-46974D01*
X46613Y-49481D01*
X46578Y-49446D01*
X46093Y-49446D01*
X46042Y-49468D01*
X46003Y-49507D01*
X45981Y-49559D01*
X45981Y-49614D01*
X45981Y-49945D01*
X46016Y-49980D01*
X46613Y-49980D01*
X46613Y-49980D01*
X46016Y-49980D01*
X45981Y-50015D01*
X45981Y-50346D01*
X45981Y-50401D01*
X46003Y-50453D01*
X46042Y-50492D01*
X46093Y-50513D01*
X46578Y-50513D01*
X46613Y-50478D01*
X46613Y-52633D01*
X46217Y-52898D01*
X45729Y-52995D01*
X45729Y-49035D01*
X45729Y-47303D01*
X45684Y-47194D01*
X45601Y-47110D01*
X45492Y-47065D01*
X45373Y-47065D01*
X45367Y-47068D01*
X45367Y-44590D01*
X45367Y-44542D01*
X45367Y-43992D01*
X45349Y-43948D01*
X45315Y-43914D01*
X45271Y-43896D01*
X45223Y-43896D01*
X44673Y-43896D01*
X44629Y-43914D01*
X44595Y-43948D01*
X44577Y-43992D01*
X44577Y-44040D01*
X44577Y-44590D01*
X44595Y-44634D01*
X44629Y-44668D01*
X44673Y-44686D01*
X44721Y-44686D01*
X45271Y-44686D01*
X45315Y-44668D01*
X45349Y-44634D01*
X45367Y-44590D01*
X45367Y-47068D01*
X45264Y-47110D01*
X45181Y-47193D01*
X45135Y-47303D01*
X45135Y-47421D01*
X45180Y-47530D01*
X45264Y-47613D01*
X45373Y-47659D01*
X45491Y-47659D01*
X45600Y-47614D01*
X45684Y-47530D01*
X45729Y-47421D01*
X45729Y-47303D01*
X45729Y-49035D01*
X45684Y-48926D01*
X45601Y-48842D01*
X45492Y-48797D01*
X45373Y-48797D01*
X45264Y-48842D01*
X45181Y-48925D01*
X45135Y-49035D01*
X45135Y-49153D01*
X45180Y-49262D01*
X45264Y-49345D01*
X45373Y-49391D01*
X45491Y-49391D01*
X45600Y-49346D01*
X45684Y-49262D01*
X45729Y-49153D01*
X45729Y-49035D01*
X45729Y-52995D01*
X45655Y-53010D01*
X45080Y-53010D01*
X45080Y-50401D01*
X45080Y-50346D01*
X45080Y-50015D01*
X45080Y-49945D01*
X45080Y-49614D01*
X45080Y-49559D01*
X45080Y-46897D01*
X45080Y-46842D01*
X45080Y-46511D01*
X45080Y-46441D01*
X45080Y-46110D01*
X45080Y-46055D01*
X45059Y-46003D01*
X45019Y-45964D01*
X44968Y-45942D01*
X44483Y-45942D01*
X44448Y-45977D01*
X44448Y-46476D01*
X45045Y-46476D01*
X45080Y-46441D01*
X45080Y-46511D01*
X45045Y-46476D01*
X44448Y-46476D01*
X44448Y-46974D01*
X44483Y-47009D01*
X44968Y-47009D01*
X45019Y-46988D01*
X45059Y-46949D01*
X45080Y-46897D01*
X45080Y-49559D01*
X45059Y-49507D01*
X45019Y-49468D01*
X45002Y-49461D01*
X45002Y-47724D01*
X45002Y-47669D01*
X45002Y-47633D01*
X45002Y-47563D01*
X45002Y-47527D01*
X45002Y-47472D01*
X44981Y-47420D01*
X44941Y-47381D01*
X44890Y-47359D01*
X44448Y-47359D01*
X44448Y-46974D01*
X44448Y-46476D01*
X44448Y-46476D01*
X44448Y-45977D01*
X44413Y-45942D01*
X43928Y-45942D01*
X43877Y-45964D01*
X43838Y-46003D01*
X43824Y-46037D01*
X43824Y-44590D01*
X43824Y-44542D01*
X43824Y-43992D01*
X43805Y-43948D01*
X43772Y-43914D01*
X43727Y-43896D01*
X43680Y-43896D01*
X43288Y-43896D01*
X43044Y-43652D01*
X42986Y-43613D01*
X42974Y-43610D01*
X42917Y-43599D01*
X42917Y-43599D01*
X39397Y-43599D01*
X39397Y-43599D01*
X39328Y-43613D01*
X39309Y-43626D01*
X39270Y-43652D01*
X39270Y-43652D01*
X39008Y-43914D01*
X38964Y-43896D01*
X38807Y-43896D01*
X38662Y-43956D01*
X38551Y-44067D01*
X38490Y-44212D01*
X38490Y-44369D01*
X38550Y-44514D01*
X38661Y-44625D01*
X38806Y-44686D01*
X38964Y-44686D01*
X39109Y-44626D01*
X39220Y-44515D01*
X39280Y-44370D01*
X39280Y-44213D01*
X39262Y-44169D01*
X39472Y-43959D01*
X40202Y-43959D01*
X40094Y-44067D01*
X40034Y-44212D01*
X40034Y-44369D01*
X40094Y-44514D01*
X40205Y-44625D01*
X40350Y-44686D01*
X40507Y-44686D01*
X40652Y-44626D01*
X40763Y-44515D01*
X40824Y-44370D01*
X40824Y-44213D01*
X40764Y-44067D01*
X40655Y-43959D01*
X41176Y-43959D01*
X41154Y-44016D01*
X41429Y-44291D01*
X41703Y-44016D01*
X41681Y-43959D01*
X42202Y-43959D01*
X42094Y-44067D01*
X42034Y-44212D01*
X42034Y-44369D01*
X42094Y-44514D01*
X42205Y-44625D01*
X42350Y-44686D01*
X42507Y-44686D01*
X42652Y-44626D01*
X42763Y-44515D01*
X42824Y-44370D01*
X42824Y-44213D01*
X42764Y-44067D01*
X42655Y-43959D01*
X42842Y-43959D01*
X43034Y-44150D01*
X43034Y-44590D01*
X43052Y-44634D01*
X43086Y-44668D01*
X43130Y-44686D01*
X43177Y-44686D01*
X43249Y-44686D01*
X43249Y-45866D01*
X42928Y-46186D01*
X42859Y-46186D01*
X42760Y-46227D01*
X42684Y-46303D01*
X42643Y-46402D01*
X42643Y-46510D01*
X42684Y-46609D01*
X42760Y-46685D01*
X42859Y-46726D01*
X42966Y-46726D01*
X43066Y-46685D01*
X43142Y-46609D01*
X43183Y-46510D01*
X43183Y-46441D01*
X43556Y-46068D01*
X43556Y-46068D01*
X43556Y-46068D01*
X43582Y-46029D01*
X43595Y-46009D01*
X43595Y-46009D01*
X43609Y-45940D01*
X43609Y-45940D01*
X43609Y-45940D01*
X43609Y-44686D01*
X43727Y-44686D01*
X43772Y-44668D01*
X43805Y-44634D01*
X43824Y-44590D01*
X43824Y-46037D01*
X43816Y-46055D01*
X43816Y-46110D01*
X43816Y-46441D01*
X43851Y-46476D01*
X44448Y-46476D01*
X44448Y-46476D01*
X43851Y-46476D01*
X43816Y-46511D01*
X43816Y-46842D01*
X43816Y-46897D01*
X43838Y-46949D01*
X43877Y-46988D01*
X43928Y-47009D01*
X44413Y-47009D01*
X44448Y-46974D01*
X44448Y-47359D01*
X44444Y-47359D01*
X44409Y-47394D01*
X44409Y-47598D01*
X44967Y-47598D01*
X45002Y-47563D01*
X45002Y-47633D01*
X44967Y-47598D01*
X44409Y-47598D01*
X44409Y-47606D01*
X44409Y-47606D01*
X44409Y-47598D01*
X44409Y-47598D01*
X44409Y-47394D01*
X44374Y-47359D01*
X43928Y-47359D01*
X43877Y-47381D01*
X43838Y-47420D01*
X43816Y-47472D01*
X43816Y-47527D01*
X43816Y-47563D01*
X43851Y-47598D01*
X44409Y-47598D01*
X44409Y-47598D01*
X43851Y-47598D01*
X43816Y-47633D01*
X43816Y-47654D01*
X43811Y-47642D01*
X43735Y-47566D01*
X43636Y-47525D01*
X43538Y-47525D01*
X41846Y-45833D01*
X41846Y-44224D01*
X41789Y-44070D01*
X41771Y-44042D01*
X41703Y-44017D01*
X41429Y-44291D01*
X41703Y-44565D01*
X41771Y-44539D01*
X41840Y-44389D01*
X41846Y-44224D01*
X41846Y-45833D01*
X41703Y-45689D01*
X41703Y-44565D01*
X41429Y-44291D01*
X41428Y-44291D01*
X41428Y-44291D01*
X41154Y-44017D01*
X41086Y-44042D01*
X41017Y-44192D01*
X41011Y-44357D01*
X41068Y-44512D01*
X41086Y-44539D01*
X41154Y-44565D01*
X41428Y-44291D01*
X41428Y-44291D01*
X41154Y-44565D01*
X41180Y-44633D01*
X41330Y-44702D01*
X41495Y-44709D01*
X41650Y-44651D01*
X41677Y-44633D01*
X41703Y-44565D01*
X41703Y-45689D01*
X41136Y-45123D01*
X41084Y-45088D01*
X41023Y-45076D01*
X38686Y-45076D01*
X38617Y-45007D01*
X38518Y-44966D01*
X38411Y-44966D01*
X38311Y-45007D01*
X38280Y-45038D01*
X38280Y-44590D01*
X38280Y-44542D01*
X38280Y-43992D01*
X38262Y-43948D01*
X38228Y-43914D01*
X38184Y-43896D01*
X38136Y-43896D01*
X37586Y-43896D01*
X37542Y-43914D01*
X37509Y-43948D01*
X37490Y-43992D01*
X37490Y-44040D01*
X37490Y-44590D01*
X37509Y-44634D01*
X37542Y-44668D01*
X37586Y-44686D01*
X37634Y-44686D01*
X38184Y-44686D01*
X38228Y-44668D01*
X38262Y-44634D01*
X38280Y-44590D01*
X38280Y-45038D01*
X38235Y-45083D01*
X38194Y-45182D01*
X38194Y-45289D01*
X38235Y-45388D01*
X38311Y-45464D01*
X38410Y-45506D01*
X38518Y-45506D01*
X38617Y-45465D01*
X38686Y-45396D01*
X40957Y-45396D01*
X43312Y-47751D01*
X43312Y-47848D01*
X43353Y-47947D01*
X43429Y-48024D01*
X43528Y-48065D01*
X43636Y-48065D01*
X43735Y-48024D01*
X43811Y-47948D01*
X43836Y-47887D01*
X43836Y-48035D01*
X43850Y-48068D01*
X42743Y-48068D01*
X41766Y-47091D01*
X41766Y-46442D01*
X41725Y-46343D01*
X41649Y-46267D01*
X41549Y-46226D01*
X41442Y-46226D01*
X41366Y-46257D01*
X40826Y-46257D01*
X40765Y-46269D01*
X40713Y-46304D01*
X40678Y-46356D01*
X40666Y-46417D01*
X40678Y-46478D01*
X40713Y-46530D01*
X40765Y-46565D01*
X40826Y-46577D01*
X41237Y-46577D01*
X41267Y-46648D01*
X41342Y-46724D01*
X41442Y-46765D01*
X41549Y-46766D01*
X41648Y-46725D01*
X41724Y-46649D01*
X41765Y-46549D01*
X41766Y-46442D01*
X41766Y-47091D01*
X41609Y-46934D01*
X41557Y-46899D01*
X41496Y-46887D01*
X38677Y-46887D01*
X38682Y-46874D01*
X38682Y-46826D01*
X38682Y-45999D01*
X38664Y-45955D01*
X38630Y-45921D01*
X38586Y-45903D01*
X38539Y-45903D01*
X37994Y-45903D01*
X37994Y-45118D01*
X37984Y-45067D01*
X37982Y-45056D01*
X37982Y-45056D01*
X37947Y-45005D01*
X37947Y-45005D01*
X37790Y-44847D01*
X37738Y-44812D01*
X37677Y-44800D01*
X35899Y-44800D01*
X35899Y-44789D01*
X35858Y-44689D01*
X35783Y-44613D01*
X35683Y-44572D01*
X35576Y-44572D01*
X35477Y-44613D01*
X35401Y-44689D01*
X35360Y-44788D01*
X35359Y-44895D01*
X35400Y-44995D01*
X35476Y-45071D01*
X35575Y-45112D01*
X35683Y-45112D01*
X35691Y-45109D01*
X35691Y-45109D01*
X35748Y-45120D01*
X37051Y-45120D01*
X37033Y-45163D01*
X37033Y-45184D01*
X35561Y-45184D01*
X35499Y-45196D01*
X35447Y-45231D01*
X33879Y-46799D01*
X33879Y-45496D01*
X33879Y-45448D01*
X33879Y-44661D01*
X33861Y-44617D01*
X33827Y-44583D01*
X33783Y-44565D01*
X33735Y-44565D01*
X33342Y-44565D01*
X33298Y-44583D01*
X33281Y-44599D01*
X33248Y-44566D01*
X33197Y-44545D01*
X33141Y-44545D01*
X33007Y-44545D01*
X32972Y-44580D01*
X32972Y-45078D01*
X32980Y-45078D01*
X32980Y-45078D01*
X32972Y-45078D01*
X32972Y-45577D01*
X33007Y-45612D01*
X33141Y-45612D01*
X33197Y-45612D01*
X33248Y-45591D01*
X33281Y-45557D01*
X33298Y-45574D01*
X33342Y-45592D01*
X33390Y-45592D01*
X33783Y-45592D01*
X33827Y-45574D01*
X33861Y-45540D01*
X33879Y-45496D01*
X33879Y-46799D01*
X33646Y-47032D01*
X33612Y-47084D01*
X33599Y-47145D01*
X33599Y-47342D01*
X33612Y-47403D01*
X33646Y-47455D01*
X33785Y-47594D01*
X33785Y-47691D01*
X33826Y-47790D01*
X33870Y-47834D01*
X33826Y-47878D01*
X33785Y-47977D01*
X33785Y-48084D01*
X33826Y-48184D01*
X33870Y-48228D01*
X33826Y-48272D01*
X33785Y-48371D01*
X33785Y-48478D01*
X33826Y-48577D01*
X33901Y-48653D01*
X34001Y-48695D01*
X34108Y-48695D01*
X34207Y-48654D01*
X34283Y-48578D01*
X34286Y-48572D01*
X34292Y-48578D01*
X34336Y-48596D01*
X34384Y-48596D01*
X34699Y-48596D01*
X34743Y-48578D01*
X34776Y-48544D01*
X34795Y-48500D01*
X34795Y-48452D01*
X34795Y-48295D01*
X34776Y-48250D01*
X34754Y-48228D01*
X34776Y-48205D01*
X34795Y-48161D01*
X34795Y-48113D01*
X34795Y-47956D01*
X34776Y-47912D01*
X34743Y-47878D01*
X34699Y-47860D01*
X34651Y-47860D01*
X34336Y-47860D01*
X34292Y-47878D01*
X34286Y-47884D01*
X34284Y-47878D01*
X34240Y-47834D01*
X34283Y-47790D01*
X34325Y-47691D01*
X34325Y-47584D01*
X34284Y-47485D01*
X34240Y-47440D01*
X34283Y-47397D01*
X34325Y-47298D01*
X34325Y-47200D01*
X35696Y-45829D01*
X37013Y-45829D01*
X37013Y-45958D01*
X37048Y-45993D01*
X37232Y-45993D01*
X37232Y-45986D01*
X37232Y-45986D01*
X37232Y-45993D01*
X37387Y-45993D01*
X37415Y-45993D01*
X37570Y-45993D01*
X37570Y-45986D01*
X37571Y-45986D01*
X37571Y-45993D01*
X37578Y-45993D01*
X37578Y-45994D01*
X37571Y-45994D01*
X37571Y-46256D01*
X37591Y-46276D01*
X37570Y-46297D01*
X37570Y-46256D01*
X37570Y-45994D01*
X37415Y-45994D01*
X37387Y-45994D01*
X37232Y-45994D01*
X37232Y-46256D01*
X37267Y-46291D01*
X37283Y-46291D01*
X37338Y-46291D01*
X37390Y-46270D01*
X37401Y-46258D01*
X37412Y-46270D01*
X37464Y-46291D01*
X37519Y-46291D01*
X37535Y-46291D01*
X37570Y-46256D01*
X37570Y-46297D01*
X37335Y-46532D01*
X37232Y-46532D01*
X37232Y-46256D01*
X37232Y-45994D01*
X37048Y-45994D01*
X37013Y-46029D01*
X37013Y-46179D01*
X37034Y-46230D01*
X37074Y-46270D01*
X37125Y-46291D01*
X37181Y-46291D01*
X37197Y-46291D01*
X37232Y-46256D01*
X37232Y-46532D01*
X36911Y-46532D01*
X36911Y-45999D01*
X36893Y-45955D01*
X36859Y-45921D01*
X36815Y-45903D01*
X36767Y-45903D01*
X36216Y-45903D01*
X36172Y-45921D01*
X36138Y-45955D01*
X36120Y-45999D01*
X36120Y-46047D01*
X36120Y-46210D01*
X36058Y-46149D01*
X35959Y-46108D01*
X35852Y-46107D01*
X35752Y-46148D01*
X35676Y-46224D01*
X35635Y-46324D01*
X35635Y-46431D01*
X35676Y-46530D01*
X35725Y-46579D01*
X35725Y-46811D01*
X35725Y-46811D01*
X35736Y-46868D01*
X35739Y-46879D01*
X35778Y-46938D01*
X36408Y-47568D01*
X36408Y-47568D01*
X36408Y-47568D01*
X36447Y-47594D01*
X36466Y-47607D01*
X36466Y-47607D01*
X36535Y-47620D01*
X36535Y-47620D01*
X36535Y-47620D01*
X36815Y-47620D01*
X36848Y-47654D01*
X36776Y-47684D01*
X36707Y-47753D01*
X36496Y-47753D01*
X36434Y-47765D01*
X36382Y-47800D01*
X36348Y-47852D01*
X36342Y-47879D01*
X35464Y-48757D01*
X35464Y-48504D01*
X35464Y-48448D01*
X35464Y-48432D01*
X35464Y-48362D01*
X35464Y-48346D01*
X35464Y-48291D01*
X35443Y-48239D01*
X35432Y-48228D01*
X35443Y-48217D01*
X35464Y-48165D01*
X35464Y-48109D01*
X35464Y-48094D01*
X35464Y-48023D01*
X35464Y-48008D01*
X35464Y-47952D01*
X35443Y-47901D01*
X35404Y-47861D01*
X35352Y-47840D01*
X35202Y-47840D01*
X35167Y-47875D01*
X35167Y-48058D01*
X35429Y-48058D01*
X35464Y-48023D01*
X35464Y-48094D01*
X35429Y-48059D01*
X35167Y-48059D01*
X35167Y-48213D01*
X35167Y-48242D01*
X35167Y-48397D01*
X35429Y-48397D01*
X35464Y-48362D01*
X35464Y-48432D01*
X35429Y-48397D01*
X35167Y-48397D01*
X35167Y-48581D01*
X35202Y-48616D01*
X35352Y-48616D01*
X35404Y-48595D01*
X35443Y-48555D01*
X35464Y-48504D01*
X35464Y-48757D01*
X35167Y-49055D01*
X35167Y-48581D01*
X35167Y-48397D01*
X35167Y-48397D01*
X35167Y-48242D01*
X35167Y-48213D01*
X35167Y-48059D01*
X35167Y-48058D01*
X35167Y-47875D01*
X35132Y-47840D01*
X34982Y-47840D01*
X34930Y-47861D01*
X34891Y-47901D01*
X34869Y-47952D01*
X34869Y-48008D01*
X34869Y-48023D01*
X34904Y-48058D01*
X35167Y-48058D01*
X35167Y-48059D01*
X34904Y-48059D01*
X34869Y-48094D01*
X34869Y-48109D01*
X34869Y-48165D01*
X34891Y-48217D01*
X34902Y-48228D01*
X34891Y-48239D01*
X34869Y-48291D01*
X34869Y-48346D01*
X34869Y-48362D01*
X34904Y-48397D01*
X35167Y-48397D01*
X35167Y-48397D01*
X34904Y-48397D01*
X34869Y-48432D01*
X34869Y-48448D01*
X34869Y-48504D01*
X34891Y-48555D01*
X34930Y-48595D01*
X34982Y-48616D01*
X35132Y-48616D01*
X35167Y-48581D01*
X35167Y-49055D01*
X33595Y-50627D01*
X33070Y-50627D01*
X33019Y-50637D01*
X33009Y-50639D01*
X32972Y-50664D01*
X32972Y-45577D01*
X32972Y-45078D01*
X32964Y-45078D01*
X32964Y-45078D01*
X32972Y-45078D01*
X32972Y-44580D01*
X32937Y-44545D01*
X32803Y-44545D01*
X32747Y-44545D01*
X32696Y-44566D01*
X32663Y-44599D01*
X32646Y-44583D01*
X32602Y-44565D01*
X32554Y-44565D01*
X32161Y-44565D01*
X32117Y-44583D01*
X32086Y-44613D01*
X32056Y-44583D01*
X32012Y-44565D01*
X31964Y-44565D01*
X31570Y-44565D01*
X31526Y-44583D01*
X31496Y-44613D01*
X31465Y-44583D01*
X31421Y-44565D01*
X31373Y-44565D01*
X30980Y-44565D01*
X30935Y-44583D01*
X30905Y-44613D01*
X30875Y-44583D01*
X30830Y-44565D01*
X30783Y-44565D01*
X30389Y-44565D01*
X30345Y-44583D01*
X30314Y-44613D01*
X30284Y-44583D01*
X30240Y-44565D01*
X30192Y-44565D01*
X29798Y-44565D01*
X29754Y-44583D01*
X29724Y-44613D01*
X29693Y-44583D01*
X29649Y-44565D01*
X29602Y-44565D01*
X29208Y-44565D01*
X29164Y-44583D01*
X29148Y-44599D01*
X29114Y-44566D01*
X29063Y-44545D01*
X29007Y-44545D01*
X28873Y-44545D01*
X28838Y-44580D01*
X28838Y-45078D01*
X28846Y-45078D01*
X28846Y-45078D01*
X28838Y-45078D01*
X28838Y-45577D01*
X28873Y-45612D01*
X29007Y-45612D01*
X29063Y-45612D01*
X29114Y-45591D01*
X29148Y-45557D01*
X29164Y-45574D01*
X29208Y-45592D01*
X29256Y-45592D01*
X29649Y-45592D01*
X29693Y-45574D01*
X29724Y-45543D01*
X29754Y-45574D01*
X29798Y-45592D01*
X29846Y-45592D01*
X30240Y-45592D01*
X30284Y-45574D01*
X30314Y-45543D01*
X30345Y-45574D01*
X30389Y-45592D01*
X30437Y-45592D01*
X30830Y-45592D01*
X30875Y-45574D01*
X30905Y-45543D01*
X30935Y-45574D01*
X30980Y-45592D01*
X31027Y-45592D01*
X31421Y-45592D01*
X31465Y-45574D01*
X31496Y-45543D01*
X31526Y-45574D01*
X31570Y-45592D01*
X31618Y-45592D01*
X32012Y-45592D01*
X32056Y-45574D01*
X32086Y-45543D01*
X32117Y-45574D01*
X32161Y-45592D01*
X32208Y-45592D01*
X32602Y-45592D01*
X32646Y-45574D01*
X32663Y-45557D01*
X32696Y-45591D01*
X32747Y-45612D01*
X32803Y-45612D01*
X32937Y-45612D01*
X32972Y-45577D01*
X32972Y-50664D01*
X32957Y-50674D01*
X32947Y-50684D01*
X32947Y-50635D01*
X32906Y-50536D01*
X32830Y-50460D01*
X32731Y-50419D01*
X32623Y-50418D01*
X32524Y-50459D01*
X32448Y-50535D01*
X32407Y-50635D01*
X32407Y-50666D01*
X32212Y-50666D01*
X32238Y-50605D01*
X32238Y-50507D01*
X32357Y-50388D01*
X32357Y-50388D01*
X32391Y-50336D01*
X32391Y-50336D01*
X32393Y-50326D01*
X32404Y-50275D01*
X32404Y-50275D01*
X32404Y-49670D01*
X32472Y-49601D01*
X32514Y-49502D01*
X32514Y-49472D01*
X32517Y-49475D01*
X32517Y-49778D01*
X32448Y-49846D01*
X32407Y-49946D01*
X32407Y-50053D01*
X32448Y-50152D01*
X32524Y-50228D01*
X32623Y-50269D01*
X32730Y-50270D01*
X32829Y-50228D01*
X32905Y-50153D01*
X32947Y-50053D01*
X32947Y-49946D01*
X32906Y-49847D01*
X32837Y-49778D01*
X32837Y-49409D01*
X32824Y-49348D01*
X32790Y-49296D01*
X31924Y-48430D01*
X31872Y-48395D01*
X31811Y-48383D01*
X30880Y-48383D01*
X30904Y-48359D01*
X30960Y-48223D01*
X30960Y-48076D01*
X30904Y-47940D01*
X30800Y-47836D01*
X30664Y-47779D01*
X30517Y-47779D01*
X30381Y-47835D01*
X30277Y-47939D01*
X30220Y-48075D01*
X30220Y-48222D01*
X30276Y-48358D01*
X30380Y-48463D01*
X30516Y-48519D01*
X30624Y-48519D01*
X30406Y-48737D01*
X28838Y-48737D01*
X28838Y-45577D01*
X28838Y-45078D01*
X28830Y-45078D01*
X28830Y-45078D01*
X28838Y-45078D01*
X28838Y-44580D01*
X28803Y-44545D01*
X28669Y-44545D01*
X28613Y-44545D01*
X28562Y-44566D01*
X28529Y-44599D01*
X28512Y-44583D01*
X28468Y-44565D01*
X28421Y-44565D01*
X28027Y-44565D01*
X27983Y-44583D01*
X27949Y-44617D01*
X27931Y-44661D01*
X27931Y-44708D01*
X27931Y-45496D01*
X27949Y-45540D01*
X27983Y-45574D01*
X28027Y-45592D01*
X28075Y-45592D01*
X28468Y-45592D01*
X28512Y-45574D01*
X28529Y-45557D01*
X28562Y-45591D01*
X28613Y-45612D01*
X28669Y-45612D01*
X28803Y-45612D01*
X28838Y-45577D01*
X28838Y-48737D01*
X28528Y-48737D01*
X28460Y-48668D01*
X28361Y-48627D01*
X28253Y-48627D01*
X28154Y-48668D01*
X28078Y-48744D01*
X28037Y-48843D01*
X28037Y-48951D01*
X28078Y-49050D01*
X28153Y-49126D01*
X28253Y-49167D01*
X28360Y-49167D01*
X28459Y-49126D01*
X28528Y-49057D01*
X30472Y-49057D01*
X30472Y-49057D01*
X30533Y-49045D01*
X30585Y-49010D01*
X30893Y-48703D01*
X31744Y-48703D01*
X32220Y-49178D01*
X32190Y-49178D01*
X32091Y-49219D01*
X32015Y-49295D01*
X32007Y-49313D01*
X32000Y-49296D01*
X31924Y-49220D01*
X31825Y-49178D01*
X31718Y-49178D01*
X31618Y-49219D01*
X31542Y-49295D01*
X31501Y-49394D01*
X31501Y-49502D01*
X31542Y-49601D01*
X31611Y-49670D01*
X31611Y-50091D01*
X31461Y-50241D01*
X31363Y-50241D01*
X31264Y-50282D01*
X31188Y-50358D01*
X31147Y-50457D01*
X31147Y-50565D01*
X31188Y-50664D01*
X31190Y-50666D01*
X29173Y-50666D01*
X29112Y-50678D01*
X29060Y-50713D01*
X28909Y-50864D01*
X28617Y-50864D01*
X28573Y-50882D01*
X28543Y-50913D01*
X28512Y-50882D01*
X28468Y-50864D01*
X28421Y-50864D01*
X28027Y-50864D01*
X27983Y-50882D01*
X27949Y-50916D01*
X27931Y-50960D01*
X27931Y-51008D01*
X27931Y-51795D01*
X27949Y-51839D01*
X27983Y-51873D01*
X28024Y-51890D01*
X27997Y-51953D01*
X27997Y-52061D01*
X28038Y-52160D01*
X28114Y-52236D01*
X28213Y-52277D01*
X28321Y-52277D01*
X28420Y-52236D01*
X28496Y-52160D01*
X28537Y-52061D01*
X28537Y-51954D01*
X28505Y-51876D01*
X28512Y-51873D01*
X28543Y-51842D01*
X28573Y-51873D01*
X28617Y-51891D01*
X28665Y-51891D01*
X29059Y-51891D01*
X29103Y-51873D01*
X29119Y-51857D01*
X29153Y-51890D01*
X29204Y-51911D01*
X29260Y-51911D01*
X29393Y-51911D01*
X29428Y-51876D01*
X29428Y-51378D01*
X29421Y-51378D01*
X29421Y-51377D01*
X29428Y-51377D01*
X29428Y-51369D01*
X29429Y-51369D01*
X29429Y-51377D01*
X29437Y-51377D01*
X29437Y-51378D01*
X29429Y-51378D01*
X29429Y-51876D01*
X29464Y-51911D01*
X29598Y-51911D01*
X29653Y-51911D01*
X29705Y-51890D01*
X29738Y-51857D01*
X29754Y-51873D01*
X29781Y-51884D01*
X29771Y-51894D01*
X29730Y-51993D01*
X29729Y-52100D01*
X29771Y-52199D01*
X29846Y-52275D01*
X29946Y-52317D01*
X30053Y-52317D01*
X30152Y-52276D01*
X30228Y-52200D01*
X30269Y-52101D01*
X30270Y-51993D01*
X30228Y-51894D01*
X30226Y-51891D01*
X30240Y-51891D01*
X30284Y-51873D01*
X30314Y-51842D01*
X30345Y-51873D01*
X30389Y-51891D01*
X30437Y-51891D01*
X30830Y-51891D01*
X30875Y-51873D01*
X30905Y-51842D01*
X30935Y-51873D01*
X30980Y-51891D01*
X31027Y-51891D01*
X31421Y-51891D01*
X31465Y-51873D01*
X31496Y-51842D01*
X31526Y-51873D01*
X31570Y-51891D01*
X31618Y-51891D01*
X32012Y-51891D01*
X32056Y-51873D01*
X32072Y-51857D01*
X32105Y-51890D01*
X32157Y-51911D01*
X32212Y-51911D01*
X32346Y-51911D01*
X32381Y-51876D01*
X32381Y-51378D01*
X32373Y-51378D01*
X32373Y-51377D01*
X32381Y-51377D01*
X32381Y-51369D01*
X32382Y-51369D01*
X32382Y-51377D01*
X32389Y-51377D01*
X32389Y-51378D01*
X32382Y-51378D01*
X32382Y-51876D01*
X32417Y-51911D01*
X32550Y-51911D01*
X32606Y-51911D01*
X32658Y-51890D01*
X32691Y-51857D01*
X32707Y-51873D01*
X32751Y-51891D01*
X32799Y-51891D01*
X33193Y-51891D01*
X33237Y-51873D01*
X33267Y-51842D01*
X33298Y-51873D01*
X33342Y-51891D01*
X33390Y-51891D01*
X33783Y-51891D01*
X33827Y-51873D01*
X33861Y-51839D01*
X33879Y-51795D01*
X33879Y-51747D01*
X33879Y-51070D01*
X33993Y-50957D01*
X33993Y-50959D01*
X33924Y-51027D01*
X33883Y-51127D01*
X33883Y-51234D01*
X33924Y-51333D01*
X34000Y-51409D01*
X34099Y-51451D01*
X34207Y-51451D01*
X34306Y-51410D01*
X34382Y-51334D01*
X34423Y-51235D01*
X34423Y-51127D01*
X34382Y-51028D01*
X34313Y-50959D01*
X34313Y-50952D01*
X34545Y-50719D01*
X34545Y-50725D01*
X34545Y-51275D01*
X34564Y-51319D01*
X34597Y-51353D01*
X34642Y-51371D01*
X34689Y-51371D01*
X35003Y-51371D01*
X35448Y-51816D01*
X35302Y-51816D01*
X35275Y-51752D01*
X35164Y-51641D01*
X35019Y-51581D01*
X34862Y-51581D01*
X34717Y-51641D01*
X34606Y-51752D01*
X34579Y-51816D01*
X34362Y-51816D01*
X34300Y-51828D01*
X34249Y-51863D01*
X33980Y-52131D01*
X33883Y-52131D01*
X33784Y-52172D01*
X33708Y-52248D01*
X33667Y-52347D01*
X33667Y-52455D01*
X33708Y-52554D01*
X33783Y-52630D01*
X33883Y-52671D01*
X33990Y-52671D01*
X34089Y-52630D01*
X34165Y-52554D01*
X34206Y-52455D01*
X34207Y-52357D01*
X34428Y-52136D01*
X34579Y-52136D01*
X34605Y-52199D01*
X34716Y-52311D01*
X34862Y-52371D01*
X35019Y-52371D01*
X35164Y-52311D01*
X35275Y-52200D01*
X35302Y-52136D01*
X35473Y-52136D01*
X35910Y-52573D01*
X35962Y-52608D01*
X36023Y-52620D01*
X40157Y-52620D01*
X40157Y-52620D01*
X40218Y-52608D01*
X40270Y-52573D01*
X40519Y-52325D01*
X41231Y-52325D01*
X41231Y-52464D01*
X41249Y-52508D01*
X41283Y-52542D01*
X41327Y-52560D01*
X41374Y-52560D01*
X41924Y-52560D01*
X41968Y-52542D01*
X42002Y-52508D01*
X42020Y-52464D01*
X42020Y-52416D01*
X42020Y-51866D01*
X42002Y-51822D01*
X41968Y-51788D01*
X41924Y-51770D01*
X41877Y-51770D01*
X41327Y-51770D01*
X41283Y-51788D01*
X41249Y-51822D01*
X41231Y-51866D01*
X41231Y-51914D01*
X41231Y-52005D01*
X40452Y-52005D01*
X40391Y-52017D01*
X40339Y-52052D01*
X40230Y-52161D01*
X40230Y-52111D01*
X40189Y-52012D01*
X40113Y-51936D01*
X40014Y-51895D01*
X39907Y-51895D01*
X39807Y-51936D01*
X39738Y-52005D01*
X38181Y-52005D01*
X40398Y-49788D01*
X40398Y-49788D01*
X40433Y-49736D01*
X40433Y-49736D01*
X40435Y-49726D01*
X40445Y-49675D01*
X40445Y-49675D01*
X40445Y-48596D01*
X40466Y-48596D01*
X40510Y-48578D01*
X40544Y-48544D01*
X40562Y-48500D01*
X40562Y-48452D01*
X40562Y-48295D01*
X40544Y-48250D01*
X40522Y-48228D01*
X40544Y-48205D01*
X40562Y-48161D01*
X40562Y-48113D01*
X40562Y-47956D01*
X40562Y-47955D01*
X41114Y-47955D01*
X41147Y-47987D01*
X41147Y-48084D01*
X41188Y-48184D01*
X41264Y-48260D01*
X41329Y-48287D01*
X41264Y-48314D01*
X41188Y-48390D01*
X41147Y-48489D01*
X41147Y-48596D01*
X41188Y-48696D01*
X41264Y-48772D01*
X41363Y-48813D01*
X41470Y-48813D01*
X41570Y-48772D01*
X41646Y-48696D01*
X41687Y-48597D01*
X41687Y-48527D01*
X41938Y-48276D01*
X41938Y-48276D01*
X41938Y-48276D01*
X41964Y-48237D01*
X41977Y-48218D01*
X41977Y-48218D01*
X41990Y-48149D01*
X41990Y-48149D01*
X41990Y-48149D01*
X41990Y-47994D01*
X42652Y-48656D01*
X42704Y-48691D01*
X42765Y-48703D01*
X43850Y-48703D01*
X43836Y-48735D01*
X43836Y-48782D01*
X43676Y-48942D01*
X43607Y-48942D01*
X43508Y-48983D01*
X43432Y-49059D01*
X43391Y-49158D01*
X43391Y-49266D01*
X43421Y-49338D01*
X43421Y-50708D01*
X43421Y-50708D01*
X43439Y-50800D01*
X43491Y-50878D01*
X44189Y-51576D01*
X44219Y-51648D01*
X44295Y-51724D01*
X44394Y-51765D01*
X44502Y-51766D01*
X44601Y-51725D01*
X44677Y-51649D01*
X44718Y-51549D01*
X44718Y-51442D01*
X44677Y-51343D01*
X44601Y-51267D01*
X44529Y-51237D01*
X43901Y-50609D01*
X43901Y-50502D01*
X43928Y-50513D01*
X44413Y-50513D01*
X44448Y-50478D01*
X44448Y-49980D01*
X44440Y-49980D01*
X44440Y-49980D01*
X44448Y-49980D01*
X44448Y-49481D01*
X44413Y-49446D01*
X43928Y-49446D01*
X43901Y-49458D01*
X43901Y-49338D01*
X43931Y-49266D01*
X43931Y-49197D01*
X44051Y-49076D01*
X44886Y-49076D01*
X44930Y-49058D01*
X44964Y-49024D01*
X44982Y-48980D01*
X44982Y-48932D01*
X44982Y-48735D01*
X44968Y-48700D01*
X44982Y-48665D01*
X44982Y-48617D01*
X44982Y-48420D01*
X44968Y-48385D01*
X44982Y-48350D01*
X44982Y-48302D01*
X44982Y-48105D01*
X44968Y-48070D01*
X44982Y-48035D01*
X44982Y-47987D01*
X44982Y-47790D01*
X44977Y-47779D01*
X44981Y-47776D01*
X45002Y-47724D01*
X45002Y-49461D01*
X44968Y-49446D01*
X44483Y-49446D01*
X44448Y-49481D01*
X44448Y-49980D01*
X45045Y-49980D01*
X45080Y-49945D01*
X45080Y-50015D01*
X45045Y-49980D01*
X44448Y-49980D01*
X44448Y-50478D01*
X44483Y-50513D01*
X44968Y-50513D01*
X45019Y-50492D01*
X45059Y-50453D01*
X45080Y-50401D01*
X45080Y-53010D01*
X43043Y-53010D01*
X43043Y-52098D01*
X42986Y-51944D01*
X42968Y-51916D01*
X42900Y-51891D01*
X42900Y-51891D01*
X42900Y-51890D01*
X42874Y-51822D01*
X42724Y-51753D01*
X42559Y-51747D01*
X42404Y-51804D01*
X42377Y-51822D01*
X42351Y-51890D01*
X42625Y-52165D01*
X42900Y-51890D01*
X42900Y-51891D01*
X42626Y-52165D01*
X42900Y-52439D01*
X42968Y-52413D01*
X43037Y-52263D01*
X43043Y-52098D01*
X43043Y-53010D01*
X42900Y-53010D01*
X42900Y-52439D01*
X42625Y-52165D01*
X42625Y-52165D01*
X42625Y-52165D01*
X42351Y-51891D01*
X42283Y-51916D01*
X42214Y-52066D01*
X42208Y-52231D01*
X42265Y-52386D01*
X42283Y-52413D01*
X42351Y-52439D01*
X42625Y-52165D01*
X42625Y-52165D01*
X42351Y-52439D01*
X42377Y-52507D01*
X42527Y-52576D01*
X42692Y-52583D01*
X42847Y-52525D01*
X42874Y-52507D01*
X42900Y-52439D01*
X42900Y-53010D01*
X29147Y-53010D01*
X28585Y-52898D01*
X28120Y-52587D01*
X27810Y-52122D01*
X27698Y-51561D01*
X27698Y-44895D01*
X27810Y-44333D01*
X28120Y-43868D01*
X28585Y-43558D01*
X29147Y-43446D01*
X45655Y-43446D01*
X46217Y-43558D01*
X46682Y-43868D01*
X46992Y-44333D01*
X47104Y-44895D01*
X47104Y-45942D01*
X46648Y-45942D01*
X46613Y-45977D01*
X46613Y-46476D01*
X46621Y-46476D01*
X46621Y-46476D01*
X46613Y-46476D01*
X46613Y-46974D01*
X46648Y-47009D01*
X47104Y-47009D01*
X47104Y-49446D01*
X46648Y-49446D01*
X46613Y-49481D01*
X46613Y-49980D01*
X46621Y-49980D01*
X46621Y-49980D01*
X46613Y-49980D01*
X46613Y-50478D01*
X46648Y-50513D01*
X47104Y-50513D01*
X47104Y-51561D01*
X47104Y-51561D01*
G37*
G54D24*
X47104Y-51561D02*
X46992Y-52122D01*
X46682Y-52587D01*
X46613Y-52633D01*
X46613Y-50478D01*
X46613Y-49980D01*
X46613Y-49980D01*
X46613Y-49481D01*
X46613Y-46974D01*
X46613Y-46476D01*
X46613Y-46476D01*
X46613Y-45977D01*
X46578Y-45942D01*
X46367Y-45942D01*
X46367Y-44213D01*
X46307Y-44067D01*
X46196Y-43956D01*
X46051Y-43896D01*
X45894Y-43896D01*
X45749Y-43956D01*
X45637Y-44067D01*
X45577Y-44212D01*
X45577Y-44369D01*
X45637Y-44514D01*
X45748Y-44625D01*
X45893Y-44686D01*
X46050Y-44686D01*
X46195Y-44626D01*
X46307Y-44515D01*
X46367Y-44370D01*
X46367Y-44213D01*
X46367Y-45942D01*
X46093Y-45942D01*
X46042Y-45964D01*
X46003Y-46003D01*
X45981Y-46055D01*
X45981Y-46110D01*
X45981Y-46441D01*
X46016Y-46476D01*
X46613Y-46476D01*
X46613Y-46476D01*
X46016Y-46476D01*
X45981Y-46511D01*
X45981Y-46842D01*
X45981Y-46897D01*
X46003Y-46949D01*
X46042Y-46988D01*
X46093Y-47009D01*
X46578Y-47009D01*
X46613Y-46974D01*
X46613Y-49481D01*
X46578Y-49446D01*
X46093Y-49446D01*
X46042Y-49468D01*
X46003Y-49507D01*
X45981Y-49559D01*
X45981Y-49614D01*
X45981Y-49945D01*
X46016Y-49980D01*
X46613Y-49980D01*
X46613Y-49980D01*
X46016Y-49980D01*
X45981Y-50015D01*
X45981Y-50346D01*
X45981Y-50401D01*
X46003Y-50453D01*
X46042Y-50492D01*
X46093Y-50513D01*
X46578Y-50513D01*
X46613Y-50478D01*
X46613Y-52633D01*
X46217Y-52898D01*
X45729Y-52995D01*
X45729Y-49035D01*
X45729Y-47303D01*
X45684Y-47194D01*
X45601Y-47110D01*
X45492Y-47065D01*
X45373Y-47065D01*
X45367Y-47068D01*
X45367Y-44590D01*
X45367Y-44542D01*
X45367Y-43992D01*
X45349Y-43948D01*
X45315Y-43914D01*
X45271Y-43896D01*
X45223Y-43896D01*
X44673Y-43896D01*
X44629Y-43914D01*
X44595Y-43948D01*
X44577Y-43992D01*
X44577Y-44040D01*
X44577Y-44590D01*
X44595Y-44634D01*
X44629Y-44668D01*
X44673Y-44686D01*
X44721Y-44686D01*
X45271Y-44686D01*
X45315Y-44668D01*
X45349Y-44634D01*
X45367Y-44590D01*
X45367Y-47068D01*
X45264Y-47110D01*
X45181Y-47193D01*
X45135Y-47303D01*
X45135Y-47421D01*
X45180Y-47530D01*
X45264Y-47613D01*
X45373Y-47659D01*
X45491Y-47659D01*
X45600Y-47614D01*
X45684Y-47530D01*
X45729Y-47421D01*
X45729Y-47303D01*
X45729Y-49035D01*
X45684Y-48926D01*
X45601Y-48842D01*
X45492Y-48797D01*
X45373Y-48797D01*
X45264Y-48842D01*
X45181Y-48925D01*
X45135Y-49035D01*
X45135Y-49153D01*
X45180Y-49262D01*
X45264Y-49345D01*
X45373Y-49391D01*
X45491Y-49391D01*
X45600Y-49346D01*
X45684Y-49262D01*
X45729Y-49153D01*
X45729Y-49035D01*
X45729Y-52995D01*
X45655Y-53010D01*
X45080Y-53010D01*
X45080Y-50401D01*
X45080Y-50346D01*
X45080Y-50015D01*
X45080Y-49945D01*
X45080Y-49614D01*
X45080Y-49559D01*
X45080Y-46897D01*
X45080Y-46842D01*
X45080Y-46511D01*
X45080Y-46441D01*
X45080Y-46110D01*
X45080Y-46055D01*
X45059Y-46003D01*
X45019Y-45964D01*
X44968Y-45942D01*
X44483Y-45942D01*
X44448Y-45977D01*
X44448Y-46476D01*
X45045Y-46476D01*
X45080Y-46441D01*
X45080Y-46511D01*
X45045Y-46476D01*
X44448Y-46476D01*
X44448Y-46974D01*
X44483Y-47009D01*
X44968Y-47009D01*
X45019Y-46988D01*
X45059Y-46949D01*
X45080Y-46897D01*
X45080Y-49559D01*
X45059Y-49507D01*
X45019Y-49468D01*
X45002Y-49461D01*
X45002Y-47724D01*
X45002Y-47669D01*
X45002Y-47633D01*
X45002Y-47563D01*
X45002Y-47527D01*
X45002Y-47472D01*
X44981Y-47420D01*
X44941Y-47381D01*
X44890Y-47359D01*
X44448Y-47359D01*
X44448Y-46974D01*
X44448Y-46476D01*
X44448Y-46476D01*
X44448Y-45977D01*
X44413Y-45942D01*
X43928Y-45942D01*
X43877Y-45964D01*
X43838Y-46003D01*
X43824Y-46037D01*
X43824Y-44590D01*
X43824Y-44542D01*
X43824Y-43992D01*
X43805Y-43948D01*
X43772Y-43914D01*
X43727Y-43896D01*
X43680Y-43896D01*
X43288Y-43896D01*
X43044Y-43652D01*
X42986Y-43613D01*
X42974Y-43610D01*
X42917Y-43599D01*
X42917Y-43599D01*
X39397Y-43599D01*
X39397Y-43599D01*
X39328Y-43613D01*
X39309Y-43626D01*
X39270Y-43652D01*
X39270Y-43652D01*
X39008Y-43914D01*
X38964Y-43896D01*
X38807Y-43896D01*
X38662Y-43956D01*
X38551Y-44067D01*
X38490Y-44212D01*
X38490Y-44369D01*
X38550Y-44514D01*
X38661Y-44625D01*
X38806Y-44686D01*
X38964Y-44686D01*
X39109Y-44626D01*
X39220Y-44515D01*
X39280Y-44370D01*
X39280Y-44213D01*
X39262Y-44169D01*
X39472Y-43959D01*
X40202Y-43959D01*
X40094Y-44067D01*
X40034Y-44212D01*
X40034Y-44369D01*
X40094Y-44514D01*
X40205Y-44625D01*
X40350Y-44686D01*
X40507Y-44686D01*
X40652Y-44626D01*
X40763Y-44515D01*
X40824Y-44370D01*
X40824Y-44213D01*
X40764Y-44067D01*
X40655Y-43959D01*
X41176Y-43959D01*
X41154Y-44016D01*
X41429Y-44291D01*
X41703Y-44016D01*
X41681Y-43959D01*
X42202Y-43959D01*
X42094Y-44067D01*
X42034Y-44212D01*
X42034Y-44369D01*
X42094Y-44514D01*
X42205Y-44625D01*
X42350Y-44686D01*
X42507Y-44686D01*
X42652Y-44626D01*
X42763Y-44515D01*
X42824Y-44370D01*
X42824Y-44213D01*
X42764Y-44067D01*
X42655Y-43959D01*
X42842Y-43959D01*
X43034Y-44150D01*
X43034Y-44590D01*
X43052Y-44634D01*
X43086Y-44668D01*
X43130Y-44686D01*
X43177Y-44686D01*
X43249Y-44686D01*
X43249Y-45866D01*
X42928Y-46186D01*
X42859Y-46186D01*
X42760Y-46227D01*
X42684Y-46303D01*
X42643Y-46402D01*
X42643Y-46510D01*
X42684Y-46609D01*
X42760Y-46685D01*
X42859Y-46726D01*
X42966Y-46726D01*
X43066Y-46685D01*
X43142Y-46609D01*
X43183Y-46510D01*
X43183Y-46441D01*
X43556Y-46068D01*
X43556Y-46068D01*
X43556Y-46068D01*
X43582Y-46029D01*
X43595Y-46009D01*
X43595Y-46009D01*
X43609Y-45940D01*
X43609Y-45940D01*
X43609Y-45940D01*
X43609Y-44686D01*
X43727Y-44686D01*
X43772Y-44668D01*
X43805Y-44634D01*
X43824Y-44590D01*
X43824Y-46037D01*
X43816Y-46055D01*
X43816Y-46110D01*
X43816Y-46441D01*
X43851Y-46476D01*
X44448Y-46476D01*
X44448Y-46476D01*
X43851Y-46476D01*
X43816Y-46511D01*
X43816Y-46842D01*
X43816Y-46897D01*
X43838Y-46949D01*
X43877Y-46988D01*
X43928Y-47009D01*
X44413Y-47009D01*
X44448Y-46974D01*
X44448Y-47359D01*
X44444Y-47359D01*
X44409Y-47394D01*
X44409Y-47598D01*
X44967Y-47598D01*
X45002Y-47563D01*
X45002Y-47633D01*
X44967Y-47598D01*
X44409Y-47598D01*
X44409Y-47606D01*
X44409Y-47606D01*
X44409Y-47598D01*
X44409Y-47598D01*
X44409Y-47394D01*
X44374Y-47359D01*
X43928Y-47359D01*
X43877Y-47381D01*
X43838Y-47420D01*
X43816Y-47472D01*
X43816Y-47527D01*
X43816Y-47563D01*
X43851Y-47598D01*
X44409Y-47598D01*
X44409Y-47598D01*
X43851Y-47598D01*
X43816Y-47633D01*
X43816Y-47654D01*
X43811Y-47642D01*
X43735Y-47566D01*
X43636Y-47525D01*
X43538Y-47525D01*
X41846Y-45833D01*
X41846Y-44224D01*
X41789Y-44070D01*
X41771Y-44042D01*
X41703Y-44017D01*
X41429Y-44291D01*
X41703Y-44565D01*
X41771Y-44539D01*
X41840Y-44389D01*
X41846Y-44224D01*
X41846Y-45833D01*
X41703Y-45689D01*
X41703Y-44565D01*
X41429Y-44291D01*
X41428Y-44291D01*
X41428Y-44291D01*
X41154Y-44017D01*
X41086Y-44042D01*
X41017Y-44192D01*
X41011Y-44357D01*
X41068Y-44512D01*
X41086Y-44539D01*
X41154Y-44565D01*
X41428Y-44291D01*
X41428Y-44291D01*
X41154Y-44565D01*
X41180Y-44633D01*
X41330Y-44702D01*
X41495Y-44709D01*
X41650Y-44651D01*
X41677Y-44633D01*
X41703Y-44565D01*
X41703Y-45689D01*
X41136Y-45123D01*
X41084Y-45088D01*
X41023Y-45076D01*
X38686Y-45076D01*
X38617Y-45007D01*
X38518Y-44966D01*
X38411Y-44966D01*
X38311Y-45007D01*
X38280Y-45038D01*
X38280Y-44590D01*
X38280Y-44542D01*
X38280Y-43992D01*
X38262Y-43948D01*
X38228Y-43914D01*
X38184Y-43896D01*
X38136Y-43896D01*
X37586Y-43896D01*
X37542Y-43914D01*
X37509Y-43948D01*
X37490Y-43992D01*
X37490Y-44040D01*
X37490Y-44590D01*
X37509Y-44634D01*
X37542Y-44668D01*
X37586Y-44686D01*
X37634Y-44686D01*
X38184Y-44686D01*
X38228Y-44668D01*
X38262Y-44634D01*
X38280Y-44590D01*
X38280Y-45038D01*
X38235Y-45083D01*
X38194Y-45182D01*
X38194Y-45289D01*
X38235Y-45388D01*
X38311Y-45464D01*
X38410Y-45506D01*
X38518Y-45506D01*
X38617Y-45465D01*
X38686Y-45396D01*
X40957Y-45396D01*
X43312Y-47751D01*
X43312Y-47848D01*
X43353Y-47947D01*
X43429Y-48024D01*
X43528Y-48065D01*
X43636Y-48065D01*
X43735Y-48024D01*
X43811Y-47948D01*
X43836Y-47887D01*
X43836Y-48035D01*
X43850Y-48068D01*
X42743Y-48068D01*
X41766Y-47091D01*
X41766Y-46442D01*
X41725Y-46343D01*
X41649Y-46267D01*
X41549Y-46226D01*
X41442Y-46226D01*
X41366Y-46257D01*
X40826Y-46257D01*
X40765Y-46269D01*
X40713Y-46304D01*
X40678Y-46356D01*
X40666Y-46417D01*
X40678Y-46478D01*
X40713Y-46530D01*
X40765Y-46565D01*
X40826Y-46577D01*
X41237Y-46577D01*
X41267Y-46648D01*
X41342Y-46724D01*
X41442Y-46765D01*
X41549Y-46766D01*
X41648Y-46725D01*
X41724Y-46649D01*
X41765Y-46549D01*
X41766Y-46442D01*
X41766Y-47091D01*
X41609Y-46934D01*
X41557Y-46899D01*
X41496Y-46887D01*
X38677Y-46887D01*
X38682Y-46874D01*
X38682Y-46826D01*
X38682Y-45999D01*
X38664Y-45955D01*
X38630Y-45921D01*
X38586Y-45903D01*
X38539Y-45903D01*
X37994Y-45903D01*
X37994Y-45118D01*
X37984Y-45067D01*
X37982Y-45056D01*
X37982Y-45056D01*
X37947Y-45005D01*
X37947Y-45005D01*
X37790Y-44847D01*
X37738Y-44812D01*
X37677Y-44800D01*
X35899Y-44800D01*
X35899Y-44789D01*
X35858Y-44689D01*
X35783Y-44613D01*
X35683Y-44572D01*
X35576Y-44572D01*
X35477Y-44613D01*
X35401Y-44689D01*
X35360Y-44788D01*
X35359Y-44895D01*
X35400Y-44995D01*
X35476Y-45071D01*
X35575Y-45112D01*
X35683Y-45112D01*
X35691Y-45109D01*
X35691Y-45109D01*
X35748Y-45120D01*
X37051Y-45120D01*
X37033Y-45163D01*
X37033Y-45184D01*
X35561Y-45184D01*
X35499Y-45196D01*
X35447Y-45231D01*
X33879Y-46799D01*
X33879Y-45496D01*
X33879Y-45448D01*
X33879Y-44661D01*
X33861Y-44617D01*
X33827Y-44583D01*
X33783Y-44565D01*
X33735Y-44565D01*
X33342Y-44565D01*
X33298Y-44583D01*
X33281Y-44599D01*
X33248Y-44566D01*
X33197Y-44545D01*
X33141Y-44545D01*
X33007Y-44545D01*
X32972Y-44580D01*
X32972Y-45078D01*
X32980Y-45078D01*
X32980Y-45078D01*
X32972Y-45078D01*
X32972Y-45577D01*
X33007Y-45612D01*
X33141Y-45612D01*
X33197Y-45612D01*
X33248Y-45591D01*
X33281Y-45557D01*
X33298Y-45574D01*
X33342Y-45592D01*
X33390Y-45592D01*
X33783Y-45592D01*
X33827Y-45574D01*
X33861Y-45540D01*
X33879Y-45496D01*
X33879Y-46799D01*
X33646Y-47032D01*
X33612Y-47084D01*
X33599Y-47145D01*
X33599Y-47342D01*
X33612Y-47403D01*
X33646Y-47455D01*
X33785Y-47594D01*
X33785Y-47691D01*
X33826Y-47790D01*
X33870Y-47834D01*
X33826Y-47878D01*
X33785Y-47977D01*
X33785Y-48084D01*
X33826Y-48184D01*
X33870Y-48228D01*
X33826Y-48272D01*
X33785Y-48371D01*
X33785Y-48478D01*
X33826Y-48577D01*
X33901Y-48653D01*
X34001Y-48695D01*
X34108Y-48695D01*
X34207Y-48654D01*
X34283Y-48578D01*
X34286Y-48572D01*
X34292Y-48578D01*
X34336Y-48596D01*
X34384Y-48596D01*
X34699Y-48596D01*
X34743Y-48578D01*
X34776Y-48544D01*
X34795Y-48500D01*
X34795Y-48452D01*
X34795Y-48295D01*
X34776Y-48250D01*
X34754Y-48228D01*
X34776Y-48205D01*
X34795Y-48161D01*
X34795Y-48113D01*
X34795Y-47956D01*
X34776Y-47912D01*
X34743Y-47878D01*
X34699Y-47860D01*
X34651Y-47860D01*
X34336Y-47860D01*
X34292Y-47878D01*
X34286Y-47884D01*
X34284Y-47878D01*
X34240Y-47834D01*
X34283Y-47790D01*
X34325Y-47691D01*
X34325Y-47584D01*
X34284Y-47485D01*
X34240Y-47440D01*
X34283Y-47397D01*
X34325Y-47298D01*
X34325Y-47200D01*
X35696Y-45829D01*
X37013Y-45829D01*
X37013Y-45958D01*
X37048Y-45993D01*
X37232Y-45993D01*
X37232Y-45986D01*
X37232Y-45986D01*
X37232Y-45993D01*
X37387Y-45993D01*
X37415Y-45993D01*
X37570Y-45993D01*
X37570Y-45986D01*
X37571Y-45986D01*
X37571Y-45993D01*
X37578Y-45993D01*
X37578Y-45994D01*
X37571Y-45994D01*
X37571Y-46256D01*
X37591Y-46276D01*
X37570Y-46297D01*
X37570Y-46256D01*
X37570Y-45994D01*
X37415Y-45994D01*
X37387Y-45994D01*
X37232Y-45994D01*
X37232Y-46256D01*
X37267Y-46291D01*
X37283Y-46291D01*
X37338Y-46291D01*
X37390Y-46270D01*
X37401Y-46258D01*
X37412Y-46270D01*
X37464Y-46291D01*
X37519Y-46291D01*
X37535Y-46291D01*
X37570Y-46256D01*
X37570Y-46297D01*
X37335Y-46532D01*
X37232Y-46532D01*
X37232Y-46256D01*
X37232Y-45994D01*
X37048Y-45994D01*
X37013Y-46029D01*
X37013Y-46179D01*
X37034Y-46230D01*
X37074Y-46270D01*
X37125Y-46291D01*
X37181Y-46291D01*
X37197Y-46291D01*
X37232Y-46256D01*
X37232Y-46532D01*
X36911Y-46532D01*
X36911Y-45999D01*
X36893Y-45955D01*
X36859Y-45921D01*
X36815Y-45903D01*
X36767Y-45903D01*
X36216Y-45903D01*
X36172Y-45921D01*
X36138Y-45955D01*
X36120Y-45999D01*
X36120Y-46047D01*
X36120Y-46210D01*
X36058Y-46149D01*
X35959Y-46108D01*
X35852Y-46107D01*
X35752Y-46148D01*
X35676Y-46224D01*
X35635Y-46324D01*
X35635Y-46431D01*
X35676Y-46530D01*
X35725Y-46579D01*
X35725Y-46811D01*
X35725Y-46811D01*
X35736Y-46868D01*
X35739Y-46879D01*
X35778Y-46938D01*
X36408Y-47568D01*
X36408Y-47568D01*
X36408Y-47568D01*
X36447Y-47594D01*
X36466Y-47607D01*
X36466Y-47607D01*
X36535Y-47620D01*
X36535Y-47620D01*
X36535Y-47620D01*
X36815Y-47620D01*
X36848Y-47654D01*
X36776Y-47684D01*
X36707Y-47753D01*
X36496Y-47753D01*
X36434Y-47765D01*
X36382Y-47800D01*
X36348Y-47852D01*
X36342Y-47879D01*
X35464Y-48757D01*
X35464Y-48504D01*
X35464Y-48448D01*
X35464Y-48432D01*
X35464Y-48362D01*
X35464Y-48346D01*
X35464Y-48291D01*
X35443Y-48239D01*
X35432Y-48228D01*
X35443Y-48217D01*
X35464Y-48165D01*
X35464Y-48109D01*
X35464Y-48094D01*
X35464Y-48023D01*
X35464Y-48008D01*
X35464Y-47952D01*
X35443Y-47901D01*
X35404Y-47861D01*
X35352Y-47840D01*
X35202Y-47840D01*
X35167Y-47875D01*
X35167Y-48058D01*
X35429Y-48058D01*
X35464Y-48023D01*
X35464Y-48094D01*
X35429Y-48059D01*
X35167Y-48059D01*
X35167Y-48213D01*
X35167Y-48242D01*
X35167Y-48397D01*
X35429Y-48397D01*
X35464Y-48362D01*
X35464Y-48432D01*
X35429Y-48397D01*
X35167Y-48397D01*
X35167Y-48581D01*
X35202Y-48616D01*
X35352Y-48616D01*
X35404Y-48595D01*
X35443Y-48555D01*
X35464Y-48504D01*
X35464Y-48757D01*
X35167Y-49055D01*
X35167Y-48581D01*
X35167Y-48397D01*
X35167Y-48397D01*
X35167Y-48242D01*
X35167Y-48213D01*
X35167Y-48059D01*
X35167Y-48058D01*
X35167Y-47875D01*
X35132Y-47840D01*
X34982Y-47840D01*
X34930Y-47861D01*
X34891Y-47901D01*
X34869Y-47952D01*
X34869Y-48008D01*
X34869Y-48023D01*
X34904Y-48058D01*
X35167Y-48058D01*
X35167Y-48059D01*
X34904Y-48059D01*
X34869Y-48094D01*
X34869Y-48109D01*
X34869Y-48165D01*
X34891Y-48217D01*
X34902Y-48228D01*
X34891Y-48239D01*
X34869Y-48291D01*
X34869Y-48346D01*
X34869Y-48362D01*
X34904Y-48397D01*
X35167Y-48397D01*
X35167Y-48397D01*
X34904Y-48397D01*
X34869Y-48432D01*
X34869Y-48448D01*
X34869Y-48504D01*
X34891Y-48555D01*
X34930Y-48595D01*
X34982Y-48616D01*
X35132Y-48616D01*
X35167Y-48581D01*
X35167Y-49055D01*
X33595Y-50627D01*
X33070Y-50627D01*
X33019Y-50637D01*
X33009Y-50639D01*
X32972Y-50664D01*
X32972Y-45577D01*
X32972Y-45078D01*
X32964Y-45078D01*
X32964Y-45078D01*
X32972Y-45078D01*
X32972Y-44580D01*
X32937Y-44545D01*
X32803Y-44545D01*
X32747Y-44545D01*
X32696Y-44566D01*
X32663Y-44599D01*
X32646Y-44583D01*
X32602Y-44565D01*
X32554Y-44565D01*
X32161Y-44565D01*
X32117Y-44583D01*
X32086Y-44613D01*
X32056Y-44583D01*
X32012Y-44565D01*
X31964Y-44565D01*
X31570Y-44565D01*
X31526Y-44583D01*
X31496Y-44613D01*
X31465Y-44583D01*
X31421Y-44565D01*
X31373Y-44565D01*
X30980Y-44565D01*
X30935Y-44583D01*
X30905Y-44613D01*
X30875Y-44583D01*
X30830Y-44565D01*
X30783Y-44565D01*
X30389Y-44565D01*
X30345Y-44583D01*
X30314Y-44613D01*
X30284Y-44583D01*
X30240Y-44565D01*
X30192Y-44565D01*
X29798Y-44565D01*
X29754Y-44583D01*
X29724Y-44613D01*
X29693Y-44583D01*
X29649Y-44565D01*
X29602Y-44565D01*
X29208Y-44565D01*
X29164Y-44583D01*
X29148Y-44599D01*
X29114Y-44566D01*
X29063Y-44545D01*
X29007Y-44545D01*
X28873Y-44545D01*
X28838Y-44580D01*
X28838Y-45078D01*
X28846Y-45078D01*
X28846Y-45078D01*
X28838Y-45078D01*
X28838Y-45577D01*
X28873Y-45612D01*
X29007Y-45612D01*
X29063Y-45612D01*
X29114Y-45591D01*
X29148Y-45557D01*
X29164Y-45574D01*
X29208Y-45592D01*
X29256Y-45592D01*
X29649Y-45592D01*
X29693Y-45574D01*
X29724Y-45543D01*
X29754Y-45574D01*
X29798Y-45592D01*
X29846Y-45592D01*
X30240Y-45592D01*
X30284Y-45574D01*
X30314Y-45543D01*
X30345Y-45574D01*
X30389Y-45592D01*
X30437Y-45592D01*
X30830Y-45592D01*
X30875Y-45574D01*
X30905Y-45543D01*
X30935Y-45574D01*
X30980Y-45592D01*
X31027Y-45592D01*
X31421Y-45592D01*
X31465Y-45574D01*
X31496Y-45543D01*
X31526Y-45574D01*
X31570Y-45592D01*
X31618Y-45592D01*
X32012Y-45592D01*
X32056Y-45574D01*
X32086Y-45543D01*
X32117Y-45574D01*
X32161Y-45592D01*
X32208Y-45592D01*
X32602Y-45592D01*
X32646Y-45574D01*
X32663Y-45557D01*
X32696Y-45591D01*
X32747Y-45612D01*
X32803Y-45612D01*
X32937Y-45612D01*
X32972Y-45577D01*
X32972Y-50664D01*
X32957Y-50674D01*
X32947Y-50684D01*
X32947Y-50635D01*
X32906Y-50536D01*
X32830Y-50460D01*
X32731Y-50419D01*
X32623Y-50418D01*
X32524Y-50459D01*
X32448Y-50535D01*
X32407Y-50635D01*
X32407Y-50666D01*
X32212Y-50666D01*
X32238Y-50605D01*
X32238Y-50507D01*
X32357Y-50388D01*
X32357Y-50388D01*
X32391Y-50336D01*
X32391Y-50336D01*
X32393Y-50326D01*
X32404Y-50275D01*
X32404Y-50275D01*
X32404Y-49670D01*
X32472Y-49601D01*
X32514Y-49502D01*
X32514Y-49472D01*
X32517Y-49475D01*
X32517Y-49778D01*
X32448Y-49846D01*
X32407Y-49946D01*
X32407Y-50053D01*
X32448Y-50152D01*
X32524Y-50228D01*
X32623Y-50269D01*
X32730Y-50270D01*
X32829Y-50228D01*
X32905Y-50153D01*
X32947Y-50053D01*
X32947Y-49946D01*
X32906Y-49847D01*
X32837Y-49778D01*
X32837Y-49409D01*
X32824Y-49348D01*
X32790Y-49296D01*
X31924Y-48430D01*
X31872Y-48395D01*
X31811Y-48383D01*
X30880Y-48383D01*
X30904Y-48359D01*
X30960Y-48223D01*
X30960Y-48076D01*
X30904Y-47940D01*
X30800Y-47836D01*
X30664Y-47779D01*
X30517Y-47779D01*
X30381Y-47835D01*
X30277Y-47939D01*
X30220Y-48075D01*
X30220Y-48222D01*
X30276Y-48358D01*
X30380Y-48463D01*
X30516Y-48519D01*
X30624Y-48519D01*
X30406Y-48737D01*
X28838Y-48737D01*
X28838Y-45577D01*
X28838Y-45078D01*
X28830Y-45078D01*
X28830Y-45078D01*
X28838Y-45078D01*
X28838Y-44580D01*
X28803Y-44545D01*
X28669Y-44545D01*
X28613Y-44545D01*
X28562Y-44566D01*
X28529Y-44599D01*
X28512Y-44583D01*
X28468Y-44565D01*
X28421Y-44565D01*
X28027Y-44565D01*
X27983Y-44583D01*
X27949Y-44617D01*
X27931Y-44661D01*
X27931Y-44708D01*
X27931Y-45496D01*
X27949Y-45540D01*
X27983Y-45574D01*
X28027Y-45592D01*
X28075Y-45592D01*
X28468Y-45592D01*
X28512Y-45574D01*
X28529Y-45557D01*
X28562Y-45591D01*
X28613Y-45612D01*
X28669Y-45612D01*
X28803Y-45612D01*
X28838Y-45577D01*
X28838Y-48737D01*
X28528Y-48737D01*
X28460Y-48668D01*
X28361Y-48627D01*
X28253Y-48627D01*
X28154Y-48668D01*
X28078Y-48744D01*
X28037Y-48843D01*
X28037Y-48951D01*
X28078Y-49050D01*
X28153Y-49126D01*
X28253Y-49167D01*
X28360Y-49167D01*
X28459Y-49126D01*
X28528Y-49057D01*
X30472Y-49057D01*
X30472Y-49057D01*
X30533Y-49045D01*
X30585Y-49010D01*
X30893Y-48703D01*
X31744Y-48703D01*
X32220Y-49178D01*
X32190Y-49178D01*
X32091Y-49219D01*
X32015Y-49295D01*
X32007Y-49313D01*
X32000Y-49296D01*
X31924Y-49220D01*
X31825Y-49178D01*
X31718Y-49178D01*
X31618Y-49219D01*
X31542Y-49295D01*
X31501Y-49394D01*
X31501Y-49502D01*
X31542Y-49601D01*
X31611Y-49670D01*
X31611Y-50091D01*
X31461Y-50241D01*
X31363Y-50241D01*
X31264Y-50282D01*
X31188Y-50358D01*
X31147Y-50457D01*
X31147Y-50565D01*
X31188Y-50664D01*
X31190Y-50666D01*
X29173Y-50666D01*
X29112Y-50678D01*
X29060Y-50713D01*
X28909Y-50864D01*
X28617Y-50864D01*
X28573Y-50882D01*
X28543Y-50913D01*
X28512Y-50882D01*
X28468Y-50864D01*
X28421Y-50864D01*
X28027Y-50864D01*
X27983Y-50882D01*
X27949Y-50916D01*
X27931Y-50960D01*
X27931Y-51008D01*
X27931Y-51795D01*
X27949Y-51839D01*
X27983Y-51873D01*
X28024Y-51890D01*
X27997Y-51953D01*
X27997Y-52061D01*
X28038Y-52160D01*
X28114Y-52236D01*
X28213Y-52277D01*
X28321Y-52277D01*
X28420Y-52236D01*
X28496Y-52160D01*
X28537Y-52061D01*
X28537Y-51954D01*
X28505Y-51876D01*
X28512Y-51873D01*
X28543Y-51842D01*
X28573Y-51873D01*
X28617Y-51891D01*
X28665Y-51891D01*
X29059Y-51891D01*
X29103Y-51873D01*
X29119Y-51857D01*
X29153Y-51890D01*
X29204Y-51911D01*
X29260Y-51911D01*
X29393Y-51911D01*
X29428Y-51876D01*
X29428Y-51378D01*
X29421Y-51378D01*
X29421Y-51377D01*
X29428Y-51377D01*
X29428Y-51369D01*
X29429Y-51369D01*
X29429Y-51377D01*
X29437Y-51377D01*
X29437Y-51378D01*
X29429Y-51378D01*
X29429Y-51876D01*
X29464Y-51911D01*
X29598Y-51911D01*
X29653Y-51911D01*
X29705Y-51890D01*
X29738Y-51857D01*
X29754Y-51873D01*
X29781Y-51884D01*
X29771Y-51894D01*
X29730Y-51993D01*
X29729Y-52100D01*
X29771Y-52199D01*
X29846Y-52275D01*
X29946Y-52317D01*
X30053Y-52317D01*
X30152Y-52276D01*
X30228Y-52200D01*
X30269Y-52101D01*
X30270Y-51993D01*
X30228Y-51894D01*
X30226Y-51891D01*
X30240Y-51891D01*
X30284Y-51873D01*
X30314Y-51842D01*
X30345Y-51873D01*
X30389Y-51891D01*
X30437Y-51891D01*
X30830Y-51891D01*
X30875Y-51873D01*
X30905Y-51842D01*
X30935Y-51873D01*
X30980Y-51891D01*
X31027Y-51891D01*
X31421Y-51891D01*
X31465Y-51873D01*
X31496Y-51842D01*
X31526Y-51873D01*
X31570Y-51891D01*
X31618Y-51891D01*
X32012Y-51891D01*
X32056Y-51873D01*
X32072Y-51857D01*
X32105Y-51890D01*
X32157Y-51911D01*
X32212Y-51911D01*
X32346Y-51911D01*
X32381Y-51876D01*
X32381Y-51378D01*
X32373Y-51378D01*
X32373Y-51377D01*
X32381Y-51377D01*
X32381Y-51369D01*
X32382Y-51369D01*
X32382Y-51377D01*
X32389Y-51377D01*
X32389Y-51378D01*
X32382Y-51378D01*
X32382Y-51876D01*
X32417Y-51911D01*
X32550Y-51911D01*
X32606Y-51911D01*
X32658Y-51890D01*
X32691Y-51857D01*
X32707Y-51873D01*
X32751Y-51891D01*
X32799Y-51891D01*
X33193Y-51891D01*
X33237Y-51873D01*
X33267Y-51842D01*
X33298Y-51873D01*
X33342Y-51891D01*
X33390Y-51891D01*
X33783Y-51891D01*
X33827Y-51873D01*
X33861Y-51839D01*
X33879Y-51795D01*
X33879Y-51747D01*
X33879Y-51070D01*
X33993Y-50957D01*
X33993Y-50959D01*
X33924Y-51027D01*
X33883Y-51127D01*
X33883Y-51234D01*
X33924Y-51333D01*
X34000Y-51409D01*
X34099Y-51451D01*
X34207Y-51451D01*
X34306Y-51410D01*
X34382Y-51334D01*
X34423Y-51235D01*
X34423Y-51127D01*
X34382Y-51028D01*
X34313Y-50959D01*
X34313Y-50952D01*
X34545Y-50719D01*
X34545Y-50725D01*
X34545Y-51275D01*
X34564Y-51319D01*
X34597Y-51353D01*
X34642Y-51371D01*
X34689Y-51371D01*
X35003Y-51371D01*
X35448Y-51816D01*
X35302Y-51816D01*
X35275Y-51752D01*
X35164Y-51641D01*
X35019Y-51581D01*
X34862Y-51581D01*
X34717Y-51641D01*
X34606Y-51752D01*
X34579Y-51816D01*
X34362Y-51816D01*
X34300Y-51828D01*
X34249Y-51863D01*
X33980Y-52131D01*
X33883Y-52131D01*
X33784Y-52172D01*
X33708Y-52248D01*
X33667Y-52347D01*
X33667Y-52455D01*
X33708Y-52554D01*
X33783Y-52630D01*
X33883Y-52671D01*
X33990Y-52671D01*
X34089Y-52630D01*
X34165Y-52554D01*
X34206Y-52455D01*
X34207Y-52357D01*
X34428Y-52136D01*
X34579Y-52136D01*
X34605Y-52199D01*
X34716Y-52311D01*
X34862Y-52371D01*
X35019Y-52371D01*
X35164Y-52311D01*
X35275Y-52200D01*
X35302Y-52136D01*
X35473Y-52136D01*
X35910Y-52573D01*
X35962Y-52608D01*
X36023Y-52620D01*
X40157Y-52620D01*
X40157Y-52620D01*
X40218Y-52608D01*
X40270Y-52573D01*
X40519Y-52325D01*
X41231Y-52325D01*
X41231Y-52464D01*
X41249Y-52508D01*
X41283Y-52542D01*
X41327Y-52560D01*
X41374Y-52560D01*
X41924Y-52560D01*
X41968Y-52542D01*
X42002Y-52508D01*
X42020Y-52464D01*
X42020Y-52416D01*
X42020Y-51866D01*
X42002Y-51822D01*
X41968Y-51788D01*
X41924Y-51770D01*
X41877Y-51770D01*
X41327Y-51770D01*
X41283Y-51788D01*
X41249Y-51822D01*
X41231Y-51866D01*
X41231Y-51914D01*
X41231Y-52005D01*
X40452Y-52005D01*
X40391Y-52017D01*
X40339Y-52052D01*
X40230Y-52161D01*
X40230Y-52111D01*
X40189Y-52012D01*
X40113Y-51936D01*
X40014Y-51895D01*
X39907Y-51895D01*
X39807Y-51936D01*
X39738Y-52005D01*
X38181Y-52005D01*
X40398Y-49788D01*
X40398Y-49788D01*
X40433Y-49736D01*
X40433Y-49736D01*
X40435Y-49726D01*
X40445Y-49675D01*
X40445Y-49675D01*
X40445Y-48596D01*
X40466Y-48596D01*
X40510Y-48578D01*
X40544Y-48544D01*
X40562Y-48500D01*
X40562Y-48452D01*
X40562Y-48295D01*
X40544Y-48250D01*
X40522Y-48228D01*
X40544Y-48205D01*
X40562Y-48161D01*
X40562Y-48113D01*
X40562Y-47956D01*
X40562Y-47955D01*
X41114Y-47955D01*
X41147Y-47987D01*
X41147Y-48084D01*
X41188Y-48184D01*
X41264Y-48260D01*
X41329Y-48287D01*
X41264Y-48314D01*
X41188Y-48390D01*
X41147Y-48489D01*
X41147Y-48596D01*
X41188Y-48696D01*
X41264Y-48772D01*
X41363Y-48813D01*
X41470Y-48813D01*
X41570Y-48772D01*
X41646Y-48696D01*
X41687Y-48597D01*
X41687Y-48527D01*
X41938Y-48276D01*
X41938Y-48276D01*
X41938Y-48276D01*
X41964Y-48237D01*
X41977Y-48218D01*
X41977Y-48218D01*
X41990Y-48149D01*
X41990Y-48149D01*
X41990Y-48149D01*
X41990Y-47994D01*
X42652Y-48656D01*
X42704Y-48691D01*
X42765Y-48703D01*
X43850Y-48703D01*
X43836Y-48735D01*
X43836Y-48782D01*
X43676Y-48942D01*
X43607Y-48942D01*
X43508Y-48983D01*
X43432Y-49059D01*
X43391Y-49158D01*
X43391Y-49266D01*
X43421Y-49338D01*
X43421Y-50708D01*
X43421Y-50708D01*
X43439Y-50800D01*
X43491Y-50878D01*
X44189Y-51576D01*
X44219Y-51648D01*
X44295Y-51724D01*
X44394Y-51765D01*
X44502Y-51766D01*
X44601Y-51725D01*
X44677Y-51649D01*
X44718Y-51549D01*
X44718Y-51442D01*
X44677Y-51343D01*
X44601Y-51267D01*
X44529Y-51237D01*
X43901Y-50609D01*
X43901Y-50502D01*
X43928Y-50513D01*
X44413Y-50513D01*
X44448Y-50478D01*
X44448Y-49980D01*
X44440Y-49980D01*
X44440Y-49980D01*
X44448Y-49980D01*
X44448Y-49481D01*
X44413Y-49446D01*
X43928Y-49446D01*
X43901Y-49458D01*
X43901Y-49338D01*
X43931Y-49266D01*
X43931Y-49197D01*
X44051Y-49076D01*
X44886Y-49076D01*
X44930Y-49058D01*
X44964Y-49024D01*
X44982Y-48980D01*
X44982Y-48932D01*
X44982Y-48735D01*
X44968Y-48700D01*
X44982Y-48665D01*
X44982Y-48617D01*
X44982Y-48420D01*
X44968Y-48385D01*
X44982Y-48350D01*
X44982Y-48302D01*
X44982Y-48105D01*
X44968Y-48070D01*
X44982Y-48035D01*
X44982Y-47987D01*
X44982Y-47790D01*
X44977Y-47779D01*
X44981Y-47776D01*
X45002Y-47724D01*
X45002Y-49461D01*
X44968Y-49446D01*
X44483Y-49446D01*
X44448Y-49481D01*
X44448Y-49980D01*
X45045Y-49980D01*
X45080Y-49945D01*
X45080Y-50015D01*
X45045Y-49980D01*
X44448Y-49980D01*
X44448Y-50478D01*
X44483Y-50513D01*
X44968Y-50513D01*
X45019Y-50492D01*
X45059Y-50453D01*
X45080Y-50401D01*
X45080Y-53010D01*
X43043Y-53010D01*
X43043Y-52098D01*
X42986Y-51944D01*
X42968Y-51916D01*
X42900Y-51891D01*
X42900Y-51891D01*
X42900Y-51890D01*
X42874Y-51822D01*
X42724Y-51753D01*
X42559Y-51747D01*
X42404Y-51804D01*
X42377Y-51822D01*
X42351Y-51890D01*
X42625Y-52165D01*
X42900Y-51890D01*
X42900Y-51891D01*
X42626Y-52165D01*
X42900Y-52439D01*
X42968Y-52413D01*
X43037Y-52263D01*
X43043Y-52098D01*
X43043Y-53010D01*
X42900Y-53010D01*
X42900Y-52439D01*
X42625Y-52165D01*
X42625Y-52165D01*
X42625Y-52165D01*
X42351Y-51891D01*
X42283Y-51916D01*
X42214Y-52066D01*
X42208Y-52231D01*
X42265Y-52386D01*
X42283Y-52413D01*
X42351Y-52439D01*
X42625Y-52165D01*
X42625Y-52165D01*
X42351Y-52439D01*
X42377Y-52507D01*
X42527Y-52576D01*
X42692Y-52583D01*
X42847Y-52525D01*
X42874Y-52507D01*
X42900Y-52439D01*
X42900Y-53010D01*
X29147Y-53010D01*
X28585Y-52898D01*
X28120Y-52587D01*
X27810Y-52122D01*
X27698Y-51561D01*
X27698Y-44895D01*
X27810Y-44333D01*
X28120Y-43868D01*
X28585Y-43558D01*
X29147Y-43446D01*
X45655Y-43446D01*
X46217Y-43558D01*
X46682Y-43868D01*
X46992Y-44333D01*
X47104Y-44895D01*
X47104Y-45942D01*
X46648Y-45942D01*
X46613Y-45977D01*
X46613Y-46476D01*
X46621Y-46476D01*
X46621Y-46476D01*
X46613Y-46476D01*
X46613Y-46974D01*
X46648Y-47009D01*
X47104Y-47009D01*
X47104Y-49446D01*
X46648Y-49446D01*
X46613Y-49481D01*
X46613Y-49980D01*
X46621Y-49980D01*
X46621Y-49980D01*
X46613Y-49980D01*
X46613Y-50478D01*
X46648Y-50513D01*
X47104Y-50513D01*
X47104Y-51561D01*
M02*
