M48
;DRILL file {Pcbnew (2013-mar-13)-testing} date Mon 25 May 2015 11:56:24 PM EDT
;FORMAT={-:-/ absolute / inch / decimal}
FMAT,2
INCH,TZ
T1C0.015
T2C0.032
%
G90
G05
M72
T1
X2.8268Y-5.2008
X2.8307Y-4.8898
X2.8858Y-4.5787
X2.9449Y-5.2047
X2.9449Y-5.2717
X2.9606Y-4.9252
X3.Y-5.2047
X3.0906Y-4.8858
X3.1417Y-5.0512
X3.1772Y-4.9449
X3.1969Y-5.0551
X3.2244Y-4.9449
X3.2677Y-5.
X3.2677Y-5.0689
X3.3071Y-4.8189
X3.3937Y-5.2402
X3.4055Y-4.7244
X3.4055Y-4.7638
X3.4055Y-4.8031
X3.4055Y-4.8425
X3.4154Y-5.1181
X3.4567Y-4.4567
X3.5472Y-4.622
X3.563Y-4.4843
X3.5728Y-5.1476
X3.5906Y-4.6378
X3.6122Y-5.1476
X3.622Y-4.9213
X3.6713Y-4.872
X3.6732Y-4.8268
X3.6929Y-4.7913
X3.6929Y-4.937
X3.7106Y-5.1575
X3.7559Y-4.7283
X3.7598Y-5.1575
X3.7677Y-4.8386
X3.7835Y-4.9331
X3.7874Y-4.7047
X3.8465Y-4.5236
X3.8622Y-4.8071
X3.8937Y-5.
X3.9331Y-5.1299
X3.9567Y-4.9567
X3.9961Y-5.2165
X4.0394Y-5.1299
X4.1417Y-4.8031
X4.1417Y-4.8543
X4.1496Y-4.6496
X4.248Y-4.9646
X4.2913Y-4.6457
X4.3583Y-4.7795
X4.3661Y-4.9213
X4.4449Y-5.1496
X4.5866Y-4.5748
T2
X3.4941Y-5.0976
X3.4941Y-5.1976
X3.7886Y-4.4291
X3.8886Y-4.4291
X4.0429Y-4.4291
X4.1429Y-4.4291
X4.1626Y-5.2165
X4.2429Y-4.4291
X4.2626Y-5.2165
X4.3429Y-4.4291
X4.4972Y-4.4291
X4.5972Y-4.4291
T0
M30
