G04 (created by PCBNEW (2013-mar-13)-testing) date Mon 25 May 2015 11:56:23 PM EDT*
%MOIN*%
G04 Gerber Fmt 3.4, Leading zero omitted, Abs format*
%FSLAX34Y34*%
G01*
G70*
G90*
G04 APERTURE LIST*
%ADD10C,0.005906*%
%ADD11R,0.037402X0.021654*%
%ADD12R,0.035000X0.055000*%
%ADD13R,0.055000X0.035000*%
%ADD14R,0.030000X0.020000*%
%ADD15R,0.055000X0.055000*%
%ADD16C,0.055000*%
%ADD17R,0.055118X0.027559*%
%ADD18R,0.055118X0.039370*%
%ADD19R,0.047244X0.027559*%
%ADD20R,0.047244X0.047244*%
%ADD21R,0.031496X0.047244*%
%ADD22R,0.125984X0.047244*%
%ADD23R,0.074803X0.059055*%
%ADD24R,0.019685X0.019685*%
%ADD25R,0.021654X0.023622*%
%ADD26R,0.023622X0.021654*%
%ADD27R,0.021260X0.033465*%
%ADD28R,0.033465X0.021260*%
%ADD29O,0.007874X0.023622*%
%ADD30O,0.023622X0.007874*%
%ADD31R,0.060630X0.066929*%
%ADD32C,0.030000*%
%ADD33C,0.024000*%
%ADD34C,0.008000*%
%ADD35C,0.006000*%
%ADD36C,0.012000*%
%ADD37C,0.007992*%
G04 APERTURE END LIST*
G54D10*
G54D11*
X30905Y-45816D03*
X30905Y-45324D03*
X30905Y-46309D03*
X30905Y-46801D03*
X30118Y-46801D03*
X30118Y-46309D03*
X30118Y-45816D03*
X30118Y-45324D03*
G54D12*
X39862Y-50787D03*
X38877Y-50787D03*
G54D13*
X38582Y-51673D03*
X38582Y-52657D03*
G54D12*
X45570Y-51771D03*
X46555Y-51771D03*
G54D14*
X43791Y-52540D03*
X43791Y-51790D03*
X44791Y-52540D03*
X43791Y-52165D03*
X44791Y-51790D03*
X40460Y-51790D03*
X40460Y-52540D03*
X39460Y-51790D03*
X40460Y-52165D03*
X39460Y-52540D03*
G54D15*
X44972Y-44291D03*
G54D16*
X45972Y-44291D03*
G54D17*
X40846Y-47165D03*
X40846Y-47598D03*
X40846Y-48031D03*
X40846Y-48464D03*
X40846Y-48897D03*
X40846Y-49330D03*
X40846Y-49763D03*
X40846Y-50196D03*
G54D18*
X40846Y-46417D03*
G54D19*
X40807Y-50590D03*
G54D20*
X42500Y-50905D03*
G54D21*
X44940Y-50905D03*
G54D22*
X46358Y-50905D03*
G54D23*
X46751Y-45669D03*
G54D24*
X47027Y-46062D03*
G54D15*
X41625Y-52165D03*
G54D16*
X42625Y-52165D03*
G54D25*
X29370Y-45275D03*
X28897Y-45275D03*
X29370Y-46259D03*
X28897Y-46259D03*
X29251Y-49606D03*
X28779Y-49606D03*
X29251Y-50236D03*
X28779Y-50236D03*
X34881Y-49212D03*
X34409Y-49212D03*
X39527Y-50000D03*
X40000Y-50000D03*
X34409Y-46850D03*
X34881Y-46850D03*
X29960Y-51377D03*
X29488Y-51377D03*
X28307Y-51377D03*
X28779Y-51377D03*
G54D26*
X36023Y-45708D03*
X36023Y-45236D03*
X34055Y-45708D03*
X34055Y-45236D03*
G54D15*
X37885Y-44291D03*
G54D16*
X38885Y-44291D03*
G54D15*
X43429Y-44291D03*
G54D16*
X42429Y-44291D03*
X41429Y-44291D03*
X40429Y-44291D03*
G54D15*
X34940Y-50976D03*
G54D16*
X34940Y-51976D03*
G54D25*
X32244Y-49803D03*
X31771Y-49803D03*
X32244Y-50196D03*
X31771Y-50196D03*
X34409Y-49606D03*
X34881Y-49606D03*
X36850Y-44094D03*
X36377Y-44094D03*
X34409Y-48818D03*
X34881Y-48818D03*
X36850Y-44488D03*
X36377Y-44488D03*
G54D26*
X35236Y-45236D03*
X35236Y-45708D03*
X36909Y-50649D03*
X36909Y-51122D03*
X36515Y-50649D03*
X36515Y-51122D03*
X36417Y-45236D03*
X36417Y-45708D03*
X35629Y-45236D03*
X35629Y-45708D03*
X36122Y-50649D03*
X36122Y-51122D03*
X35728Y-50649D03*
X35728Y-51122D03*
X34842Y-45236D03*
X34842Y-45708D03*
X34448Y-45236D03*
X34448Y-45708D03*
G54D25*
X34881Y-48425D03*
X34409Y-48425D03*
X34881Y-48031D03*
X34409Y-48031D03*
X45629Y-52559D03*
X46102Y-52559D03*
X34881Y-47637D03*
X34409Y-47637D03*
X34881Y-47244D03*
X34409Y-47244D03*
G54D27*
X36299Y-49911D03*
X36614Y-49911D03*
X36929Y-49911D03*
X37244Y-49911D03*
X37559Y-49911D03*
X37874Y-49911D03*
X38188Y-49911D03*
X38503Y-49911D03*
X38503Y-49911D03*
X38188Y-49911D03*
X37874Y-49911D03*
X37559Y-49911D03*
X37244Y-49911D03*
X36929Y-49911D03*
X36614Y-49911D03*
X36299Y-49911D03*
X36299Y-49911D03*
X36614Y-49911D03*
X36929Y-49911D03*
X37244Y-49911D03*
X37559Y-49911D03*
X37874Y-49911D03*
X38188Y-49911D03*
X38503Y-49911D03*
X38503Y-49911D03*
X38188Y-49911D03*
X37874Y-49911D03*
X37559Y-49911D03*
X37244Y-49911D03*
X36929Y-49911D03*
X36614Y-49911D03*
X36299Y-49911D03*
G54D28*
X35718Y-49330D03*
X35718Y-49015D03*
X35718Y-48700D03*
X35718Y-48385D03*
X35718Y-48070D03*
X35718Y-47755D03*
X35718Y-47440D03*
X35718Y-47125D03*
G54D27*
X36299Y-46545D03*
X36614Y-46545D03*
X36929Y-46545D03*
X37244Y-46545D03*
X37559Y-46545D03*
X37874Y-46545D03*
X38188Y-46545D03*
X38503Y-46545D03*
G54D28*
X39084Y-47125D03*
X39084Y-47440D03*
X39084Y-47755D03*
X39084Y-48070D03*
X39084Y-48385D03*
X39084Y-48700D03*
X39084Y-49015D03*
X39084Y-49330D03*
G54D29*
X30905Y-49212D03*
X30748Y-49212D03*
X30590Y-49212D03*
X30433Y-49212D03*
X30275Y-49212D03*
X30118Y-49212D03*
G54D30*
X31102Y-49409D03*
X31102Y-49566D03*
X31102Y-49724D03*
X31102Y-49881D03*
X31102Y-50039D03*
X31102Y-50196D03*
X29921Y-49409D03*
X29921Y-49566D03*
X29921Y-49724D03*
X29921Y-49881D03*
X29921Y-50039D03*
X29921Y-50196D03*
G54D29*
X30905Y-50393D03*
X30748Y-50393D03*
X30590Y-50393D03*
X30433Y-50393D03*
X30275Y-50393D03*
X30118Y-50393D03*
G54D31*
X30511Y-49803D03*
G54D26*
X36811Y-45708D03*
X36811Y-45236D03*
G54D32*
X41496Y-46496D03*
X44448Y-51496D03*
X43661Y-49212D03*
X38464Y-45236D03*
X43582Y-47795D03*
X33937Y-52401D03*
X30000Y-52047D03*
X38937Y-50000D03*
X36732Y-48267D03*
X36929Y-47913D03*
X36220Y-49212D03*
X39960Y-52165D03*
X32677Y-50688D03*
X36712Y-48720D03*
X34153Y-51181D03*
X31417Y-50511D03*
X31771Y-49448D03*
X32244Y-49448D03*
X31968Y-50551D03*
X41417Y-48031D03*
X38622Y-48070D03*
X37559Y-47283D03*
X37874Y-47047D03*
X42480Y-49645D03*
X29448Y-52047D03*
X29448Y-52716D03*
X34566Y-44566D03*
X33070Y-48188D03*
X45866Y-45748D03*
X28858Y-45787D03*
X37834Y-49330D03*
X37677Y-48385D03*
X35472Y-46220D03*
X39330Y-51299D03*
X40393Y-51299D03*
X29606Y-49251D03*
X30905Y-48858D03*
X34055Y-48031D03*
X34055Y-48425D03*
X34055Y-47637D03*
X34055Y-47244D03*
X37598Y-51574D03*
X37106Y-51574D03*
X36122Y-51476D03*
X35728Y-51476D03*
X35629Y-44842D03*
X42913Y-46456D03*
X41417Y-48543D03*
X39566Y-49566D03*
X35905Y-46377D03*
X36929Y-49370D03*
X32677Y-50000D03*
X28307Y-48897D03*
X28267Y-52007D03*
G54D33*
X44791Y-51790D02*
X44743Y-51790D01*
X44743Y-51790D02*
X44448Y-51496D01*
G54D34*
X36811Y-45236D02*
X38464Y-45236D01*
X43582Y-47795D02*
X43661Y-47874D01*
X43661Y-47874D02*
X43661Y-49212D01*
X36417Y-45236D02*
X36811Y-45236D01*
G54D33*
X44791Y-51790D02*
X45552Y-51790D01*
X45552Y-51790D02*
X45570Y-51771D01*
G54D34*
X33582Y-52047D02*
X30000Y-52047D01*
X33937Y-52401D02*
X33582Y-52047D01*
X29960Y-52007D02*
X30000Y-52047D01*
X29960Y-51377D02*
X29960Y-52007D01*
G54D33*
X39862Y-50787D02*
X39862Y-51555D01*
X40097Y-51790D02*
X40460Y-51790D01*
X39862Y-51555D02*
X40097Y-51790D01*
G54D34*
X39566Y-50787D02*
X39862Y-50787D01*
X39370Y-50590D02*
X39566Y-50787D01*
X39370Y-50433D02*
X39370Y-50590D01*
X38937Y-50000D02*
X39370Y-50433D01*
X34409Y-49606D02*
X34409Y-50944D01*
X34409Y-50944D02*
X34448Y-50984D01*
X34448Y-50984D02*
X34448Y-51484D01*
X34448Y-51484D02*
X34940Y-51976D01*
G54D33*
X40460Y-51790D02*
X41250Y-51790D01*
X41250Y-51790D02*
X41625Y-52165D01*
X43791Y-51790D02*
X43654Y-51653D01*
X43654Y-51653D02*
X42137Y-51653D01*
X42137Y-51653D02*
X41625Y-52165D01*
G54D34*
X34881Y-48818D02*
X35157Y-48818D01*
X35354Y-49015D02*
X35718Y-49015D01*
X35157Y-48818D02*
X35354Y-49015D01*
X34881Y-49212D02*
X34881Y-49606D01*
X34881Y-48818D02*
X34881Y-49212D01*
X34842Y-45708D02*
X34842Y-46023D01*
X36023Y-48700D02*
X35718Y-48700D01*
X36181Y-48543D02*
X36023Y-48700D01*
X36181Y-47047D02*
X36181Y-48543D01*
X35826Y-46692D02*
X36181Y-47047D01*
X35511Y-46692D02*
X35826Y-46692D01*
X34842Y-46023D02*
X35511Y-46692D01*
X34448Y-45708D02*
X34842Y-45708D01*
X34055Y-45708D02*
X34448Y-45708D01*
X39084Y-48700D02*
X39685Y-48700D01*
X43876Y-52540D02*
X43791Y-52540D01*
X44173Y-52244D02*
X43876Y-52540D01*
X44173Y-51653D02*
X44173Y-52244D01*
X43897Y-51377D02*
X44173Y-51653D01*
X40984Y-51377D02*
X43897Y-51377D01*
X40433Y-50826D02*
X40984Y-51377D01*
X40433Y-49842D02*
X40433Y-50826D01*
X40039Y-49448D02*
X40433Y-49842D01*
X40039Y-49055D02*
X40039Y-49448D01*
X39685Y-48700D02*
X40039Y-49055D01*
X36929Y-46545D02*
X36929Y-46850D01*
X36614Y-48149D02*
X36732Y-48267D01*
X36614Y-47165D02*
X36614Y-48149D01*
X36929Y-46850D02*
X36614Y-47165D01*
X37244Y-46545D02*
X37244Y-46771D01*
X36811Y-47795D02*
X36929Y-47913D01*
X36811Y-47204D02*
X36811Y-47795D01*
X37244Y-46771D02*
X36811Y-47204D01*
X36929Y-49911D02*
X36929Y-50629D01*
X36929Y-50629D02*
X36909Y-50649D01*
X36614Y-49911D02*
X36614Y-50551D01*
X36614Y-50551D02*
X36515Y-50649D01*
X36299Y-49911D02*
X36299Y-50472D01*
X36299Y-50472D02*
X36122Y-50649D01*
X35718Y-49330D02*
X35718Y-50639D01*
X35718Y-50639D02*
X35728Y-50649D01*
X34881Y-48425D02*
X34921Y-48385D01*
X34921Y-48385D02*
X35718Y-48385D01*
X35718Y-48070D02*
X34921Y-48070D01*
X34921Y-48070D02*
X34881Y-48031D01*
X35718Y-47755D02*
X35000Y-47755D01*
X35000Y-47755D02*
X34881Y-47637D01*
X34881Y-47244D02*
X35118Y-47244D01*
X35314Y-47440D02*
X35718Y-47440D01*
X35118Y-47244D02*
X35314Y-47440D01*
X36614Y-46545D02*
X36614Y-46850D01*
X36417Y-47047D02*
X36614Y-46850D01*
X36417Y-49015D02*
X36417Y-47047D01*
X36220Y-49212D02*
X36417Y-49015D01*
X40335Y-52540D02*
X40460Y-52540D01*
X39960Y-52165D02*
X40335Y-52540D01*
X36614Y-46545D02*
X36614Y-46259D01*
X36614Y-46259D02*
X36417Y-46062D01*
X36417Y-46062D02*
X36417Y-45708D01*
X36023Y-45708D02*
X36417Y-45708D01*
X35629Y-45708D02*
X36023Y-45708D01*
X33661Y-50688D02*
X32677Y-50688D01*
X37559Y-49566D02*
X36712Y-48720D01*
X37559Y-49911D02*
X37559Y-49566D01*
X34153Y-51181D02*
X33858Y-50885D01*
X33858Y-50885D02*
X33661Y-50688D01*
X31417Y-50511D02*
X32086Y-51181D01*
X38188Y-51279D02*
X38188Y-49911D01*
X38090Y-51771D02*
X37280Y-52581D01*
X38090Y-51377D02*
X38090Y-51771D01*
X38188Y-51279D02*
X38090Y-51377D01*
X34628Y-52581D02*
X37280Y-52581D01*
X33228Y-51181D02*
X34628Y-52581D01*
X32086Y-51181D02*
X33228Y-51181D01*
X31771Y-49448D02*
X31771Y-47204D01*
X31368Y-46801D02*
X30905Y-46801D01*
X31771Y-47204D02*
X31368Y-46801D01*
X31771Y-49448D02*
X31771Y-49803D01*
G54D35*
X31102Y-50039D02*
X31535Y-50039D01*
X31535Y-50039D02*
X31771Y-49803D01*
G54D34*
X37185Y-52381D02*
X34665Y-52381D01*
X37874Y-51692D02*
X37185Y-52381D01*
X37874Y-49911D02*
X37874Y-51692D01*
X32401Y-50984D02*
X31968Y-50551D01*
X33267Y-50984D02*
X32401Y-50984D01*
X34665Y-52381D02*
X33267Y-50984D01*
X31771Y-50196D02*
X31771Y-50354D01*
X31309Y-46309D02*
X30905Y-46309D01*
X32244Y-47244D02*
X31309Y-46309D01*
X32244Y-49448D02*
X32244Y-47244D01*
X31771Y-50354D02*
X31968Y-50551D01*
G54D35*
X31102Y-50196D02*
X31771Y-50196D01*
G54D34*
X39084Y-47125D02*
X39645Y-47125D01*
X40118Y-47598D02*
X40846Y-47598D01*
X39645Y-47125D02*
X40118Y-47598D01*
X40846Y-49763D02*
X40629Y-49763D01*
X39330Y-47755D02*
X39084Y-47755D01*
X40059Y-48484D02*
X39330Y-47755D01*
X40059Y-48799D02*
X40059Y-48484D01*
X40236Y-48976D02*
X40059Y-48799D01*
X40236Y-49370D02*
X40236Y-48976D01*
X40629Y-49763D02*
X40236Y-49370D01*
X39084Y-48070D02*
X38622Y-48070D01*
X41417Y-48031D02*
X40846Y-48031D01*
X39084Y-47440D02*
X39330Y-47440D01*
X40472Y-48897D02*
X40846Y-48897D01*
X40236Y-48661D02*
X40472Y-48897D01*
X40236Y-48346D02*
X40236Y-48661D01*
X39330Y-47440D02*
X40236Y-48346D01*
X38503Y-46545D02*
X38503Y-46220D01*
X41917Y-44803D02*
X42429Y-44291D01*
X39921Y-44803D02*
X41917Y-44803D01*
X38503Y-46220D02*
X39921Y-44803D01*
X40429Y-44291D02*
X40078Y-44291D01*
X38188Y-46181D02*
X38188Y-46545D01*
X40078Y-44291D02*
X38188Y-46181D01*
X37559Y-47283D02*
X37559Y-46545D01*
X37874Y-47047D02*
X37874Y-46545D01*
X42500Y-49665D02*
X42500Y-50905D01*
X42500Y-49665D02*
X42480Y-49645D01*
X34448Y-45236D02*
X34448Y-44685D01*
X34448Y-44685D02*
X34566Y-44566D01*
X34409Y-48818D02*
X33700Y-48818D01*
X33700Y-48818D02*
X33070Y-48188D01*
X47027Y-46062D02*
X47027Y-45944D01*
X47027Y-45944D02*
X46751Y-45669D01*
X46751Y-45669D02*
X45944Y-45669D01*
X45944Y-45669D02*
X45866Y-45748D01*
G54D35*
X29921Y-49881D02*
X28858Y-49881D01*
X28779Y-49803D02*
X28779Y-49606D01*
X28858Y-49881D02*
X28779Y-49803D01*
G54D34*
X37834Y-49330D02*
X37834Y-48543D01*
X39084Y-49330D02*
X37834Y-49330D01*
X37834Y-48543D02*
X37677Y-48385D01*
X35236Y-45708D02*
X35236Y-45984D01*
X35236Y-45984D02*
X35472Y-46220D01*
X38877Y-50787D02*
X38877Y-51279D01*
X38897Y-51299D02*
X39330Y-51299D01*
X38877Y-51279D02*
X38897Y-51299D01*
X40000Y-50000D02*
X40196Y-50196D01*
X40196Y-51102D02*
X40393Y-51299D01*
X40196Y-50196D02*
X40196Y-51102D01*
G54D35*
X29921Y-49566D02*
X29763Y-49566D01*
X29606Y-49409D02*
X29606Y-49251D01*
X29763Y-49566D02*
X29606Y-49409D01*
X30905Y-49212D02*
X30905Y-48858D01*
X31102Y-49566D02*
X31259Y-49566D01*
X31220Y-49212D02*
X30905Y-49212D01*
X31338Y-49330D02*
X31220Y-49212D01*
X31338Y-49488D02*
X31338Y-49330D01*
X31259Y-49566D02*
X31338Y-49488D01*
X29251Y-49606D02*
X29429Y-49606D01*
X29547Y-49724D02*
X29429Y-49606D01*
X29547Y-49724D02*
X29921Y-49724D01*
G54D34*
X34409Y-48031D02*
X34055Y-48031D01*
X34409Y-48425D02*
X34055Y-48425D01*
X34055Y-47637D02*
X34409Y-47637D01*
X34409Y-47244D02*
X34055Y-47244D01*
X36909Y-51122D02*
X37145Y-51122D01*
X37145Y-51122D02*
X37598Y-51574D01*
X36515Y-51377D02*
X36515Y-51122D01*
X36712Y-51574D02*
X36515Y-51377D01*
X37106Y-51574D02*
X36712Y-51574D01*
X36122Y-51476D02*
X36122Y-51122D01*
X35728Y-51476D02*
X35728Y-51122D01*
X39084Y-48385D02*
X38543Y-48385D01*
X44870Y-45393D02*
X45972Y-44291D01*
X40354Y-45393D02*
X44870Y-45393D01*
X38346Y-47401D02*
X40354Y-45393D01*
X38346Y-48188D02*
X38346Y-47401D01*
X38543Y-48385D02*
X38346Y-48188D01*
X44791Y-52540D02*
X45611Y-52540D01*
X45611Y-52540D02*
X45629Y-52559D01*
X29370Y-46259D02*
X29419Y-46309D01*
X29419Y-46309D02*
X30118Y-46309D01*
X36377Y-44094D02*
X36653Y-43818D01*
X44500Y-43818D02*
X44972Y-44291D01*
X36653Y-43818D02*
X44500Y-43818D01*
X44972Y-44291D02*
X44106Y-45157D01*
X38818Y-49015D02*
X39084Y-49015D01*
X38149Y-48346D02*
X38818Y-49015D01*
X38149Y-47362D02*
X38149Y-48346D01*
X40354Y-45157D02*
X38149Y-47362D01*
X44106Y-45157D02*
X40354Y-45157D01*
X36850Y-44094D02*
X37688Y-44094D01*
X37688Y-44094D02*
X37885Y-44291D01*
X36850Y-44094D02*
X36850Y-44488D01*
X35629Y-44842D02*
X35629Y-45236D01*
X35236Y-45236D02*
X35629Y-45236D01*
X34842Y-45236D02*
X35236Y-45236D01*
G54D36*
X29370Y-45275D02*
X29370Y-44842D01*
X29370Y-44842D02*
X29370Y-44881D01*
X29370Y-44881D02*
X29370Y-44842D01*
X33346Y-46850D02*
X31338Y-44842D01*
X31338Y-44842D02*
X29370Y-44842D01*
X33346Y-46850D02*
X34409Y-46850D01*
X28307Y-45039D02*
X28503Y-44842D01*
X29370Y-44842D02*
X28503Y-44842D01*
X28307Y-46811D02*
X28307Y-45039D01*
X28307Y-50669D02*
X29055Y-50669D01*
X29251Y-50472D02*
X29251Y-50236D01*
X29055Y-50669D02*
X29251Y-50472D01*
G54D35*
X29251Y-50236D02*
X29527Y-50236D01*
X29527Y-50236D02*
X29960Y-50669D01*
X29960Y-50669D02*
X30826Y-50669D01*
X30826Y-50669D02*
X30905Y-50590D01*
X30905Y-50590D02*
X30905Y-50393D01*
X29921Y-50039D02*
X29448Y-50039D01*
X29448Y-50039D02*
X29251Y-50236D01*
G54D36*
X42913Y-47047D02*
X41417Y-48543D01*
X42913Y-46456D02*
X42913Y-47047D01*
G54D34*
X41338Y-48464D02*
X41417Y-48543D01*
X41338Y-48464D02*
X40846Y-48464D01*
G54D36*
X39527Y-50000D02*
X39527Y-49606D01*
X39527Y-49606D02*
X39566Y-49566D01*
G54D34*
X36299Y-46545D02*
X36072Y-46545D01*
X36072Y-46545D02*
X35905Y-46377D01*
X37244Y-49911D02*
X37244Y-49685D01*
X37244Y-49685D02*
X36929Y-49370D01*
X32244Y-50196D02*
X32480Y-50196D01*
X32480Y-50196D02*
X32677Y-50000D01*
X32244Y-49803D02*
X32480Y-49803D01*
X32480Y-49803D02*
X32677Y-50000D01*
G54D35*
X31102Y-49881D02*
X31259Y-49881D01*
X30354Y-48582D02*
X30039Y-48897D01*
X31062Y-48582D02*
X30354Y-48582D01*
X31496Y-49015D02*
X31062Y-48582D01*
X31496Y-49645D02*
X31496Y-49015D01*
X31259Y-49881D02*
X31496Y-49645D01*
X30118Y-49212D02*
X30118Y-48976D01*
G54D34*
X30039Y-48897D02*
X28307Y-48897D01*
G54D35*
X30118Y-48976D02*
X30039Y-48897D01*
G54D36*
X28307Y-51377D02*
X28307Y-51968D01*
X28307Y-51968D02*
X28267Y-52007D01*
X28307Y-50354D02*
X28307Y-50669D01*
X28307Y-50354D02*
X28307Y-48897D01*
X28307Y-50669D02*
X28307Y-51377D01*
X38582Y-51673D02*
X38523Y-51673D01*
X28622Y-52362D02*
X28267Y-52007D01*
X33425Y-52362D02*
X28622Y-52362D01*
X33858Y-52795D02*
X33425Y-52362D01*
X37401Y-52795D02*
X33858Y-52795D01*
X38523Y-51673D02*
X37401Y-52795D01*
G54D35*
X30118Y-45324D02*
X29419Y-45324D01*
X29419Y-45324D02*
X29370Y-45275D01*
G54D36*
X30118Y-46801D02*
X28307Y-46801D01*
X28307Y-46801D02*
X28307Y-46811D01*
X28307Y-48897D02*
X28307Y-46811D01*
X38503Y-49911D02*
X38503Y-51594D01*
X38503Y-51594D02*
X38582Y-51673D01*
X38503Y-49911D02*
X38553Y-49911D01*
X39173Y-49645D02*
X39527Y-50000D01*
X38818Y-49645D02*
X39173Y-49645D01*
X38553Y-49911D02*
X38818Y-49645D01*
G54D33*
X38582Y-51673D02*
X38699Y-51790D01*
X38699Y-51790D02*
X39460Y-51790D01*
G54D10*
G36*
X29968Y-49082D02*
X29958Y-49129D01*
X29958Y-49250D01*
X29837Y-49250D01*
X29776Y-49262D01*
X29725Y-49296D01*
X29690Y-49348D01*
X29678Y-49409D01*
X29690Y-49470D01*
X29693Y-49474D01*
X29676Y-49498D01*
X29665Y-49538D01*
X29698Y-49566D01*
X29827Y-49566D01*
X29828Y-49566D01*
X29827Y-49567D01*
X29698Y-49567D01*
X29689Y-49574D01*
X29609Y-49574D01*
X29535Y-49500D01*
X29486Y-49467D01*
X29480Y-49466D01*
X29480Y-49464D01*
X29461Y-49420D01*
X29428Y-49386D01*
X29384Y-49368D01*
X29336Y-49368D01*
X29119Y-49368D01*
X29075Y-49386D01*
X29042Y-49420D01*
X29026Y-49457D01*
X29006Y-49408D01*
X28967Y-49369D01*
X28915Y-49348D01*
X28814Y-49348D01*
X28779Y-49383D01*
X28779Y-49606D01*
X28787Y-49606D01*
X28787Y-49606D01*
X28779Y-49606D01*
X28779Y-49829D01*
X28814Y-49864D01*
X28915Y-49864D01*
X28967Y-49843D01*
X29006Y-49803D01*
X29026Y-49755D01*
X29042Y-49792D01*
X29075Y-49826D01*
X29119Y-49844D01*
X29167Y-49844D01*
X29384Y-49844D01*
X29428Y-49826D01*
X29432Y-49821D01*
X29441Y-49830D01*
X29489Y-49862D01*
X29547Y-49874D01*
X29689Y-49874D01*
X29698Y-49881D01*
X29827Y-49881D01*
X29828Y-49881D01*
X29827Y-49882D01*
X29698Y-49882D01*
X29689Y-49889D01*
X29448Y-49889D01*
X29391Y-49900D01*
X29342Y-49933D01*
X29277Y-49998D01*
X29119Y-49998D01*
X29075Y-50016D01*
X29042Y-50050D01*
X29026Y-50087D01*
X29006Y-50038D01*
X28967Y-49999D01*
X28915Y-49978D01*
X28814Y-49978D01*
X28779Y-50013D01*
X28779Y-50236D01*
X28787Y-50236D01*
X28787Y-50236D01*
X28779Y-50236D01*
X28779Y-50244D01*
X28779Y-50244D01*
X28779Y-50236D01*
X28779Y-50236D01*
X28779Y-50013D01*
X28779Y-49829D01*
X28779Y-49606D01*
X28779Y-49606D01*
X28779Y-49383D01*
X28744Y-49348D01*
X28643Y-49348D01*
X28591Y-49369D01*
X28552Y-49408D01*
X28531Y-49460D01*
X28531Y-49516D01*
X28531Y-49571D01*
X28566Y-49606D01*
X28779Y-49606D01*
X28779Y-49606D01*
X28566Y-49606D01*
X28531Y-49641D01*
X28531Y-49696D01*
X28531Y-49752D01*
X28552Y-49803D01*
X28591Y-49843D01*
X28643Y-49864D01*
X28744Y-49864D01*
X28779Y-49829D01*
X28779Y-50013D01*
X28744Y-49978D01*
X28643Y-49978D01*
X28591Y-49999D01*
X28552Y-50038D01*
X28531Y-50090D01*
X28531Y-50145D01*
X28531Y-50201D01*
X28566Y-50236D01*
X28779Y-50236D01*
X28779Y-50236D01*
X28566Y-50236D01*
X28531Y-50271D01*
X28531Y-50326D01*
X28531Y-50382D01*
X28552Y-50433D01*
X28591Y-50472D01*
X28631Y-50489D01*
X28487Y-50489D01*
X28487Y-50354D01*
X28487Y-49099D01*
X28528Y-49057D01*
X29968Y-49057D01*
X29968Y-49082D01*
X29968Y-49082D01*
G37*
G54D37*
X29968Y-49082D02*
X29958Y-49129D01*
X29958Y-49250D01*
X29837Y-49250D01*
X29776Y-49262D01*
X29725Y-49296D01*
X29690Y-49348D01*
X29678Y-49409D01*
X29690Y-49470D01*
X29693Y-49474D01*
X29676Y-49498D01*
X29665Y-49538D01*
X29698Y-49566D01*
X29827Y-49566D01*
X29828Y-49566D01*
X29827Y-49567D01*
X29698Y-49567D01*
X29689Y-49574D01*
X29609Y-49574D01*
X29535Y-49500D01*
X29486Y-49467D01*
X29480Y-49466D01*
X29480Y-49464D01*
X29461Y-49420D01*
X29428Y-49386D01*
X29384Y-49368D01*
X29336Y-49368D01*
X29119Y-49368D01*
X29075Y-49386D01*
X29042Y-49420D01*
X29026Y-49457D01*
X29006Y-49408D01*
X28967Y-49369D01*
X28915Y-49348D01*
X28814Y-49348D01*
X28779Y-49383D01*
X28779Y-49606D01*
X28787Y-49606D01*
X28787Y-49606D01*
X28779Y-49606D01*
X28779Y-49829D01*
X28814Y-49864D01*
X28915Y-49864D01*
X28967Y-49843D01*
X29006Y-49803D01*
X29026Y-49755D01*
X29042Y-49792D01*
X29075Y-49826D01*
X29119Y-49844D01*
X29167Y-49844D01*
X29384Y-49844D01*
X29428Y-49826D01*
X29432Y-49821D01*
X29441Y-49830D01*
X29489Y-49862D01*
X29547Y-49874D01*
X29689Y-49874D01*
X29698Y-49881D01*
X29827Y-49881D01*
X29828Y-49881D01*
X29827Y-49882D01*
X29698Y-49882D01*
X29689Y-49889D01*
X29448Y-49889D01*
X29391Y-49900D01*
X29342Y-49933D01*
X29277Y-49998D01*
X29119Y-49998D01*
X29075Y-50016D01*
X29042Y-50050D01*
X29026Y-50087D01*
X29006Y-50038D01*
X28967Y-49999D01*
X28915Y-49978D01*
X28814Y-49978D01*
X28779Y-50013D01*
X28779Y-50236D01*
X28787Y-50236D01*
X28787Y-50236D01*
X28779Y-50236D01*
X28779Y-50244D01*
X28779Y-50244D01*
X28779Y-50236D01*
X28779Y-50236D01*
X28779Y-50013D01*
X28779Y-49829D01*
X28779Y-49606D01*
X28779Y-49606D01*
X28779Y-49383D01*
X28744Y-49348D01*
X28643Y-49348D01*
X28591Y-49369D01*
X28552Y-49408D01*
X28531Y-49460D01*
X28531Y-49516D01*
X28531Y-49571D01*
X28566Y-49606D01*
X28779Y-49606D01*
X28779Y-49606D01*
X28566Y-49606D01*
X28531Y-49641D01*
X28531Y-49696D01*
X28531Y-49752D01*
X28552Y-49803D01*
X28591Y-49843D01*
X28643Y-49864D01*
X28744Y-49864D01*
X28779Y-49829D01*
X28779Y-50013D01*
X28744Y-49978D01*
X28643Y-49978D01*
X28591Y-49999D01*
X28552Y-50038D01*
X28531Y-50090D01*
X28531Y-50145D01*
X28531Y-50201D01*
X28566Y-50236D01*
X28779Y-50236D01*
X28779Y-50236D01*
X28566Y-50236D01*
X28531Y-50271D01*
X28531Y-50326D01*
X28531Y-50382D01*
X28552Y-50433D01*
X28591Y-50472D01*
X28631Y-50489D01*
X28487Y-50489D01*
X28487Y-50354D01*
X28487Y-49099D01*
X28528Y-49057D01*
X29968Y-49057D01*
X29968Y-49082D01*
G54D10*
G36*
X31346Y-49497D02*
X31330Y-49474D01*
X31332Y-49470D01*
X31345Y-49409D01*
X31332Y-49348D01*
X31298Y-49296D01*
X31246Y-49262D01*
X31185Y-49250D01*
X31084Y-49250D01*
X31084Y-49212D01*
X30907Y-49212D01*
X30907Y-49212D01*
X31084Y-49212D01*
X31084Y-49133D01*
X31071Y-49065D01*
X31032Y-49006D01*
X30973Y-48968D01*
X30933Y-48956D01*
X30905Y-48989D01*
X30905Y-49120D01*
X30905Y-49118D01*
X30905Y-48989D01*
X30877Y-48956D01*
X30837Y-48968D01*
X30812Y-48984D01*
X30809Y-48981D01*
X30748Y-48969D01*
X30687Y-48981D01*
X30669Y-48993D01*
X30651Y-48981D01*
X30590Y-48969D01*
X30529Y-48981D01*
X30511Y-48993D01*
X30494Y-48981D01*
X30433Y-48969D01*
X30372Y-48981D01*
X30354Y-48993D01*
X30336Y-48981D01*
X30275Y-48969D01*
X30267Y-48971D01*
X30256Y-48918D01*
X30246Y-48903D01*
X30416Y-48732D01*
X31000Y-48732D01*
X31346Y-49077D01*
X31346Y-49497D01*
X31346Y-49497D01*
G37*
G54D37*
X31346Y-49497D02*
X31330Y-49474D01*
X31332Y-49470D01*
X31345Y-49409D01*
X31332Y-49348D01*
X31298Y-49296D01*
X31246Y-49262D01*
X31185Y-49250D01*
X31084Y-49250D01*
X31084Y-49212D01*
X30907Y-49212D01*
X30907Y-49212D01*
X31084Y-49212D01*
X31084Y-49133D01*
X31071Y-49065D01*
X31032Y-49006D01*
X30973Y-48968D01*
X30933Y-48956D01*
X30905Y-48989D01*
X30905Y-49120D01*
X30905Y-49118D01*
X30905Y-48989D01*
X30877Y-48956D01*
X30837Y-48968D01*
X30812Y-48984D01*
X30809Y-48981D01*
X30748Y-48969D01*
X30687Y-48981D01*
X30669Y-48993D01*
X30651Y-48981D01*
X30590Y-48969D01*
X30529Y-48981D01*
X30511Y-48993D01*
X30494Y-48981D01*
X30433Y-48969D01*
X30372Y-48981D01*
X30354Y-48993D01*
X30336Y-48981D01*
X30275Y-48969D01*
X30267Y-48971D01*
X30256Y-48918D01*
X30246Y-48903D01*
X30416Y-48732D01*
X31000Y-48732D01*
X31346Y-49077D01*
X31346Y-49497D01*
G54D10*
G36*
X33952Y-52131D02*
X33893Y-52131D01*
X33695Y-51934D01*
X33643Y-51899D01*
X33582Y-51887D01*
X30221Y-51887D01*
X30153Y-51818D01*
X30120Y-51805D01*
X30120Y-51604D01*
X30136Y-51597D01*
X30170Y-51564D01*
X30188Y-51519D01*
X30188Y-51472D01*
X30188Y-51235D01*
X30170Y-51191D01*
X30136Y-51158D01*
X30092Y-51139D01*
X30045Y-51139D01*
X29828Y-51139D01*
X29784Y-51158D01*
X29750Y-51191D01*
X29735Y-51229D01*
X29715Y-51180D01*
X29675Y-51141D01*
X29624Y-51119D01*
X29523Y-51119D01*
X29488Y-51154D01*
X29488Y-51377D01*
X29496Y-51377D01*
X29496Y-51378D01*
X29488Y-51378D01*
X29488Y-51601D01*
X29523Y-51636D01*
X29624Y-51636D01*
X29675Y-51614D01*
X29715Y-51575D01*
X29735Y-51526D01*
X29750Y-51564D01*
X29784Y-51597D01*
X29800Y-51604D01*
X29800Y-51864D01*
X29771Y-51894D01*
X29730Y-51993D01*
X29729Y-52100D01*
X29763Y-52182D01*
X29487Y-52182D01*
X29487Y-51601D01*
X29487Y-51378D01*
X29487Y-51377D01*
X29487Y-51154D01*
X29453Y-51119D01*
X29352Y-51119D01*
X29300Y-51141D01*
X29261Y-51180D01*
X29239Y-51232D01*
X29239Y-51287D01*
X29239Y-51342D01*
X29274Y-51377D01*
X29487Y-51377D01*
X29487Y-51378D01*
X29274Y-51378D01*
X29239Y-51413D01*
X29239Y-51468D01*
X29239Y-51523D01*
X29261Y-51575D01*
X29300Y-51614D01*
X29352Y-51636D01*
X29453Y-51636D01*
X29487Y-51601D01*
X29487Y-52182D01*
X29027Y-52182D01*
X29027Y-51523D01*
X29027Y-51468D01*
X29027Y-51413D01*
X29027Y-51342D01*
X29027Y-51287D01*
X29027Y-51232D01*
X29006Y-51180D01*
X28967Y-51141D01*
X28915Y-51119D01*
X28814Y-51119D01*
X28779Y-51154D01*
X28779Y-51377D01*
X28992Y-51377D01*
X29027Y-51342D01*
X29027Y-51413D01*
X28992Y-51378D01*
X28779Y-51378D01*
X28779Y-51601D01*
X28814Y-51636D01*
X28915Y-51636D01*
X28967Y-51614D01*
X29006Y-51575D01*
X29027Y-51523D01*
X29027Y-52182D01*
X28696Y-52182D01*
X28537Y-52023D01*
X28537Y-51954D01*
X28496Y-51855D01*
X28487Y-51845D01*
X28487Y-51594D01*
X28517Y-51564D01*
X28532Y-51526D01*
X28552Y-51575D01*
X28591Y-51614D01*
X28643Y-51636D01*
X28744Y-51636D01*
X28779Y-51601D01*
X28779Y-51378D01*
X28771Y-51378D01*
X28771Y-51377D01*
X28779Y-51377D01*
X28779Y-51154D01*
X28744Y-51119D01*
X28643Y-51119D01*
X28591Y-51141D01*
X28552Y-51180D01*
X28532Y-51229D01*
X28517Y-51191D01*
X28487Y-51161D01*
X28487Y-50849D01*
X29055Y-50849D01*
X29055Y-50849D01*
X29055Y-50849D01*
X29112Y-50837D01*
X29123Y-50835D01*
X29123Y-50835D01*
X29182Y-50796D01*
X29379Y-50599D01*
X29379Y-50599D01*
X29379Y-50599D01*
X29405Y-50560D01*
X29418Y-50541D01*
X29418Y-50541D01*
X29431Y-50472D01*
X29431Y-50472D01*
X29431Y-50472D01*
X29431Y-50452D01*
X29461Y-50422D01*
X29473Y-50394D01*
X29854Y-50775D01*
X29903Y-50807D01*
X29960Y-50819D01*
X30826Y-50819D01*
X30884Y-50807D01*
X30932Y-50775D01*
X31011Y-50696D01*
X31044Y-50647D01*
X31055Y-50590D01*
X31055Y-50524D01*
X31064Y-50477D01*
X31064Y-50356D01*
X31185Y-50356D01*
X31192Y-50354D01*
X31188Y-50358D01*
X31147Y-50457D01*
X31147Y-50565D01*
X31188Y-50664D01*
X31264Y-50740D01*
X31363Y-50781D01*
X31461Y-50781D01*
X31973Y-51294D01*
X31973Y-51294D01*
X32025Y-51328D01*
X32086Y-51341D01*
X33162Y-51341D01*
X33952Y-52131D01*
X33952Y-52131D01*
G37*
G54D37*
X33952Y-52131D02*
X33893Y-52131D01*
X33695Y-51934D01*
X33643Y-51899D01*
X33582Y-51887D01*
X30221Y-51887D01*
X30153Y-51818D01*
X30120Y-51805D01*
X30120Y-51604D01*
X30136Y-51597D01*
X30170Y-51564D01*
X30188Y-51519D01*
X30188Y-51472D01*
X30188Y-51235D01*
X30170Y-51191D01*
X30136Y-51158D01*
X30092Y-51139D01*
X30045Y-51139D01*
X29828Y-51139D01*
X29784Y-51158D01*
X29750Y-51191D01*
X29735Y-51229D01*
X29715Y-51180D01*
X29675Y-51141D01*
X29624Y-51119D01*
X29523Y-51119D01*
X29488Y-51154D01*
X29488Y-51377D01*
X29496Y-51377D01*
X29496Y-51378D01*
X29488Y-51378D01*
X29488Y-51601D01*
X29523Y-51636D01*
X29624Y-51636D01*
X29675Y-51614D01*
X29715Y-51575D01*
X29735Y-51526D01*
X29750Y-51564D01*
X29784Y-51597D01*
X29800Y-51604D01*
X29800Y-51864D01*
X29771Y-51894D01*
X29730Y-51993D01*
X29729Y-52100D01*
X29763Y-52182D01*
X29487Y-52182D01*
X29487Y-51601D01*
X29487Y-51378D01*
X29487Y-51377D01*
X29487Y-51154D01*
X29453Y-51119D01*
X29352Y-51119D01*
X29300Y-51141D01*
X29261Y-51180D01*
X29239Y-51232D01*
X29239Y-51287D01*
X29239Y-51342D01*
X29274Y-51377D01*
X29487Y-51377D01*
X29487Y-51378D01*
X29274Y-51378D01*
X29239Y-51413D01*
X29239Y-51468D01*
X29239Y-51523D01*
X29261Y-51575D01*
X29300Y-51614D01*
X29352Y-51636D01*
X29453Y-51636D01*
X29487Y-51601D01*
X29487Y-52182D01*
X29027Y-52182D01*
X29027Y-51523D01*
X29027Y-51468D01*
X29027Y-51413D01*
X29027Y-51342D01*
X29027Y-51287D01*
X29027Y-51232D01*
X29006Y-51180D01*
X28967Y-51141D01*
X28915Y-51119D01*
X28814Y-51119D01*
X28779Y-51154D01*
X28779Y-51377D01*
X28992Y-51377D01*
X29027Y-51342D01*
X29027Y-51413D01*
X28992Y-51378D01*
X28779Y-51378D01*
X28779Y-51601D01*
X28814Y-51636D01*
X28915Y-51636D01*
X28967Y-51614D01*
X29006Y-51575D01*
X29027Y-51523D01*
X29027Y-52182D01*
X28696Y-52182D01*
X28537Y-52023D01*
X28537Y-51954D01*
X28496Y-51855D01*
X28487Y-51845D01*
X28487Y-51594D01*
X28517Y-51564D01*
X28532Y-51526D01*
X28552Y-51575D01*
X28591Y-51614D01*
X28643Y-51636D01*
X28744Y-51636D01*
X28779Y-51601D01*
X28779Y-51378D01*
X28771Y-51378D01*
X28771Y-51377D01*
X28779Y-51377D01*
X28779Y-51154D01*
X28744Y-51119D01*
X28643Y-51119D01*
X28591Y-51141D01*
X28552Y-51180D01*
X28532Y-51229D01*
X28517Y-51191D01*
X28487Y-51161D01*
X28487Y-50849D01*
X29055Y-50849D01*
X29055Y-50849D01*
X29055Y-50849D01*
X29112Y-50837D01*
X29123Y-50835D01*
X29123Y-50835D01*
X29182Y-50796D01*
X29379Y-50599D01*
X29379Y-50599D01*
X29379Y-50599D01*
X29405Y-50560D01*
X29418Y-50541D01*
X29418Y-50541D01*
X29431Y-50472D01*
X29431Y-50472D01*
X29431Y-50472D01*
X29431Y-50452D01*
X29461Y-50422D01*
X29473Y-50394D01*
X29854Y-50775D01*
X29903Y-50807D01*
X29960Y-50819D01*
X30826Y-50819D01*
X30884Y-50807D01*
X30932Y-50775D01*
X31011Y-50696D01*
X31044Y-50647D01*
X31055Y-50590D01*
X31055Y-50524D01*
X31064Y-50477D01*
X31064Y-50356D01*
X31185Y-50356D01*
X31192Y-50354D01*
X31188Y-50358D01*
X31147Y-50457D01*
X31147Y-50565D01*
X31188Y-50664D01*
X31264Y-50740D01*
X31363Y-50781D01*
X31461Y-50781D01*
X31973Y-51294D01*
X31973Y-51294D01*
X32025Y-51328D01*
X32086Y-51341D01*
X33162Y-51341D01*
X33952Y-52131D01*
G54D10*
G36*
X34417Y-49212D02*
X34409Y-49212D01*
X34409Y-49220D01*
X34409Y-49220D01*
X34409Y-49212D01*
X34409Y-49212D01*
X34409Y-49041D01*
X34409Y-48989D01*
X34409Y-48819D01*
X34196Y-48819D01*
X34161Y-48854D01*
X34161Y-48909D01*
X34161Y-48964D01*
X34182Y-49015D01*
X34161Y-49066D01*
X34161Y-49122D01*
X34161Y-49177D01*
X34196Y-49212D01*
X34409Y-49212D01*
X34409Y-49212D01*
X34196Y-49212D01*
X34161Y-49247D01*
X34161Y-49302D01*
X34161Y-49358D01*
X34182Y-49409D01*
X34197Y-49424D01*
X34181Y-49464D01*
X34181Y-49512D01*
X34181Y-49748D01*
X34199Y-49792D01*
X34233Y-49826D01*
X34249Y-49832D01*
X34249Y-50928D01*
X34207Y-50911D01*
X34109Y-50911D01*
X33971Y-50772D01*
X33971Y-50772D01*
X33774Y-50575D01*
X33722Y-50541D01*
X33661Y-50529D01*
X32898Y-50529D01*
X32830Y-50460D01*
X32731Y-50419D01*
X32623Y-50418D01*
X32524Y-50459D01*
X32448Y-50535D01*
X32407Y-50635D01*
X32407Y-50742D01*
X32422Y-50778D01*
X32238Y-50594D01*
X32238Y-50497D01*
X32212Y-50434D01*
X32376Y-50434D01*
X32420Y-50416D01*
X32454Y-50382D01*
X32464Y-50356D01*
X32480Y-50356D01*
X32480Y-50356D01*
X32541Y-50344D01*
X32593Y-50309D01*
X32633Y-50269D01*
X32730Y-50270D01*
X32829Y-50228D01*
X32905Y-50153D01*
X32947Y-50053D01*
X32947Y-49946D01*
X32906Y-49847D01*
X32830Y-49771D01*
X32731Y-49730D01*
X32633Y-49730D01*
X32593Y-49690D01*
X32541Y-49655D01*
X32480Y-49643D01*
X32464Y-49643D01*
X32455Y-49619D01*
X32472Y-49601D01*
X32514Y-49502D01*
X32514Y-49395D01*
X32473Y-49296D01*
X32404Y-49226D01*
X32404Y-47244D01*
X32391Y-47182D01*
X32357Y-47130D01*
X32357Y-47130D01*
X31422Y-46195D01*
X31370Y-46161D01*
X31309Y-46149D01*
X31212Y-46149D01*
X31212Y-45949D01*
X31212Y-45901D01*
X31212Y-45684D01*
X31212Y-45456D01*
X31212Y-45409D01*
X31212Y-45192D01*
X31194Y-45148D01*
X31160Y-45114D01*
X31116Y-45096D01*
X31068Y-45096D01*
X30694Y-45096D01*
X30650Y-45114D01*
X30616Y-45148D01*
X30598Y-45192D01*
X30598Y-45240D01*
X30598Y-45456D01*
X30616Y-45501D01*
X30650Y-45534D01*
X30694Y-45553D01*
X30742Y-45553D01*
X31116Y-45553D01*
X31160Y-45534D01*
X31194Y-45501D01*
X31212Y-45456D01*
X31212Y-45684D01*
X31194Y-45640D01*
X31160Y-45606D01*
X31116Y-45588D01*
X31068Y-45588D01*
X30694Y-45588D01*
X30650Y-45606D01*
X30616Y-45640D01*
X30598Y-45684D01*
X30598Y-45732D01*
X30598Y-45949D01*
X30616Y-45993D01*
X30650Y-46026D01*
X30694Y-46045D01*
X30742Y-46045D01*
X31116Y-46045D01*
X31160Y-46026D01*
X31194Y-45993D01*
X31212Y-45949D01*
X31212Y-46149D01*
X31200Y-46149D01*
X31194Y-46132D01*
X31160Y-46099D01*
X31116Y-46080D01*
X31068Y-46080D01*
X30694Y-46080D01*
X30650Y-46099D01*
X30616Y-46132D01*
X30598Y-46176D01*
X30598Y-46224D01*
X30598Y-46441D01*
X30616Y-46485D01*
X30650Y-46519D01*
X30694Y-46537D01*
X30742Y-46537D01*
X31116Y-46537D01*
X31160Y-46519D01*
X31194Y-46485D01*
X31200Y-46469D01*
X31242Y-46469D01*
X31426Y-46652D01*
X31368Y-46641D01*
X31200Y-46641D01*
X31194Y-46624D01*
X31160Y-46591D01*
X31116Y-46572D01*
X31068Y-46572D01*
X30694Y-46572D01*
X30650Y-46591D01*
X30616Y-46624D01*
X30598Y-46669D01*
X30598Y-46716D01*
X30598Y-46933D01*
X30616Y-46977D01*
X30650Y-47011D01*
X30694Y-47029D01*
X30742Y-47029D01*
X31116Y-47029D01*
X31160Y-47011D01*
X31194Y-46977D01*
X31200Y-46961D01*
X31301Y-46961D01*
X31611Y-47270D01*
X31611Y-48924D01*
X31602Y-48909D01*
X31169Y-48476D01*
X31120Y-48444D01*
X31062Y-48432D01*
X30830Y-48432D01*
X30904Y-48359D01*
X30960Y-48223D01*
X30960Y-48076D01*
X30904Y-47940D01*
X30800Y-47836D01*
X30664Y-47779D01*
X30517Y-47779D01*
X30445Y-47809D01*
X30445Y-45953D01*
X30445Y-45897D01*
X30445Y-45852D01*
X30445Y-45781D01*
X30445Y-45736D01*
X30445Y-45680D01*
X30423Y-45629D01*
X30384Y-45590D01*
X30332Y-45568D01*
X30153Y-45568D01*
X30118Y-45603D01*
X30118Y-45816D01*
X30410Y-45816D01*
X30445Y-45781D01*
X30445Y-45852D01*
X30410Y-45817D01*
X30118Y-45817D01*
X30118Y-46030D01*
X30153Y-46065D01*
X30332Y-46065D01*
X30384Y-46043D01*
X30423Y-46004D01*
X30445Y-45953D01*
X30445Y-47809D01*
X30381Y-47835D01*
X30277Y-47939D01*
X30220Y-48075D01*
X30220Y-48222D01*
X30276Y-48358D01*
X30351Y-48433D01*
X30296Y-48444D01*
X30248Y-48476D01*
X29987Y-48737D01*
X28528Y-48737D01*
X28487Y-48695D01*
X28487Y-46981D01*
X29833Y-46981D01*
X29863Y-47011D01*
X29907Y-47029D01*
X29954Y-47029D01*
X30328Y-47029D01*
X30373Y-47011D01*
X30406Y-46977D01*
X30425Y-46933D01*
X30425Y-46885D01*
X30425Y-46669D01*
X30425Y-46441D01*
X30425Y-46393D01*
X30425Y-46176D01*
X30406Y-46132D01*
X30373Y-46099D01*
X30328Y-46080D01*
X30281Y-46080D01*
X30117Y-46080D01*
X30117Y-46030D01*
X30117Y-45817D01*
X30117Y-45816D01*
X30117Y-45603D01*
X30082Y-45568D01*
X29903Y-45568D01*
X29851Y-45590D01*
X29812Y-45629D01*
X29791Y-45680D01*
X29791Y-45736D01*
X29791Y-45781D01*
X29826Y-45816D01*
X30117Y-45816D01*
X30117Y-45817D01*
X29826Y-45817D01*
X29791Y-45852D01*
X29791Y-45897D01*
X29791Y-45953D01*
X29812Y-46004D01*
X29851Y-46043D01*
X29903Y-46065D01*
X30082Y-46065D01*
X30117Y-46030D01*
X30117Y-46080D01*
X29907Y-46080D01*
X29863Y-46099D01*
X29829Y-46132D01*
X29822Y-46149D01*
X29598Y-46149D01*
X29598Y-46117D01*
X29580Y-46073D01*
X29546Y-46040D01*
X29502Y-46021D01*
X29454Y-46021D01*
X29237Y-46021D01*
X29193Y-46040D01*
X29160Y-46073D01*
X29144Y-46111D01*
X29124Y-46062D01*
X29085Y-46023D01*
X29033Y-46001D01*
X28932Y-46001D01*
X28897Y-46036D01*
X28897Y-46259D01*
X28905Y-46259D01*
X28905Y-46260D01*
X28897Y-46260D01*
X28897Y-46482D01*
X28932Y-46517D01*
X29033Y-46517D01*
X29085Y-46496D01*
X29124Y-46457D01*
X29144Y-46408D01*
X29160Y-46445D01*
X29193Y-46479D01*
X29237Y-46497D01*
X29285Y-46497D01*
X29502Y-46497D01*
X29546Y-46479D01*
X29556Y-46469D01*
X29822Y-46469D01*
X29829Y-46485D01*
X29863Y-46519D01*
X29907Y-46537D01*
X29954Y-46537D01*
X30328Y-46537D01*
X30373Y-46519D01*
X30406Y-46485D01*
X30425Y-46441D01*
X30425Y-46669D01*
X30406Y-46624D01*
X30373Y-46591D01*
X30328Y-46572D01*
X30281Y-46572D01*
X29907Y-46572D01*
X29863Y-46591D01*
X29833Y-46621D01*
X28897Y-46621D01*
X28897Y-46482D01*
X28897Y-46260D01*
X28897Y-46259D01*
X28897Y-46036D01*
X28897Y-45498D01*
X28897Y-45275D01*
X28684Y-45275D01*
X28649Y-45310D01*
X28649Y-45365D01*
X28649Y-45421D01*
X28670Y-45472D01*
X28710Y-45512D01*
X28761Y-45533D01*
X28862Y-45533D01*
X28897Y-45498D01*
X28897Y-46036D01*
X28862Y-46001D01*
X28761Y-46001D01*
X28710Y-46023D01*
X28670Y-46062D01*
X28649Y-46113D01*
X28649Y-46169D01*
X28649Y-46224D01*
X28684Y-46259D01*
X28897Y-46259D01*
X28897Y-46260D01*
X28684Y-46260D01*
X28649Y-46295D01*
X28649Y-46350D01*
X28649Y-46405D01*
X28670Y-46457D01*
X28710Y-46496D01*
X28761Y-46517D01*
X28862Y-46517D01*
X28897Y-46482D01*
X28897Y-46621D01*
X28487Y-46621D01*
X28487Y-45113D01*
X28578Y-45022D01*
X28749Y-45022D01*
X28710Y-45038D01*
X28670Y-45078D01*
X28649Y-45129D01*
X28649Y-45185D01*
X28649Y-45240D01*
X28684Y-45275D01*
X28897Y-45275D01*
X28897Y-45267D01*
X28897Y-45267D01*
X28897Y-45275D01*
X28905Y-45275D01*
X28905Y-45275D01*
X28897Y-45275D01*
X28897Y-45498D01*
X28932Y-45533D01*
X29033Y-45533D01*
X29085Y-45512D01*
X29124Y-45472D01*
X29144Y-45424D01*
X29160Y-45461D01*
X29193Y-45495D01*
X29237Y-45513D01*
X29285Y-45513D01*
X29502Y-45513D01*
X29546Y-45495D01*
X29566Y-45474D01*
X29818Y-45474D01*
X29829Y-45501D01*
X29863Y-45534D01*
X29907Y-45553D01*
X29954Y-45553D01*
X30328Y-45553D01*
X30373Y-45534D01*
X30406Y-45501D01*
X30425Y-45456D01*
X30425Y-45409D01*
X30425Y-45192D01*
X30406Y-45148D01*
X30373Y-45114D01*
X30328Y-45096D01*
X30281Y-45096D01*
X29907Y-45096D01*
X29863Y-45114D01*
X29829Y-45148D01*
X29818Y-45174D01*
X29598Y-45174D01*
X29598Y-45133D01*
X29580Y-45089D01*
X29550Y-45059D01*
X29550Y-45022D01*
X31264Y-45022D01*
X33219Y-46977D01*
X33219Y-46977D01*
X33277Y-47016D01*
X33277Y-47016D01*
X33289Y-47018D01*
X33346Y-47030D01*
X33346Y-47030D01*
X33346Y-47030D01*
X33887Y-47030D01*
X33826Y-47090D01*
X33785Y-47190D01*
X33785Y-47297D01*
X33826Y-47396D01*
X33870Y-47440D01*
X33826Y-47484D01*
X33785Y-47583D01*
X33785Y-47691D01*
X33826Y-47790D01*
X33870Y-47834D01*
X33826Y-47878D01*
X33785Y-47977D01*
X33785Y-48084D01*
X33826Y-48184D01*
X33870Y-48228D01*
X33826Y-48272D01*
X33785Y-48371D01*
X33785Y-48478D01*
X33826Y-48577D01*
X33901Y-48653D01*
X34001Y-48695D01*
X34108Y-48695D01*
X34161Y-48673D01*
X34161Y-48728D01*
X34161Y-48783D01*
X34196Y-48818D01*
X34409Y-48818D01*
X34409Y-48810D01*
X34409Y-48810D01*
X34409Y-48818D01*
X34417Y-48818D01*
X34417Y-48819D01*
X34409Y-48819D01*
X34409Y-48989D01*
X34409Y-49041D01*
X34409Y-49212D01*
X34417Y-49212D01*
X34417Y-49212D01*
X34417Y-49212D01*
G37*
G54D37*
X34417Y-49212D02*
X34409Y-49212D01*
X34409Y-49220D01*
X34409Y-49220D01*
X34409Y-49212D01*
X34409Y-49212D01*
X34409Y-49041D01*
X34409Y-48989D01*
X34409Y-48819D01*
X34196Y-48819D01*
X34161Y-48854D01*
X34161Y-48909D01*
X34161Y-48964D01*
X34182Y-49015D01*
X34161Y-49066D01*
X34161Y-49122D01*
X34161Y-49177D01*
X34196Y-49212D01*
X34409Y-49212D01*
X34409Y-49212D01*
X34196Y-49212D01*
X34161Y-49247D01*
X34161Y-49302D01*
X34161Y-49358D01*
X34182Y-49409D01*
X34197Y-49424D01*
X34181Y-49464D01*
X34181Y-49512D01*
X34181Y-49748D01*
X34199Y-49792D01*
X34233Y-49826D01*
X34249Y-49832D01*
X34249Y-50928D01*
X34207Y-50911D01*
X34109Y-50911D01*
X33971Y-50772D01*
X33971Y-50772D01*
X33774Y-50575D01*
X33722Y-50541D01*
X33661Y-50529D01*
X32898Y-50529D01*
X32830Y-50460D01*
X32731Y-50419D01*
X32623Y-50418D01*
X32524Y-50459D01*
X32448Y-50535D01*
X32407Y-50635D01*
X32407Y-50742D01*
X32422Y-50778D01*
X32238Y-50594D01*
X32238Y-50497D01*
X32212Y-50434D01*
X32376Y-50434D01*
X32420Y-50416D01*
X32454Y-50382D01*
X32464Y-50356D01*
X32480Y-50356D01*
X32480Y-50356D01*
X32541Y-50344D01*
X32593Y-50309D01*
X32633Y-50269D01*
X32730Y-50270D01*
X32829Y-50228D01*
X32905Y-50153D01*
X32947Y-50053D01*
X32947Y-49946D01*
X32906Y-49847D01*
X32830Y-49771D01*
X32731Y-49730D01*
X32633Y-49730D01*
X32593Y-49690D01*
X32541Y-49655D01*
X32480Y-49643D01*
X32464Y-49643D01*
X32455Y-49619D01*
X32472Y-49601D01*
X32514Y-49502D01*
X32514Y-49395D01*
X32473Y-49296D01*
X32404Y-49226D01*
X32404Y-47244D01*
X32391Y-47182D01*
X32357Y-47130D01*
X32357Y-47130D01*
X31422Y-46195D01*
X31370Y-46161D01*
X31309Y-46149D01*
X31212Y-46149D01*
X31212Y-45949D01*
X31212Y-45901D01*
X31212Y-45684D01*
X31212Y-45456D01*
X31212Y-45409D01*
X31212Y-45192D01*
X31194Y-45148D01*
X31160Y-45114D01*
X31116Y-45096D01*
X31068Y-45096D01*
X30694Y-45096D01*
X30650Y-45114D01*
X30616Y-45148D01*
X30598Y-45192D01*
X30598Y-45240D01*
X30598Y-45456D01*
X30616Y-45501D01*
X30650Y-45534D01*
X30694Y-45553D01*
X30742Y-45553D01*
X31116Y-45553D01*
X31160Y-45534D01*
X31194Y-45501D01*
X31212Y-45456D01*
X31212Y-45684D01*
X31194Y-45640D01*
X31160Y-45606D01*
X31116Y-45588D01*
X31068Y-45588D01*
X30694Y-45588D01*
X30650Y-45606D01*
X30616Y-45640D01*
X30598Y-45684D01*
X30598Y-45732D01*
X30598Y-45949D01*
X30616Y-45993D01*
X30650Y-46026D01*
X30694Y-46045D01*
X30742Y-46045D01*
X31116Y-46045D01*
X31160Y-46026D01*
X31194Y-45993D01*
X31212Y-45949D01*
X31212Y-46149D01*
X31200Y-46149D01*
X31194Y-46132D01*
X31160Y-46099D01*
X31116Y-46080D01*
X31068Y-46080D01*
X30694Y-46080D01*
X30650Y-46099D01*
X30616Y-46132D01*
X30598Y-46176D01*
X30598Y-46224D01*
X30598Y-46441D01*
X30616Y-46485D01*
X30650Y-46519D01*
X30694Y-46537D01*
X30742Y-46537D01*
X31116Y-46537D01*
X31160Y-46519D01*
X31194Y-46485D01*
X31200Y-46469D01*
X31242Y-46469D01*
X31426Y-46652D01*
X31368Y-46641D01*
X31200Y-46641D01*
X31194Y-46624D01*
X31160Y-46591D01*
X31116Y-46572D01*
X31068Y-46572D01*
X30694Y-46572D01*
X30650Y-46591D01*
X30616Y-46624D01*
X30598Y-46669D01*
X30598Y-46716D01*
X30598Y-46933D01*
X30616Y-46977D01*
X30650Y-47011D01*
X30694Y-47029D01*
X30742Y-47029D01*
X31116Y-47029D01*
X31160Y-47011D01*
X31194Y-46977D01*
X31200Y-46961D01*
X31301Y-46961D01*
X31611Y-47270D01*
X31611Y-48924D01*
X31602Y-48909D01*
X31169Y-48476D01*
X31120Y-48444D01*
X31062Y-48432D01*
X30830Y-48432D01*
X30904Y-48359D01*
X30960Y-48223D01*
X30960Y-48076D01*
X30904Y-47940D01*
X30800Y-47836D01*
X30664Y-47779D01*
X30517Y-47779D01*
X30445Y-47809D01*
X30445Y-45953D01*
X30445Y-45897D01*
X30445Y-45852D01*
X30445Y-45781D01*
X30445Y-45736D01*
X30445Y-45680D01*
X30423Y-45629D01*
X30384Y-45590D01*
X30332Y-45568D01*
X30153Y-45568D01*
X30118Y-45603D01*
X30118Y-45816D01*
X30410Y-45816D01*
X30445Y-45781D01*
X30445Y-45852D01*
X30410Y-45817D01*
X30118Y-45817D01*
X30118Y-46030D01*
X30153Y-46065D01*
X30332Y-46065D01*
X30384Y-46043D01*
X30423Y-46004D01*
X30445Y-45953D01*
X30445Y-47809D01*
X30381Y-47835D01*
X30277Y-47939D01*
X30220Y-48075D01*
X30220Y-48222D01*
X30276Y-48358D01*
X30351Y-48433D01*
X30296Y-48444D01*
X30248Y-48476D01*
X29987Y-48737D01*
X28528Y-48737D01*
X28487Y-48695D01*
X28487Y-46981D01*
X29833Y-46981D01*
X29863Y-47011D01*
X29907Y-47029D01*
X29954Y-47029D01*
X30328Y-47029D01*
X30373Y-47011D01*
X30406Y-46977D01*
X30425Y-46933D01*
X30425Y-46885D01*
X30425Y-46669D01*
X30425Y-46441D01*
X30425Y-46393D01*
X30425Y-46176D01*
X30406Y-46132D01*
X30373Y-46099D01*
X30328Y-46080D01*
X30281Y-46080D01*
X30117Y-46080D01*
X30117Y-46030D01*
X30117Y-45817D01*
X30117Y-45816D01*
X30117Y-45603D01*
X30082Y-45568D01*
X29903Y-45568D01*
X29851Y-45590D01*
X29812Y-45629D01*
X29791Y-45680D01*
X29791Y-45736D01*
X29791Y-45781D01*
X29826Y-45816D01*
X30117Y-45816D01*
X30117Y-45817D01*
X29826Y-45817D01*
X29791Y-45852D01*
X29791Y-45897D01*
X29791Y-45953D01*
X29812Y-46004D01*
X29851Y-46043D01*
X29903Y-46065D01*
X30082Y-46065D01*
X30117Y-46030D01*
X30117Y-46080D01*
X29907Y-46080D01*
X29863Y-46099D01*
X29829Y-46132D01*
X29822Y-46149D01*
X29598Y-46149D01*
X29598Y-46117D01*
X29580Y-46073D01*
X29546Y-46040D01*
X29502Y-46021D01*
X29454Y-46021D01*
X29237Y-46021D01*
X29193Y-46040D01*
X29160Y-46073D01*
X29144Y-46111D01*
X29124Y-46062D01*
X29085Y-46023D01*
X29033Y-46001D01*
X28932Y-46001D01*
X28897Y-46036D01*
X28897Y-46259D01*
X28905Y-46259D01*
X28905Y-46260D01*
X28897Y-46260D01*
X28897Y-46482D01*
X28932Y-46517D01*
X29033Y-46517D01*
X29085Y-46496D01*
X29124Y-46457D01*
X29144Y-46408D01*
X29160Y-46445D01*
X29193Y-46479D01*
X29237Y-46497D01*
X29285Y-46497D01*
X29502Y-46497D01*
X29546Y-46479D01*
X29556Y-46469D01*
X29822Y-46469D01*
X29829Y-46485D01*
X29863Y-46519D01*
X29907Y-46537D01*
X29954Y-46537D01*
X30328Y-46537D01*
X30373Y-46519D01*
X30406Y-46485D01*
X30425Y-46441D01*
X30425Y-46669D01*
X30406Y-46624D01*
X30373Y-46591D01*
X30328Y-46572D01*
X30281Y-46572D01*
X29907Y-46572D01*
X29863Y-46591D01*
X29833Y-46621D01*
X28897Y-46621D01*
X28897Y-46482D01*
X28897Y-46260D01*
X28897Y-46259D01*
X28897Y-46036D01*
X28897Y-45498D01*
X28897Y-45275D01*
X28684Y-45275D01*
X28649Y-45310D01*
X28649Y-45365D01*
X28649Y-45421D01*
X28670Y-45472D01*
X28710Y-45512D01*
X28761Y-45533D01*
X28862Y-45533D01*
X28897Y-45498D01*
X28897Y-46036D01*
X28862Y-46001D01*
X28761Y-46001D01*
X28710Y-46023D01*
X28670Y-46062D01*
X28649Y-46113D01*
X28649Y-46169D01*
X28649Y-46224D01*
X28684Y-46259D01*
X28897Y-46259D01*
X28897Y-46260D01*
X28684Y-46260D01*
X28649Y-46295D01*
X28649Y-46350D01*
X28649Y-46405D01*
X28670Y-46457D01*
X28710Y-46496D01*
X28761Y-46517D01*
X28862Y-46517D01*
X28897Y-46482D01*
X28897Y-46621D01*
X28487Y-46621D01*
X28487Y-45113D01*
X28578Y-45022D01*
X28749Y-45022D01*
X28710Y-45038D01*
X28670Y-45078D01*
X28649Y-45129D01*
X28649Y-45185D01*
X28649Y-45240D01*
X28684Y-45275D01*
X28897Y-45275D01*
X28897Y-45267D01*
X28897Y-45267D01*
X28897Y-45275D01*
X28905Y-45275D01*
X28905Y-45275D01*
X28897Y-45275D01*
X28897Y-45498D01*
X28932Y-45533D01*
X29033Y-45533D01*
X29085Y-45512D01*
X29124Y-45472D01*
X29144Y-45424D01*
X29160Y-45461D01*
X29193Y-45495D01*
X29237Y-45513D01*
X29285Y-45513D01*
X29502Y-45513D01*
X29546Y-45495D01*
X29566Y-45474D01*
X29818Y-45474D01*
X29829Y-45501D01*
X29863Y-45534D01*
X29907Y-45553D01*
X29954Y-45553D01*
X30328Y-45553D01*
X30373Y-45534D01*
X30406Y-45501D01*
X30425Y-45456D01*
X30425Y-45409D01*
X30425Y-45192D01*
X30406Y-45148D01*
X30373Y-45114D01*
X30328Y-45096D01*
X30281Y-45096D01*
X29907Y-45096D01*
X29863Y-45114D01*
X29829Y-45148D01*
X29818Y-45174D01*
X29598Y-45174D01*
X29598Y-45133D01*
X29580Y-45089D01*
X29550Y-45059D01*
X29550Y-45022D01*
X31264Y-45022D01*
X33219Y-46977D01*
X33219Y-46977D01*
X33277Y-47016D01*
X33277Y-47016D01*
X33289Y-47018D01*
X33346Y-47030D01*
X33346Y-47030D01*
X33346Y-47030D01*
X33887Y-47030D01*
X33826Y-47090D01*
X33785Y-47190D01*
X33785Y-47297D01*
X33826Y-47396D01*
X33870Y-47440D01*
X33826Y-47484D01*
X33785Y-47583D01*
X33785Y-47691D01*
X33826Y-47790D01*
X33870Y-47834D01*
X33826Y-47878D01*
X33785Y-47977D01*
X33785Y-48084D01*
X33826Y-48184D01*
X33870Y-48228D01*
X33826Y-48272D01*
X33785Y-48371D01*
X33785Y-48478D01*
X33826Y-48577D01*
X33901Y-48653D01*
X34001Y-48695D01*
X34108Y-48695D01*
X34161Y-48673D01*
X34161Y-48728D01*
X34161Y-48783D01*
X34196Y-48818D01*
X34409Y-48818D01*
X34409Y-48810D01*
X34409Y-48810D01*
X34409Y-48818D01*
X34417Y-48818D01*
X34417Y-48819D01*
X34409Y-48819D01*
X34409Y-48989D01*
X34409Y-49041D01*
X34409Y-49212D01*
X34417Y-49212D01*
X34417Y-49212D01*
G54D10*
G36*
X36386Y-46257D02*
X36381Y-46257D01*
X36169Y-46257D01*
X36151Y-46265D01*
X36134Y-46225D01*
X36058Y-46149D01*
X35959Y-46108D01*
X35852Y-46107D01*
X35752Y-46148D01*
X35676Y-46224D01*
X35635Y-46324D01*
X35635Y-46431D01*
X35676Y-46530D01*
X35678Y-46532D01*
X35578Y-46532D01*
X35002Y-45957D01*
X35002Y-45929D01*
X35023Y-45920D01*
X35038Y-45935D01*
X35090Y-45956D01*
X35145Y-45956D01*
X35201Y-45956D01*
X35236Y-45921D01*
X35236Y-45708D01*
X35228Y-45708D01*
X35228Y-45708D01*
X35236Y-45708D01*
X35236Y-45700D01*
X35236Y-45700D01*
X35236Y-45708D01*
X35244Y-45708D01*
X35244Y-45708D01*
X35236Y-45708D01*
X35236Y-45921D01*
X35271Y-45956D01*
X35326Y-45956D01*
X35382Y-45956D01*
X35433Y-45935D01*
X35448Y-45920D01*
X35487Y-45936D01*
X35535Y-45936D01*
X35771Y-45936D01*
X35815Y-45918D01*
X35826Y-45907D01*
X35837Y-45918D01*
X35881Y-45936D01*
X35929Y-45936D01*
X36165Y-45936D01*
X36209Y-45918D01*
X36220Y-45907D01*
X36231Y-45918D01*
X36257Y-45929D01*
X36257Y-46062D01*
X36269Y-46124D01*
X36304Y-46176D01*
X36386Y-46257D01*
X36386Y-46257D01*
G37*
G54D37*
X36386Y-46257D02*
X36381Y-46257D01*
X36169Y-46257D01*
X36151Y-46265D01*
X36134Y-46225D01*
X36058Y-46149D01*
X35959Y-46108D01*
X35852Y-46107D01*
X35752Y-46148D01*
X35676Y-46224D01*
X35635Y-46324D01*
X35635Y-46431D01*
X35676Y-46530D01*
X35678Y-46532D01*
X35578Y-46532D01*
X35002Y-45957D01*
X35002Y-45929D01*
X35023Y-45920D01*
X35038Y-45935D01*
X35090Y-45956D01*
X35145Y-45956D01*
X35201Y-45956D01*
X35236Y-45921D01*
X35236Y-45708D01*
X35228Y-45708D01*
X35228Y-45708D01*
X35236Y-45708D01*
X35236Y-45700D01*
X35236Y-45700D01*
X35236Y-45708D01*
X35244Y-45708D01*
X35244Y-45708D01*
X35236Y-45708D01*
X35236Y-45921D01*
X35271Y-45956D01*
X35326Y-45956D01*
X35382Y-45956D01*
X35433Y-45935D01*
X35448Y-45920D01*
X35487Y-45936D01*
X35535Y-45936D01*
X35771Y-45936D01*
X35815Y-45918D01*
X35826Y-45907D01*
X35837Y-45918D01*
X35881Y-45936D01*
X35929Y-45936D01*
X36165Y-45936D01*
X36209Y-45918D01*
X36220Y-45907D01*
X36231Y-45918D01*
X36257Y-45929D01*
X36257Y-46062D01*
X36269Y-46124D01*
X36304Y-46176D01*
X36386Y-46257D01*
G54D10*
G36*
X39625Y-51570D02*
X39586Y-51570D01*
X39555Y-51570D01*
X39552Y-51568D01*
X39460Y-51550D01*
X39192Y-51550D01*
X39192Y-51090D01*
X39192Y-51034D01*
X39192Y-50822D01*
X39157Y-50787D01*
X38878Y-50787D01*
X38878Y-51167D01*
X38913Y-51202D01*
X39080Y-51202D01*
X39132Y-51181D01*
X39171Y-51141D01*
X39192Y-51090D01*
X39192Y-51550D01*
X38977Y-51550D01*
X38977Y-51474D01*
X38959Y-51430D01*
X38925Y-51396D01*
X38881Y-51378D01*
X38833Y-51378D01*
X38683Y-51378D01*
X38683Y-51202D01*
X38842Y-51202D01*
X38877Y-51167D01*
X38877Y-50787D01*
X38869Y-50787D01*
X38869Y-50787D01*
X38877Y-50787D01*
X38877Y-50407D01*
X38842Y-50372D01*
X38683Y-50372D01*
X38683Y-50174D01*
X38707Y-50151D01*
X38708Y-50152D01*
X38783Y-50228D01*
X38883Y-50269D01*
X38980Y-50269D01*
X39084Y-50374D01*
X39080Y-50372D01*
X38913Y-50372D01*
X38878Y-50407D01*
X38878Y-50787D01*
X39157Y-50787D01*
X39192Y-50752D01*
X39192Y-50540D01*
X39192Y-50484D01*
X39191Y-50480D01*
X39210Y-50499D01*
X39210Y-50590D01*
X39222Y-50651D01*
X39256Y-50703D01*
X39453Y-50900D01*
X39505Y-50935D01*
X39566Y-50947D01*
X39567Y-50947D01*
X39567Y-51086D01*
X39585Y-51130D01*
X39619Y-51164D01*
X39622Y-51165D01*
X39622Y-51555D01*
X39622Y-51555D01*
X39625Y-51570D01*
X39625Y-51570D01*
G37*
G54D37*
X39625Y-51570D02*
X39586Y-51570D01*
X39555Y-51570D01*
X39552Y-51568D01*
X39460Y-51550D01*
X39192Y-51550D01*
X39192Y-51090D01*
X39192Y-51034D01*
X39192Y-50822D01*
X39157Y-50787D01*
X38878Y-50787D01*
X38878Y-51167D01*
X38913Y-51202D01*
X39080Y-51202D01*
X39132Y-51181D01*
X39171Y-51141D01*
X39192Y-51090D01*
X39192Y-51550D01*
X38977Y-51550D01*
X38977Y-51474D01*
X38959Y-51430D01*
X38925Y-51396D01*
X38881Y-51378D01*
X38833Y-51378D01*
X38683Y-51378D01*
X38683Y-51202D01*
X38842Y-51202D01*
X38877Y-51167D01*
X38877Y-50787D01*
X38869Y-50787D01*
X38869Y-50787D01*
X38877Y-50787D01*
X38877Y-50407D01*
X38842Y-50372D01*
X38683Y-50372D01*
X38683Y-50174D01*
X38707Y-50151D01*
X38708Y-50152D01*
X38783Y-50228D01*
X38883Y-50269D01*
X38980Y-50269D01*
X39084Y-50374D01*
X39080Y-50372D01*
X38913Y-50372D01*
X38878Y-50407D01*
X38878Y-50787D01*
X39157Y-50787D01*
X39192Y-50752D01*
X39192Y-50540D01*
X39192Y-50484D01*
X39191Y-50480D01*
X39210Y-50499D01*
X39210Y-50590D01*
X39222Y-50651D01*
X39256Y-50703D01*
X39453Y-50900D01*
X39505Y-50935D01*
X39566Y-50947D01*
X39567Y-50947D01*
X39567Y-51086D01*
X39585Y-51130D01*
X39619Y-51164D01*
X39622Y-51165D01*
X39622Y-51555D01*
X39622Y-51555D01*
X39625Y-51570D01*
G54D10*
G36*
X41914Y-51537D02*
X41681Y-51770D01*
X41570Y-51770D01*
X41420Y-51620D01*
X41342Y-51568D01*
X41250Y-51550D01*
X41250Y-51550D01*
X40460Y-51550D01*
X40248Y-51550D01*
X40248Y-50145D01*
X40248Y-50090D01*
X40248Y-50035D01*
X40213Y-50000D01*
X40000Y-50000D01*
X40000Y-50223D01*
X40035Y-50258D01*
X40136Y-50258D01*
X40187Y-50236D01*
X40226Y-50197D01*
X40248Y-50145D01*
X40248Y-51550D01*
X40196Y-51550D01*
X40102Y-51455D01*
X40102Y-51165D01*
X40105Y-51164D01*
X40138Y-51130D01*
X40157Y-51086D01*
X40157Y-51038D01*
X40157Y-50488D01*
X40138Y-50444D01*
X40105Y-50410D01*
X40061Y-50392D01*
X40013Y-50392D01*
X39663Y-50392D01*
X39619Y-50410D01*
X39585Y-50444D01*
X39567Y-50488D01*
X39567Y-50536D01*
X39567Y-50561D01*
X39530Y-50524D01*
X39530Y-50433D01*
X39517Y-50371D01*
X39483Y-50319D01*
X39401Y-50238D01*
X39443Y-50238D01*
X39659Y-50238D01*
X39703Y-50219D01*
X39737Y-50186D01*
X39752Y-50148D01*
X39773Y-50197D01*
X39812Y-50236D01*
X39863Y-50258D01*
X39964Y-50258D01*
X39999Y-50223D01*
X39999Y-50000D01*
X39991Y-50000D01*
X39991Y-49999D01*
X39999Y-49999D01*
X39999Y-49776D01*
X39964Y-49741D01*
X39863Y-49741D01*
X39812Y-49763D01*
X39773Y-49802D01*
X39752Y-49851D01*
X39737Y-49813D01*
X39719Y-49795D01*
X39719Y-49795D01*
X39795Y-49720D01*
X39836Y-49620D01*
X39836Y-49513D01*
X39795Y-49414D01*
X39720Y-49338D01*
X39620Y-49297D01*
X39513Y-49296D01*
X39414Y-49337D01*
X39389Y-49363D01*
X39356Y-49330D01*
X39084Y-49330D01*
X39084Y-49338D01*
X39084Y-49338D01*
X39084Y-49330D01*
X38812Y-49330D01*
X38777Y-49365D01*
X38777Y-49464D01*
X38780Y-49473D01*
X38761Y-49477D01*
X38750Y-49479D01*
X38691Y-49518D01*
X38691Y-49518D01*
X38585Y-49624D01*
X38373Y-49624D01*
X38346Y-49635D01*
X38319Y-49624D01*
X38271Y-49624D01*
X38058Y-49624D01*
X38031Y-49635D01*
X38004Y-49624D01*
X37956Y-49624D01*
X37743Y-49624D01*
X37719Y-49634D01*
X37719Y-49566D01*
X37706Y-49505D01*
X37672Y-49453D01*
X37672Y-49453D01*
X36982Y-48764D01*
X36982Y-48667D01*
X36941Y-48567D01*
X36874Y-48500D01*
X36885Y-48496D01*
X36961Y-48420D01*
X37002Y-48321D01*
X37002Y-48214D01*
X36988Y-48180D01*
X37081Y-48142D01*
X37157Y-48066D01*
X37199Y-47967D01*
X37199Y-47859D01*
X37158Y-47760D01*
X37082Y-47684D01*
X36983Y-47643D01*
X36970Y-47643D01*
X36970Y-47270D01*
X37357Y-46884D01*
X37357Y-46884D01*
X37391Y-46832D01*
X37393Y-46824D01*
X37399Y-46822D01*
X37399Y-47061D01*
X37330Y-47130D01*
X37289Y-47229D01*
X37289Y-47336D01*
X37330Y-47436D01*
X37405Y-47512D01*
X37505Y-47553D01*
X37612Y-47553D01*
X37711Y-47512D01*
X37787Y-47436D01*
X37828Y-47337D01*
X37828Y-47317D01*
X37927Y-47317D01*
X38015Y-47281D01*
X38001Y-47300D01*
X37989Y-47362D01*
X37989Y-48346D01*
X38001Y-48407D01*
X38036Y-48459D01*
X38705Y-49128D01*
X38705Y-49128D01*
X38757Y-49163D01*
X38788Y-49169D01*
X38777Y-49196D01*
X38777Y-49295D01*
X38812Y-49330D01*
X39084Y-49330D01*
X39084Y-49322D01*
X39084Y-49322D01*
X39084Y-49330D01*
X39356Y-49330D01*
X39391Y-49295D01*
X39391Y-49196D01*
X39371Y-49147D01*
X39371Y-49145D01*
X39371Y-49098D01*
X39371Y-48885D01*
X39361Y-48860D01*
X39618Y-48860D01*
X39879Y-49121D01*
X39879Y-49448D01*
X39891Y-49510D01*
X39926Y-49561D01*
X40106Y-49741D01*
X40035Y-49741D01*
X40000Y-49776D01*
X40000Y-49999D01*
X40213Y-49999D01*
X40248Y-49964D01*
X40248Y-49909D01*
X40248Y-49883D01*
X40273Y-49908D01*
X40273Y-50826D01*
X40285Y-50887D01*
X40319Y-50939D01*
X40871Y-51491D01*
X40923Y-51525D01*
X40984Y-51537D01*
X41914Y-51537D01*
X41914Y-51537D01*
G37*
G54D37*
X41914Y-51537D02*
X41681Y-51770D01*
X41570Y-51770D01*
X41420Y-51620D01*
X41342Y-51568D01*
X41250Y-51550D01*
X41250Y-51550D01*
X40460Y-51550D01*
X40248Y-51550D01*
X40248Y-50145D01*
X40248Y-50090D01*
X40248Y-50035D01*
X40213Y-50000D01*
X40000Y-50000D01*
X40000Y-50223D01*
X40035Y-50258D01*
X40136Y-50258D01*
X40187Y-50236D01*
X40226Y-50197D01*
X40248Y-50145D01*
X40248Y-51550D01*
X40196Y-51550D01*
X40102Y-51455D01*
X40102Y-51165D01*
X40105Y-51164D01*
X40138Y-51130D01*
X40157Y-51086D01*
X40157Y-51038D01*
X40157Y-50488D01*
X40138Y-50444D01*
X40105Y-50410D01*
X40061Y-50392D01*
X40013Y-50392D01*
X39663Y-50392D01*
X39619Y-50410D01*
X39585Y-50444D01*
X39567Y-50488D01*
X39567Y-50536D01*
X39567Y-50561D01*
X39530Y-50524D01*
X39530Y-50433D01*
X39517Y-50371D01*
X39483Y-50319D01*
X39401Y-50238D01*
X39443Y-50238D01*
X39659Y-50238D01*
X39703Y-50219D01*
X39737Y-50186D01*
X39752Y-50148D01*
X39773Y-50197D01*
X39812Y-50236D01*
X39863Y-50258D01*
X39964Y-50258D01*
X39999Y-50223D01*
X39999Y-50000D01*
X39991Y-50000D01*
X39991Y-49999D01*
X39999Y-49999D01*
X39999Y-49776D01*
X39964Y-49741D01*
X39863Y-49741D01*
X39812Y-49763D01*
X39773Y-49802D01*
X39752Y-49851D01*
X39737Y-49813D01*
X39719Y-49795D01*
X39719Y-49795D01*
X39795Y-49720D01*
X39836Y-49620D01*
X39836Y-49513D01*
X39795Y-49414D01*
X39720Y-49338D01*
X39620Y-49297D01*
X39513Y-49296D01*
X39414Y-49337D01*
X39389Y-49363D01*
X39356Y-49330D01*
X39084Y-49330D01*
X39084Y-49338D01*
X39084Y-49338D01*
X39084Y-49330D01*
X38812Y-49330D01*
X38777Y-49365D01*
X38777Y-49464D01*
X38780Y-49473D01*
X38761Y-49477D01*
X38750Y-49479D01*
X38691Y-49518D01*
X38691Y-49518D01*
X38585Y-49624D01*
X38373Y-49624D01*
X38346Y-49635D01*
X38319Y-49624D01*
X38271Y-49624D01*
X38058Y-49624D01*
X38031Y-49635D01*
X38004Y-49624D01*
X37956Y-49624D01*
X37743Y-49624D01*
X37719Y-49634D01*
X37719Y-49566D01*
X37706Y-49505D01*
X37672Y-49453D01*
X37672Y-49453D01*
X36982Y-48764D01*
X36982Y-48667D01*
X36941Y-48567D01*
X36874Y-48500D01*
X36885Y-48496D01*
X36961Y-48420D01*
X37002Y-48321D01*
X37002Y-48214D01*
X36988Y-48180D01*
X37081Y-48142D01*
X37157Y-48066D01*
X37199Y-47967D01*
X37199Y-47859D01*
X37158Y-47760D01*
X37082Y-47684D01*
X36983Y-47643D01*
X36970Y-47643D01*
X36970Y-47270D01*
X37357Y-46884D01*
X37357Y-46884D01*
X37391Y-46832D01*
X37393Y-46824D01*
X37399Y-46822D01*
X37399Y-47061D01*
X37330Y-47130D01*
X37289Y-47229D01*
X37289Y-47336D01*
X37330Y-47436D01*
X37405Y-47512D01*
X37505Y-47553D01*
X37612Y-47553D01*
X37711Y-47512D01*
X37787Y-47436D01*
X37828Y-47337D01*
X37828Y-47317D01*
X37927Y-47317D01*
X38015Y-47281D01*
X38001Y-47300D01*
X37989Y-47362D01*
X37989Y-48346D01*
X38001Y-48407D01*
X38036Y-48459D01*
X38705Y-49128D01*
X38705Y-49128D01*
X38757Y-49163D01*
X38788Y-49169D01*
X38777Y-49196D01*
X38777Y-49295D01*
X38812Y-49330D01*
X39084Y-49330D01*
X39084Y-49322D01*
X39084Y-49322D01*
X39084Y-49330D01*
X39356Y-49330D01*
X39391Y-49295D01*
X39391Y-49196D01*
X39371Y-49147D01*
X39371Y-49145D01*
X39371Y-49098D01*
X39371Y-48885D01*
X39361Y-48860D01*
X39618Y-48860D01*
X39879Y-49121D01*
X39879Y-49448D01*
X39891Y-49510D01*
X39926Y-49561D01*
X40106Y-49741D01*
X40035Y-49741D01*
X40000Y-49776D01*
X40000Y-49999D01*
X40213Y-49999D01*
X40248Y-49964D01*
X40248Y-49909D01*
X40248Y-49883D01*
X40273Y-49908D01*
X40273Y-50826D01*
X40285Y-50887D01*
X40319Y-50939D01*
X40871Y-51491D01*
X40923Y-51525D01*
X40984Y-51537D01*
X41914Y-51537D01*
G54D10*
G36*
X42183Y-43978D02*
X42094Y-44067D01*
X42034Y-44212D01*
X42034Y-44369D01*
X42060Y-44433D01*
X41851Y-44643D01*
X41846Y-44643D01*
X41846Y-44224D01*
X41789Y-44070D01*
X41771Y-44042D01*
X41703Y-44017D01*
X41429Y-44291D01*
X41703Y-44565D01*
X41771Y-44539D01*
X41840Y-44389D01*
X41846Y-44224D01*
X41846Y-44643D01*
X41663Y-44643D01*
X41677Y-44633D01*
X41703Y-44565D01*
X41429Y-44291D01*
X41428Y-44291D01*
X41428Y-44291D01*
X41154Y-44017D01*
X41086Y-44042D01*
X41017Y-44192D01*
X41011Y-44357D01*
X41068Y-44512D01*
X41086Y-44539D01*
X41154Y-44565D01*
X41428Y-44291D01*
X41428Y-44291D01*
X41154Y-44565D01*
X41180Y-44633D01*
X41201Y-44643D01*
X40611Y-44643D01*
X40652Y-44626D01*
X40763Y-44515D01*
X40824Y-44370D01*
X40824Y-44213D01*
X40764Y-44067D01*
X40675Y-43978D01*
X41169Y-43978D01*
X41154Y-44016D01*
X41429Y-44291D01*
X41703Y-44016D01*
X41689Y-43978D01*
X42183Y-43978D01*
X42183Y-43978D01*
G37*
G54D37*
X42183Y-43978D02*
X42094Y-44067D01*
X42034Y-44212D01*
X42034Y-44369D01*
X42060Y-44433D01*
X41851Y-44643D01*
X41846Y-44643D01*
X41846Y-44224D01*
X41789Y-44070D01*
X41771Y-44042D01*
X41703Y-44017D01*
X41429Y-44291D01*
X41703Y-44565D01*
X41771Y-44539D01*
X41840Y-44389D01*
X41846Y-44224D01*
X41846Y-44643D01*
X41663Y-44643D01*
X41677Y-44633D01*
X41703Y-44565D01*
X41429Y-44291D01*
X41428Y-44291D01*
X41428Y-44291D01*
X41154Y-44017D01*
X41086Y-44042D01*
X41017Y-44192D01*
X41011Y-44357D01*
X41068Y-44512D01*
X41086Y-44539D01*
X41154Y-44565D01*
X41428Y-44291D01*
X41428Y-44291D01*
X41154Y-44565D01*
X41180Y-44633D01*
X41201Y-44643D01*
X40611Y-44643D01*
X40652Y-44626D01*
X40763Y-44515D01*
X40824Y-44370D01*
X40824Y-44213D01*
X40764Y-44067D01*
X40675Y-43978D01*
X41169Y-43978D01*
X41154Y-44016D01*
X41429Y-44291D01*
X41703Y-44016D01*
X41689Y-43978D01*
X42183Y-43978D01*
G54D10*
G36*
X47104Y-51561D02*
X46992Y-52122D01*
X46870Y-52306D01*
X46870Y-52074D01*
X46870Y-52018D01*
X46870Y-51806D01*
X46870Y-51736D01*
X46870Y-51524D01*
X46870Y-51468D01*
X46848Y-51417D01*
X46809Y-51378D01*
X46757Y-51356D01*
X46590Y-51356D01*
X46555Y-51391D01*
X46555Y-51771D01*
X46835Y-51771D01*
X46870Y-51736D01*
X46870Y-51806D01*
X46835Y-51771D01*
X46555Y-51771D01*
X46555Y-52151D01*
X46590Y-52186D01*
X46757Y-52186D01*
X46809Y-52165D01*
X46848Y-52125D01*
X46870Y-52074D01*
X46870Y-52306D01*
X46682Y-52587D01*
X46554Y-52672D01*
X46554Y-52151D01*
X46554Y-51771D01*
X46554Y-51771D01*
X46554Y-51391D01*
X46519Y-51356D01*
X46358Y-51356D01*
X46358Y-51246D01*
X46358Y-50905D01*
X46358Y-50905D01*
X46358Y-50564D01*
X46323Y-50529D01*
X45729Y-50529D01*
X45729Y-49035D01*
X45729Y-47303D01*
X45684Y-47194D01*
X45601Y-47110D01*
X45492Y-47065D01*
X45373Y-47065D01*
X45264Y-47110D01*
X45181Y-47193D01*
X45135Y-47303D01*
X45135Y-47421D01*
X45180Y-47530D01*
X45264Y-47613D01*
X45373Y-47659D01*
X45491Y-47659D01*
X45600Y-47614D01*
X45684Y-47530D01*
X45729Y-47421D01*
X45729Y-47303D01*
X45729Y-49035D01*
X45684Y-48926D01*
X45601Y-48842D01*
X45492Y-48797D01*
X45373Y-48797D01*
X45264Y-48842D01*
X45181Y-48925D01*
X45135Y-49035D01*
X45135Y-49153D01*
X45180Y-49262D01*
X45264Y-49345D01*
X45373Y-49391D01*
X45491Y-49391D01*
X45600Y-49346D01*
X45684Y-49262D01*
X45729Y-49153D01*
X45729Y-49035D01*
X45729Y-50529D01*
X45700Y-50529D01*
X45649Y-50550D01*
X45609Y-50590D01*
X45588Y-50641D01*
X45588Y-50697D01*
X45588Y-50870D01*
X45623Y-50905D01*
X46358Y-50905D01*
X46358Y-50905D01*
X45623Y-50905D01*
X45588Y-50940D01*
X45588Y-51113D01*
X45588Y-51169D01*
X45609Y-51221D01*
X45649Y-51260D01*
X45700Y-51281D01*
X46323Y-51281D01*
X46358Y-51246D01*
X46358Y-51356D01*
X46352Y-51356D01*
X46300Y-51378D01*
X46261Y-51417D01*
X46240Y-51468D01*
X46240Y-51524D01*
X46240Y-51736D01*
X46275Y-51771D01*
X46554Y-51771D01*
X46554Y-51771D01*
X46275Y-51771D01*
X46240Y-51806D01*
X46240Y-52018D01*
X46240Y-52074D01*
X46261Y-52125D01*
X46300Y-52165D01*
X46352Y-52186D01*
X46519Y-52186D01*
X46554Y-52151D01*
X46554Y-52672D01*
X46350Y-52809D01*
X46350Y-52705D01*
X46350Y-52649D01*
X46350Y-52594D01*
X46350Y-52523D01*
X46350Y-52468D01*
X46350Y-52413D01*
X46329Y-52361D01*
X46289Y-52322D01*
X46238Y-52300D01*
X46137Y-52300D01*
X46102Y-52335D01*
X46102Y-52558D01*
X46315Y-52558D01*
X46350Y-52523D01*
X46350Y-52594D01*
X46315Y-52559D01*
X46102Y-52559D01*
X46102Y-52782D01*
X46137Y-52817D01*
X46238Y-52817D01*
X46289Y-52795D01*
X46329Y-52756D01*
X46350Y-52705D01*
X46350Y-52809D01*
X46217Y-52898D01*
X46102Y-52921D01*
X46102Y-52782D01*
X46102Y-52559D01*
X46094Y-52559D01*
X46094Y-52558D01*
X46102Y-52558D01*
X46102Y-52335D01*
X46067Y-52300D01*
X45966Y-52300D01*
X45914Y-52322D01*
X45875Y-52361D01*
X45855Y-52410D01*
X45839Y-52372D01*
X45806Y-52339D01*
X45762Y-52320D01*
X45714Y-52320D01*
X45497Y-52320D01*
X45453Y-52339D01*
X45419Y-52372D01*
X45416Y-52380D01*
X45046Y-52380D01*
X45043Y-52372D01*
X45009Y-52338D01*
X44965Y-52320D01*
X44917Y-52320D01*
X44617Y-52320D01*
X44573Y-52338D01*
X44539Y-52372D01*
X44521Y-52416D01*
X44521Y-52464D01*
X44521Y-52664D01*
X44539Y-52708D01*
X44573Y-52742D01*
X44617Y-52760D01*
X44665Y-52760D01*
X44965Y-52760D01*
X45009Y-52742D01*
X45043Y-52708D01*
X45046Y-52700D01*
X45401Y-52700D01*
X45401Y-52701D01*
X45419Y-52745D01*
X45453Y-52778D01*
X45497Y-52797D01*
X45545Y-52797D01*
X45762Y-52797D01*
X45806Y-52778D01*
X45839Y-52745D01*
X45855Y-52707D01*
X45875Y-52756D01*
X45914Y-52795D01*
X45966Y-52817D01*
X46067Y-52817D01*
X46102Y-52782D01*
X46102Y-52921D01*
X45655Y-53010D01*
X42900Y-53010D01*
X42900Y-52439D01*
X42625Y-52165D01*
X42351Y-52439D01*
X42377Y-52507D01*
X42527Y-52576D01*
X42692Y-52583D01*
X42847Y-52525D01*
X42874Y-52507D01*
X42900Y-52439D01*
X42900Y-53010D01*
X39730Y-53010D01*
X39730Y-52664D01*
X39730Y-52616D01*
X39730Y-52416D01*
X39712Y-52372D01*
X39678Y-52338D01*
X39634Y-52320D01*
X39586Y-52320D01*
X39286Y-52320D01*
X39242Y-52338D01*
X39208Y-52372D01*
X39190Y-52416D01*
X39190Y-52464D01*
X39190Y-52664D01*
X39208Y-52708D01*
X39242Y-52742D01*
X39286Y-52760D01*
X39334Y-52760D01*
X39634Y-52760D01*
X39678Y-52742D01*
X39712Y-52708D01*
X39730Y-52664D01*
X39730Y-53010D01*
X38997Y-53010D01*
X38997Y-52860D01*
X38997Y-52692D01*
X38997Y-52622D01*
X38997Y-52454D01*
X38976Y-52403D01*
X38936Y-52363D01*
X38885Y-52342D01*
X38829Y-52342D01*
X38617Y-52342D01*
X38582Y-52377D01*
X38582Y-52657D01*
X38962Y-52657D01*
X38997Y-52622D01*
X38997Y-52692D01*
X38962Y-52657D01*
X38582Y-52657D01*
X38582Y-52937D01*
X38617Y-52972D01*
X38829Y-52972D01*
X38885Y-52972D01*
X38936Y-52951D01*
X38976Y-52911D01*
X38997Y-52860D01*
X38997Y-53010D01*
X38582Y-53010D01*
X38582Y-52937D01*
X38582Y-52657D01*
X38582Y-52657D01*
X38582Y-52377D01*
X38547Y-52342D01*
X38335Y-52342D01*
X38279Y-52342D01*
X38228Y-52363D01*
X38189Y-52403D01*
X38167Y-52454D01*
X38167Y-52622D01*
X38202Y-52657D01*
X38582Y-52657D01*
X38582Y-52657D01*
X38202Y-52657D01*
X38167Y-52692D01*
X38167Y-52860D01*
X38189Y-52911D01*
X38228Y-52951D01*
X38279Y-52972D01*
X38335Y-52972D01*
X38547Y-52972D01*
X38582Y-52937D01*
X38582Y-53010D01*
X29147Y-53010D01*
X28585Y-52898D01*
X28120Y-52587D01*
X27810Y-52122D01*
X27698Y-51561D01*
X27698Y-44895D01*
X27810Y-44333D01*
X28120Y-43868D01*
X28585Y-43558D01*
X29147Y-43446D01*
X45655Y-43446D01*
X46217Y-43558D01*
X46682Y-43868D01*
X46992Y-44333D01*
X47104Y-44895D01*
X47104Y-45234D01*
X46787Y-45234D01*
X46752Y-45269D01*
X46752Y-45669D01*
X46760Y-45669D01*
X46760Y-45669D01*
X46752Y-45669D01*
X46752Y-46069D01*
X46787Y-46104D01*
X46789Y-46104D01*
X46789Y-46133D01*
X46789Y-46189D01*
X46810Y-46240D01*
X46849Y-46280D01*
X46901Y-46301D01*
X46992Y-46301D01*
X47027Y-46266D01*
X47027Y-46104D01*
X47027Y-46104D01*
X47027Y-46266D01*
X47062Y-46301D01*
X47104Y-46301D01*
X47104Y-50587D01*
X47067Y-50550D01*
X47016Y-50529D01*
X46751Y-50529D01*
X46751Y-46069D01*
X46751Y-45669D01*
X46751Y-45669D01*
X46751Y-45269D01*
X46716Y-45234D01*
X46367Y-45234D01*
X46367Y-44213D01*
X46307Y-44067D01*
X46196Y-43956D01*
X46051Y-43896D01*
X45894Y-43896D01*
X45749Y-43956D01*
X45637Y-44067D01*
X45577Y-44212D01*
X45577Y-44369D01*
X45603Y-44433D01*
X44803Y-45233D01*
X44256Y-45233D01*
X44803Y-44686D01*
X45271Y-44686D01*
X45315Y-44668D01*
X45349Y-44634D01*
X45367Y-44590D01*
X45367Y-44542D01*
X45367Y-43992D01*
X45349Y-43948D01*
X45315Y-43914D01*
X45271Y-43896D01*
X45223Y-43896D01*
X44803Y-43896D01*
X44613Y-43705D01*
X44561Y-43671D01*
X44500Y-43658D01*
X36653Y-43658D01*
X36602Y-43669D01*
X36592Y-43671D01*
X36540Y-43705D01*
X36389Y-43856D01*
X36245Y-43856D01*
X36201Y-43874D01*
X36167Y-43908D01*
X36149Y-43952D01*
X36149Y-44000D01*
X36149Y-44236D01*
X36166Y-44275D01*
X36151Y-44290D01*
X36129Y-44342D01*
X36129Y-44397D01*
X36129Y-44453D01*
X36164Y-44487D01*
X36377Y-44487D01*
X36377Y-44480D01*
X36378Y-44480D01*
X36378Y-44487D01*
X36386Y-44487D01*
X36386Y-44488D01*
X36378Y-44488D01*
X36378Y-44711D01*
X36413Y-44746D01*
X36514Y-44746D01*
X36565Y-44724D01*
X36604Y-44685D01*
X36624Y-44636D01*
X36640Y-44674D01*
X36674Y-44707D01*
X36718Y-44726D01*
X36765Y-44726D01*
X36982Y-44726D01*
X37026Y-44707D01*
X37060Y-44674D01*
X37078Y-44630D01*
X37078Y-44582D01*
X37078Y-44346D01*
X37060Y-44302D01*
X37049Y-44291D01*
X37060Y-44280D01*
X37071Y-44254D01*
X37490Y-44254D01*
X37490Y-44590D01*
X37509Y-44634D01*
X37542Y-44668D01*
X37586Y-44686D01*
X37634Y-44686D01*
X38184Y-44686D01*
X38228Y-44668D01*
X38262Y-44634D01*
X38280Y-44590D01*
X38280Y-44542D01*
X38280Y-43992D01*
X38275Y-43978D01*
X38639Y-43978D01*
X38551Y-44067D01*
X38490Y-44212D01*
X38490Y-44369D01*
X38550Y-44514D01*
X38661Y-44625D01*
X38806Y-44686D01*
X38964Y-44686D01*
X39109Y-44626D01*
X39220Y-44515D01*
X39280Y-44370D01*
X39280Y-44213D01*
X39220Y-44067D01*
X39131Y-43978D01*
X40183Y-43978D01*
X40094Y-44067D01*
X40066Y-44133D01*
X40017Y-44143D01*
X39965Y-44178D01*
X38075Y-46067D01*
X38041Y-46119D01*
X38029Y-46181D01*
X38029Y-46268D01*
X38004Y-46257D01*
X37956Y-46257D01*
X37743Y-46257D01*
X37716Y-46269D01*
X37689Y-46257D01*
X37641Y-46257D01*
X37428Y-46257D01*
X37401Y-46269D01*
X37374Y-46257D01*
X37326Y-46257D01*
X37113Y-46257D01*
X37086Y-46269D01*
X37069Y-46262D01*
X37069Y-45844D01*
X37069Y-45743D01*
X37034Y-45708D01*
X36811Y-45708D01*
X36811Y-45921D01*
X36846Y-45956D01*
X36901Y-45956D01*
X36956Y-45956D01*
X37008Y-45935D01*
X37047Y-45896D01*
X37069Y-45844D01*
X37069Y-46262D01*
X37059Y-46257D01*
X37011Y-46257D01*
X36798Y-46257D01*
X36774Y-46268D01*
X36774Y-46259D01*
X36761Y-46198D01*
X36727Y-46146D01*
X36577Y-45996D01*
X36577Y-45929D01*
X36598Y-45920D01*
X36613Y-45935D01*
X36665Y-45956D01*
X36720Y-45956D01*
X36775Y-45956D01*
X36810Y-45921D01*
X36810Y-45708D01*
X36802Y-45708D01*
X36802Y-45708D01*
X36810Y-45708D01*
X36810Y-45700D01*
X36811Y-45700D01*
X36811Y-45708D01*
X37034Y-45708D01*
X37069Y-45673D01*
X37069Y-45572D01*
X37047Y-45521D01*
X37008Y-45481D01*
X36959Y-45461D01*
X36997Y-45446D01*
X37030Y-45412D01*
X37037Y-45396D01*
X38242Y-45396D01*
X38311Y-45464D01*
X38410Y-45506D01*
X38518Y-45506D01*
X38617Y-45465D01*
X38693Y-45389D01*
X38734Y-45290D01*
X38734Y-45182D01*
X38693Y-45083D01*
X38617Y-45007D01*
X38518Y-44966D01*
X38411Y-44966D01*
X38311Y-45007D01*
X38242Y-45076D01*
X37037Y-45076D01*
X37030Y-45060D01*
X36997Y-45026D01*
X36952Y-45007D01*
X36905Y-45007D01*
X36669Y-45007D01*
X36624Y-45026D01*
X36614Y-45037D01*
X36603Y-45026D01*
X36559Y-45007D01*
X36511Y-45007D01*
X36377Y-45007D01*
X36377Y-44711D01*
X36377Y-44488D01*
X36164Y-44488D01*
X36129Y-44523D01*
X36129Y-44578D01*
X36129Y-44634D01*
X36151Y-44685D01*
X36190Y-44724D01*
X36241Y-44746D01*
X36342Y-44746D01*
X36377Y-44711D01*
X36377Y-45007D01*
X36275Y-45007D01*
X36236Y-45024D01*
X36221Y-45009D01*
X36169Y-44987D01*
X36113Y-44987D01*
X36058Y-44987D01*
X36023Y-45022D01*
X36023Y-45236D01*
X36031Y-45236D01*
X36031Y-45236D01*
X36023Y-45236D01*
X36023Y-45244D01*
X36023Y-45244D01*
X36023Y-45236D01*
X36015Y-45236D01*
X36015Y-45236D01*
X36023Y-45236D01*
X36023Y-45022D01*
X35988Y-44987D01*
X35933Y-44987D01*
X35877Y-44987D01*
X35858Y-44996D01*
X35858Y-44995D01*
X35899Y-44896D01*
X35899Y-44789D01*
X35858Y-44689D01*
X35783Y-44613D01*
X35683Y-44572D01*
X35576Y-44572D01*
X35477Y-44613D01*
X35401Y-44689D01*
X35360Y-44788D01*
X35359Y-44895D01*
X35400Y-44995D01*
X35437Y-45032D01*
X35433Y-45037D01*
X35422Y-45026D01*
X35378Y-45007D01*
X35330Y-45007D01*
X35094Y-45007D01*
X35050Y-45026D01*
X35039Y-45037D01*
X35028Y-45026D01*
X34984Y-45007D01*
X34936Y-45007D01*
X34700Y-45007D01*
X34661Y-45024D01*
X34646Y-45009D01*
X34594Y-44987D01*
X34539Y-44987D01*
X34484Y-44987D01*
X34449Y-45022D01*
X34449Y-45236D01*
X34456Y-45236D01*
X34456Y-45236D01*
X34449Y-45236D01*
X34449Y-45244D01*
X34448Y-45244D01*
X34448Y-45236D01*
X34448Y-45236D01*
X34448Y-45022D01*
X34413Y-44987D01*
X34358Y-44987D01*
X34302Y-44987D01*
X34251Y-45009D01*
X34201Y-44987D01*
X34145Y-44987D01*
X34090Y-44987D01*
X34055Y-45022D01*
X34055Y-45236D01*
X34225Y-45236D01*
X34278Y-45236D01*
X34448Y-45236D01*
X34448Y-45236D01*
X34278Y-45236D01*
X34225Y-45236D01*
X34055Y-45236D01*
X34055Y-45244D01*
X34054Y-45244D01*
X34054Y-45236D01*
X34054Y-45236D01*
X34054Y-45022D01*
X34019Y-44987D01*
X33964Y-44987D01*
X33909Y-44987D01*
X33857Y-45009D01*
X33818Y-45048D01*
X33797Y-45100D01*
X33797Y-45201D01*
X33832Y-45236D01*
X34054Y-45236D01*
X34054Y-45236D01*
X33832Y-45236D01*
X33797Y-45271D01*
X33797Y-45372D01*
X33818Y-45423D01*
X33857Y-45463D01*
X33906Y-45483D01*
X33869Y-45498D01*
X33835Y-45532D01*
X33817Y-45576D01*
X33817Y-45624D01*
X33817Y-45840D01*
X33835Y-45884D01*
X33869Y-45918D01*
X33913Y-45936D01*
X33960Y-45936D01*
X34197Y-45936D01*
X34241Y-45918D01*
X34251Y-45907D01*
X34262Y-45918D01*
X34306Y-45936D01*
X34354Y-45936D01*
X34590Y-45936D01*
X34634Y-45918D01*
X34645Y-45907D01*
X34656Y-45918D01*
X34682Y-45929D01*
X34682Y-46023D01*
X34694Y-46084D01*
X34729Y-46136D01*
X35398Y-46806D01*
X35398Y-46806D01*
X35450Y-46840D01*
X35511Y-46852D01*
X35760Y-46852D01*
X35787Y-46879D01*
X35753Y-46879D01*
X35718Y-46914D01*
X35718Y-47125D01*
X35726Y-47125D01*
X35726Y-47126D01*
X35718Y-47126D01*
X35718Y-47134D01*
X35718Y-47134D01*
X35718Y-47126D01*
X35718Y-47125D01*
X35718Y-46914D01*
X35683Y-46879D01*
X35579Y-46879D01*
X35523Y-46879D01*
X35471Y-46901D01*
X35432Y-46940D01*
X35411Y-46991D01*
X35411Y-47090D01*
X35446Y-47125D01*
X35718Y-47125D01*
X35718Y-47126D01*
X35446Y-47126D01*
X35411Y-47161D01*
X35411Y-47260D01*
X35419Y-47280D01*
X35381Y-47280D01*
X35231Y-47130D01*
X35179Y-47096D01*
X35118Y-47084D01*
X35102Y-47084D01*
X35093Y-47062D01*
X35108Y-47047D01*
X35130Y-46996D01*
X35130Y-46940D01*
X35130Y-46885D01*
X35130Y-46815D01*
X35130Y-46760D01*
X35130Y-46704D01*
X35108Y-46653D01*
X35069Y-46613D01*
X35017Y-46592D01*
X34917Y-46592D01*
X34882Y-46627D01*
X34882Y-46850D01*
X35095Y-46850D01*
X35130Y-46815D01*
X35130Y-46885D01*
X35095Y-46850D01*
X34882Y-46850D01*
X34882Y-46858D01*
X34881Y-46858D01*
X34881Y-46850D01*
X34873Y-46850D01*
X34873Y-46850D01*
X34881Y-46850D01*
X34881Y-46627D01*
X34846Y-46592D01*
X34745Y-46592D01*
X34694Y-46613D01*
X34654Y-46653D01*
X34634Y-46701D01*
X34619Y-46664D01*
X34585Y-46630D01*
X34541Y-46612D01*
X34493Y-46612D01*
X34277Y-46612D01*
X34233Y-46630D01*
X34199Y-46664D01*
X34196Y-46670D01*
X33420Y-46670D01*
X31465Y-44715D01*
X31407Y-44676D01*
X31396Y-44673D01*
X31338Y-44662D01*
X31338Y-44662D01*
X29370Y-44662D01*
X28503Y-44662D01*
X28503Y-44662D01*
X28435Y-44676D01*
X28415Y-44689D01*
X28376Y-44715D01*
X28376Y-44715D01*
X28179Y-44912D01*
X28140Y-44970D01*
X28138Y-44981D01*
X28127Y-45039D01*
X28127Y-45039D01*
X28127Y-46801D01*
X28127Y-46811D01*
X28127Y-48695D01*
X28078Y-48744D01*
X28037Y-48843D01*
X28037Y-48951D01*
X28078Y-49050D01*
X28127Y-49099D01*
X28127Y-50354D01*
X28127Y-50669D01*
X28127Y-51161D01*
X28097Y-51191D01*
X28078Y-51235D01*
X28078Y-51283D01*
X28078Y-51519D01*
X28097Y-51564D01*
X28127Y-51594D01*
X28127Y-51773D01*
X28114Y-51778D01*
X28038Y-51854D01*
X27997Y-51953D01*
X27997Y-52061D01*
X28038Y-52160D01*
X28114Y-52236D01*
X28213Y-52277D01*
X28283Y-52277D01*
X28494Y-52489D01*
X28494Y-52489D01*
X28553Y-52528D01*
X28553Y-52528D01*
X28564Y-52530D01*
X28622Y-52542D01*
X28622Y-52542D01*
X28622Y-52542D01*
X33350Y-52542D01*
X33731Y-52922D01*
X33731Y-52922D01*
X33731Y-52922D01*
X33789Y-52961D01*
X33789Y-52961D01*
X33800Y-52963D01*
X33858Y-52975D01*
X33858Y-52975D01*
X33858Y-52975D01*
X37401Y-52975D01*
X37401Y-52975D01*
X37401Y-52975D01*
X37459Y-52963D01*
X37470Y-52961D01*
X37470Y-52961D01*
X37528Y-52922D01*
X38483Y-51968D01*
X38542Y-51968D01*
X38542Y-51968D01*
X38582Y-51994D01*
X38607Y-52012D01*
X38607Y-52012D01*
X38699Y-52030D01*
X38699Y-52030D01*
X38699Y-52030D01*
X39460Y-52030D01*
X39552Y-52012D01*
X39555Y-52010D01*
X39634Y-52010D01*
X39678Y-51992D01*
X39712Y-51958D01*
X39730Y-51914D01*
X39730Y-51866D01*
X39730Y-51762D01*
X39875Y-51908D01*
X39807Y-51936D01*
X39731Y-52012D01*
X39690Y-52111D01*
X39690Y-52218D01*
X39731Y-52318D01*
X39807Y-52394D01*
X39906Y-52435D01*
X40004Y-52435D01*
X40190Y-52621D01*
X40190Y-52664D01*
X40208Y-52708D01*
X40242Y-52742D01*
X40286Y-52760D01*
X40334Y-52760D01*
X40634Y-52760D01*
X40678Y-52742D01*
X40712Y-52708D01*
X40730Y-52664D01*
X40730Y-52616D01*
X40730Y-52416D01*
X40712Y-52372D01*
X40706Y-52366D01*
X40729Y-52344D01*
X40750Y-52293D01*
X40750Y-52200D01*
X40715Y-52165D01*
X40460Y-52165D01*
X40460Y-52173D01*
X40460Y-52173D01*
X40460Y-52165D01*
X40452Y-52165D01*
X40452Y-52165D01*
X40460Y-52165D01*
X40460Y-52157D01*
X40460Y-52157D01*
X40460Y-52165D01*
X40715Y-52165D01*
X40750Y-52130D01*
X40750Y-52037D01*
X40747Y-52030D01*
X41151Y-52030D01*
X41231Y-52109D01*
X41231Y-52464D01*
X41249Y-52508D01*
X41283Y-52542D01*
X41327Y-52560D01*
X41374Y-52560D01*
X41924Y-52560D01*
X41968Y-52542D01*
X42002Y-52508D01*
X42020Y-52464D01*
X42020Y-52416D01*
X42020Y-52109D01*
X42237Y-51893D01*
X42344Y-51893D01*
X42283Y-51916D01*
X42214Y-52066D01*
X42208Y-52231D01*
X42265Y-52386D01*
X42283Y-52413D01*
X42351Y-52439D01*
X42625Y-52165D01*
X42620Y-52159D01*
X42620Y-52159D01*
X42625Y-52165D01*
X42631Y-52159D01*
X42631Y-52159D01*
X42626Y-52165D01*
X42900Y-52439D01*
X42968Y-52413D01*
X43037Y-52263D01*
X43043Y-52098D01*
X42986Y-51944D01*
X42968Y-51916D01*
X42906Y-51893D01*
X43521Y-51893D01*
X43521Y-51914D01*
X43539Y-51958D01*
X43545Y-51963D01*
X43522Y-51986D01*
X43501Y-52037D01*
X43501Y-52130D01*
X43536Y-52165D01*
X43791Y-52165D01*
X43791Y-52157D01*
X43791Y-52157D01*
X43791Y-52165D01*
X43799Y-52165D01*
X43799Y-52165D01*
X43791Y-52165D01*
X43791Y-52173D01*
X43791Y-52173D01*
X43791Y-52165D01*
X43536Y-52165D01*
X43501Y-52200D01*
X43501Y-52293D01*
X43522Y-52344D01*
X43545Y-52366D01*
X43539Y-52372D01*
X43521Y-52416D01*
X43521Y-52464D01*
X43521Y-52664D01*
X43539Y-52708D01*
X43573Y-52742D01*
X43617Y-52760D01*
X43665Y-52760D01*
X43965Y-52760D01*
X44009Y-52742D01*
X44043Y-52708D01*
X44061Y-52664D01*
X44061Y-52616D01*
X44061Y-52582D01*
X44286Y-52357D01*
X44286Y-52357D01*
X44321Y-52305D01*
X44333Y-52244D01*
X44333Y-51740D01*
X44368Y-51754D01*
X44521Y-51907D01*
X44521Y-51914D01*
X44539Y-51958D01*
X44573Y-51992D01*
X44617Y-52010D01*
X44648Y-52010D01*
X44648Y-52010D01*
X44651Y-52012D01*
X44651Y-52012D01*
X44666Y-52015D01*
X44743Y-52030D01*
X44743Y-52030D01*
X44743Y-52030D01*
X44791Y-52030D01*
X45275Y-52030D01*
X45275Y-52070D01*
X45294Y-52114D01*
X45327Y-52148D01*
X45372Y-52166D01*
X45419Y-52166D01*
X45769Y-52166D01*
X45813Y-52148D01*
X45847Y-52114D01*
X45865Y-52070D01*
X45865Y-52022D01*
X45865Y-51472D01*
X45847Y-51428D01*
X45813Y-51394D01*
X45769Y-51376D01*
X45722Y-51376D01*
X45372Y-51376D01*
X45327Y-51394D01*
X45294Y-51428D01*
X45275Y-51472D01*
X45275Y-51520D01*
X45275Y-51550D01*
X45238Y-51550D01*
X45238Y-51169D01*
X45238Y-51113D01*
X45238Y-50940D01*
X45238Y-50870D01*
X45238Y-50697D01*
X45238Y-50641D01*
X45217Y-50590D01*
X45177Y-50550D01*
X45126Y-50529D01*
X44976Y-50529D01*
X44941Y-50564D01*
X44941Y-50905D01*
X45203Y-50905D01*
X45238Y-50870D01*
X45238Y-50940D01*
X45203Y-50905D01*
X44941Y-50905D01*
X44941Y-51246D01*
X44976Y-51281D01*
X45126Y-51281D01*
X45177Y-51260D01*
X45217Y-51221D01*
X45238Y-51169D01*
X45238Y-51550D01*
X44842Y-51550D01*
X44707Y-51415D01*
X44677Y-51343D01*
X44634Y-51300D01*
X44922Y-51300D01*
X44922Y-51265D01*
X44940Y-51246D01*
X44940Y-50905D01*
X44932Y-50905D01*
X44932Y-50905D01*
X44940Y-50905D01*
X44940Y-50564D01*
X44905Y-50529D01*
X44755Y-50529D01*
X44704Y-50550D01*
X44664Y-50590D01*
X44648Y-50628D01*
X43931Y-50628D01*
X43931Y-49159D01*
X43890Y-49059D01*
X43821Y-48990D01*
X43821Y-47924D01*
X43852Y-47849D01*
X43852Y-47741D01*
X43811Y-47642D01*
X43735Y-47566D01*
X43636Y-47525D01*
X43529Y-47525D01*
X43429Y-47566D01*
X43353Y-47642D01*
X43312Y-47741D01*
X43312Y-47848D01*
X43353Y-47947D01*
X43429Y-48024D01*
X43501Y-48053D01*
X43501Y-48990D01*
X43432Y-49059D01*
X43391Y-49158D01*
X43391Y-49266D01*
X43432Y-49365D01*
X43508Y-49441D01*
X43607Y-49482D01*
X43714Y-49482D01*
X43814Y-49441D01*
X43890Y-49365D01*
X43931Y-49266D01*
X43931Y-49159D01*
X43931Y-50628D01*
X42870Y-50628D01*
X42854Y-50590D01*
X42815Y-50550D01*
X42764Y-50529D01*
X42535Y-50529D01*
X42500Y-50564D01*
X42500Y-50628D01*
X42499Y-50628D01*
X42499Y-50564D01*
X42464Y-50529D01*
X42235Y-50529D01*
X42184Y-50550D01*
X42145Y-50590D01*
X42129Y-50628D01*
X41183Y-50628D01*
X41183Y-50625D01*
X41148Y-50590D01*
X40807Y-50590D01*
X40807Y-50598D01*
X40806Y-50598D01*
X40806Y-50590D01*
X40799Y-50590D01*
X40799Y-50590D01*
X40806Y-50590D01*
X40806Y-50582D01*
X40807Y-50582D01*
X40807Y-50590D01*
X41148Y-50590D01*
X41183Y-50555D01*
X41183Y-50480D01*
X41183Y-50439D01*
X41189Y-50436D01*
X41223Y-50402D01*
X41242Y-50358D01*
X41242Y-50310D01*
X41242Y-50035D01*
X41223Y-49991D01*
X41212Y-49980D01*
X41223Y-49969D01*
X41242Y-49925D01*
X41242Y-49877D01*
X41242Y-49602D01*
X41225Y-49562D01*
X41240Y-49547D01*
X41262Y-49496D01*
X41262Y-49440D01*
X41262Y-49365D01*
X41227Y-49330D01*
X40846Y-49330D01*
X40846Y-49338D01*
X40846Y-49338D01*
X40846Y-49330D01*
X40465Y-49330D01*
X40444Y-49352D01*
X40396Y-49303D01*
X40396Y-49035D01*
X40411Y-49045D01*
X40450Y-49053D01*
X40450Y-49059D01*
X40467Y-49098D01*
X40452Y-49113D01*
X40430Y-49165D01*
X40430Y-49220D01*
X40430Y-49295D01*
X40465Y-49330D01*
X40846Y-49330D01*
X40846Y-49322D01*
X40846Y-49322D01*
X40846Y-49330D01*
X41227Y-49330D01*
X41262Y-49295D01*
X41262Y-49220D01*
X41262Y-49165D01*
X41240Y-49113D01*
X41225Y-49098D01*
X41242Y-49059D01*
X41242Y-49011D01*
X41242Y-48749D01*
X41264Y-48772D01*
X41363Y-48813D01*
X41470Y-48813D01*
X41570Y-48772D01*
X41646Y-48696D01*
X41687Y-48597D01*
X41687Y-48527D01*
X43040Y-47174D01*
X43040Y-47174D01*
X43040Y-47174D01*
X43066Y-47135D01*
X43079Y-47116D01*
X43079Y-47116D01*
X43093Y-47047D01*
X43093Y-47047D01*
X43093Y-47047D01*
X43093Y-46658D01*
X43142Y-46609D01*
X43183Y-46510D01*
X43183Y-46403D01*
X43142Y-46303D01*
X43066Y-46227D01*
X42967Y-46186D01*
X42859Y-46186D01*
X42760Y-46227D01*
X42684Y-46303D01*
X42643Y-46402D01*
X42643Y-46510D01*
X42684Y-46609D01*
X42733Y-46658D01*
X42733Y-46972D01*
X41766Y-47940D01*
X41766Y-46442D01*
X41725Y-46343D01*
X41649Y-46267D01*
X41549Y-46226D01*
X41442Y-46226D01*
X41343Y-46267D01*
X41267Y-46342D01*
X41262Y-46355D01*
X41262Y-46248D01*
X41262Y-46192D01*
X41240Y-46141D01*
X41201Y-46101D01*
X41149Y-46080D01*
X40881Y-46080D01*
X40846Y-46115D01*
X40846Y-46417D01*
X40854Y-46417D01*
X40854Y-46417D01*
X40846Y-46417D01*
X40846Y-46719D01*
X40881Y-46754D01*
X41149Y-46754D01*
X41201Y-46732D01*
X41240Y-46693D01*
X41262Y-46642D01*
X41262Y-46636D01*
X41267Y-46648D01*
X41342Y-46724D01*
X41442Y-46765D01*
X41549Y-46766D01*
X41648Y-46725D01*
X41724Y-46649D01*
X41765Y-46549D01*
X41766Y-46442D01*
X41766Y-47940D01*
X41687Y-48018D01*
X41687Y-47978D01*
X41646Y-47878D01*
X41570Y-47802D01*
X41471Y-47761D01*
X41363Y-47761D01*
X41264Y-47802D01*
X41228Y-47838D01*
X41223Y-47825D01*
X41212Y-47814D01*
X41223Y-47804D01*
X41242Y-47760D01*
X41242Y-47712D01*
X41242Y-47436D01*
X41223Y-47392D01*
X41212Y-47381D01*
X41223Y-47371D01*
X41242Y-47327D01*
X41242Y-47279D01*
X41242Y-47003D01*
X41223Y-46959D01*
X41189Y-46925D01*
X41145Y-46907D01*
X41098Y-46907D01*
X40846Y-46907D01*
X40846Y-46719D01*
X40846Y-46417D01*
X40846Y-46417D01*
X40846Y-46115D01*
X40811Y-46080D01*
X40543Y-46080D01*
X40491Y-46101D01*
X40452Y-46141D01*
X40430Y-46192D01*
X40430Y-46248D01*
X40430Y-46382D01*
X40465Y-46417D01*
X40846Y-46417D01*
X40846Y-46417D01*
X40465Y-46417D01*
X40430Y-46452D01*
X40430Y-46586D01*
X40430Y-46642D01*
X40452Y-46693D01*
X40491Y-46732D01*
X40543Y-46754D01*
X40811Y-46754D01*
X40846Y-46719D01*
X40846Y-46907D01*
X40547Y-46907D01*
X40502Y-46925D01*
X40469Y-46959D01*
X40450Y-47003D01*
X40450Y-47051D01*
X40450Y-47327D01*
X40469Y-47371D01*
X40479Y-47381D01*
X40469Y-47392D01*
X40450Y-47436D01*
X40450Y-47438D01*
X40184Y-47438D01*
X39758Y-47012D01*
X39706Y-46978D01*
X39645Y-46966D01*
X39359Y-46966D01*
X39353Y-46951D01*
X39319Y-46917D01*
X39275Y-46899D01*
X39228Y-46899D01*
X39074Y-46899D01*
X40420Y-45553D01*
X44870Y-45553D01*
X44870Y-45553D01*
X44931Y-45541D01*
X44983Y-45506D01*
X45830Y-44659D01*
X45893Y-44686D01*
X46050Y-44686D01*
X46195Y-44626D01*
X46307Y-44515D01*
X46367Y-44370D01*
X46367Y-44213D01*
X46367Y-45234D01*
X46350Y-45234D01*
X46298Y-45255D01*
X46259Y-45294D01*
X46237Y-45346D01*
X46237Y-45401D01*
X46237Y-45634D01*
X46272Y-45669D01*
X46751Y-45669D01*
X46751Y-45669D01*
X46272Y-45669D01*
X46237Y-45704D01*
X46237Y-45936D01*
X46237Y-45992D01*
X46259Y-46043D01*
X46298Y-46083D01*
X46350Y-46104D01*
X46716Y-46104D01*
X46751Y-46069D01*
X46751Y-50529D01*
X46393Y-50529D01*
X46358Y-50564D01*
X46358Y-50905D01*
X46366Y-50905D01*
X46366Y-50905D01*
X46358Y-50905D01*
X46358Y-51246D01*
X46393Y-51281D01*
X47016Y-51281D01*
X47067Y-51260D01*
X47104Y-51223D01*
X47104Y-51561D01*
X47104Y-51561D01*
G37*
G54D37*
X47104Y-51561D02*
X46992Y-52122D01*
X46870Y-52306D01*
X46870Y-52074D01*
X46870Y-52018D01*
X46870Y-51806D01*
X46870Y-51736D01*
X46870Y-51524D01*
X46870Y-51468D01*
X46848Y-51417D01*
X46809Y-51378D01*
X46757Y-51356D01*
X46590Y-51356D01*
X46555Y-51391D01*
X46555Y-51771D01*
X46835Y-51771D01*
X46870Y-51736D01*
X46870Y-51806D01*
X46835Y-51771D01*
X46555Y-51771D01*
X46555Y-52151D01*
X46590Y-52186D01*
X46757Y-52186D01*
X46809Y-52165D01*
X46848Y-52125D01*
X46870Y-52074D01*
X46870Y-52306D01*
X46682Y-52587D01*
X46554Y-52672D01*
X46554Y-52151D01*
X46554Y-51771D01*
X46554Y-51771D01*
X46554Y-51391D01*
X46519Y-51356D01*
X46358Y-51356D01*
X46358Y-51246D01*
X46358Y-50905D01*
X46358Y-50905D01*
X46358Y-50564D01*
X46323Y-50529D01*
X45729Y-50529D01*
X45729Y-49035D01*
X45729Y-47303D01*
X45684Y-47194D01*
X45601Y-47110D01*
X45492Y-47065D01*
X45373Y-47065D01*
X45264Y-47110D01*
X45181Y-47193D01*
X45135Y-47303D01*
X45135Y-47421D01*
X45180Y-47530D01*
X45264Y-47613D01*
X45373Y-47659D01*
X45491Y-47659D01*
X45600Y-47614D01*
X45684Y-47530D01*
X45729Y-47421D01*
X45729Y-47303D01*
X45729Y-49035D01*
X45684Y-48926D01*
X45601Y-48842D01*
X45492Y-48797D01*
X45373Y-48797D01*
X45264Y-48842D01*
X45181Y-48925D01*
X45135Y-49035D01*
X45135Y-49153D01*
X45180Y-49262D01*
X45264Y-49345D01*
X45373Y-49391D01*
X45491Y-49391D01*
X45600Y-49346D01*
X45684Y-49262D01*
X45729Y-49153D01*
X45729Y-49035D01*
X45729Y-50529D01*
X45700Y-50529D01*
X45649Y-50550D01*
X45609Y-50590D01*
X45588Y-50641D01*
X45588Y-50697D01*
X45588Y-50870D01*
X45623Y-50905D01*
X46358Y-50905D01*
X46358Y-50905D01*
X45623Y-50905D01*
X45588Y-50940D01*
X45588Y-51113D01*
X45588Y-51169D01*
X45609Y-51221D01*
X45649Y-51260D01*
X45700Y-51281D01*
X46323Y-51281D01*
X46358Y-51246D01*
X46358Y-51356D01*
X46352Y-51356D01*
X46300Y-51378D01*
X46261Y-51417D01*
X46240Y-51468D01*
X46240Y-51524D01*
X46240Y-51736D01*
X46275Y-51771D01*
X46554Y-51771D01*
X46554Y-51771D01*
X46275Y-51771D01*
X46240Y-51806D01*
X46240Y-52018D01*
X46240Y-52074D01*
X46261Y-52125D01*
X46300Y-52165D01*
X46352Y-52186D01*
X46519Y-52186D01*
X46554Y-52151D01*
X46554Y-52672D01*
X46350Y-52809D01*
X46350Y-52705D01*
X46350Y-52649D01*
X46350Y-52594D01*
X46350Y-52523D01*
X46350Y-52468D01*
X46350Y-52413D01*
X46329Y-52361D01*
X46289Y-52322D01*
X46238Y-52300D01*
X46137Y-52300D01*
X46102Y-52335D01*
X46102Y-52558D01*
X46315Y-52558D01*
X46350Y-52523D01*
X46350Y-52594D01*
X46315Y-52559D01*
X46102Y-52559D01*
X46102Y-52782D01*
X46137Y-52817D01*
X46238Y-52817D01*
X46289Y-52795D01*
X46329Y-52756D01*
X46350Y-52705D01*
X46350Y-52809D01*
X46217Y-52898D01*
X46102Y-52921D01*
X46102Y-52782D01*
X46102Y-52559D01*
X46094Y-52559D01*
X46094Y-52558D01*
X46102Y-52558D01*
X46102Y-52335D01*
X46067Y-52300D01*
X45966Y-52300D01*
X45914Y-52322D01*
X45875Y-52361D01*
X45855Y-52410D01*
X45839Y-52372D01*
X45806Y-52339D01*
X45762Y-52320D01*
X45714Y-52320D01*
X45497Y-52320D01*
X45453Y-52339D01*
X45419Y-52372D01*
X45416Y-52380D01*
X45046Y-52380D01*
X45043Y-52372D01*
X45009Y-52338D01*
X44965Y-52320D01*
X44917Y-52320D01*
X44617Y-52320D01*
X44573Y-52338D01*
X44539Y-52372D01*
X44521Y-52416D01*
X44521Y-52464D01*
X44521Y-52664D01*
X44539Y-52708D01*
X44573Y-52742D01*
X44617Y-52760D01*
X44665Y-52760D01*
X44965Y-52760D01*
X45009Y-52742D01*
X45043Y-52708D01*
X45046Y-52700D01*
X45401Y-52700D01*
X45401Y-52701D01*
X45419Y-52745D01*
X45453Y-52778D01*
X45497Y-52797D01*
X45545Y-52797D01*
X45762Y-52797D01*
X45806Y-52778D01*
X45839Y-52745D01*
X45855Y-52707D01*
X45875Y-52756D01*
X45914Y-52795D01*
X45966Y-52817D01*
X46067Y-52817D01*
X46102Y-52782D01*
X46102Y-52921D01*
X45655Y-53010D01*
X42900Y-53010D01*
X42900Y-52439D01*
X42625Y-52165D01*
X42351Y-52439D01*
X42377Y-52507D01*
X42527Y-52576D01*
X42692Y-52583D01*
X42847Y-52525D01*
X42874Y-52507D01*
X42900Y-52439D01*
X42900Y-53010D01*
X39730Y-53010D01*
X39730Y-52664D01*
X39730Y-52616D01*
X39730Y-52416D01*
X39712Y-52372D01*
X39678Y-52338D01*
X39634Y-52320D01*
X39586Y-52320D01*
X39286Y-52320D01*
X39242Y-52338D01*
X39208Y-52372D01*
X39190Y-52416D01*
X39190Y-52464D01*
X39190Y-52664D01*
X39208Y-52708D01*
X39242Y-52742D01*
X39286Y-52760D01*
X39334Y-52760D01*
X39634Y-52760D01*
X39678Y-52742D01*
X39712Y-52708D01*
X39730Y-52664D01*
X39730Y-53010D01*
X38997Y-53010D01*
X38997Y-52860D01*
X38997Y-52692D01*
X38997Y-52622D01*
X38997Y-52454D01*
X38976Y-52403D01*
X38936Y-52363D01*
X38885Y-52342D01*
X38829Y-52342D01*
X38617Y-52342D01*
X38582Y-52377D01*
X38582Y-52657D01*
X38962Y-52657D01*
X38997Y-52622D01*
X38997Y-52692D01*
X38962Y-52657D01*
X38582Y-52657D01*
X38582Y-52937D01*
X38617Y-52972D01*
X38829Y-52972D01*
X38885Y-52972D01*
X38936Y-52951D01*
X38976Y-52911D01*
X38997Y-52860D01*
X38997Y-53010D01*
X38582Y-53010D01*
X38582Y-52937D01*
X38582Y-52657D01*
X38582Y-52657D01*
X38582Y-52377D01*
X38547Y-52342D01*
X38335Y-52342D01*
X38279Y-52342D01*
X38228Y-52363D01*
X38189Y-52403D01*
X38167Y-52454D01*
X38167Y-52622D01*
X38202Y-52657D01*
X38582Y-52657D01*
X38582Y-52657D01*
X38202Y-52657D01*
X38167Y-52692D01*
X38167Y-52860D01*
X38189Y-52911D01*
X38228Y-52951D01*
X38279Y-52972D01*
X38335Y-52972D01*
X38547Y-52972D01*
X38582Y-52937D01*
X38582Y-53010D01*
X29147Y-53010D01*
X28585Y-52898D01*
X28120Y-52587D01*
X27810Y-52122D01*
X27698Y-51561D01*
X27698Y-44895D01*
X27810Y-44333D01*
X28120Y-43868D01*
X28585Y-43558D01*
X29147Y-43446D01*
X45655Y-43446D01*
X46217Y-43558D01*
X46682Y-43868D01*
X46992Y-44333D01*
X47104Y-44895D01*
X47104Y-45234D01*
X46787Y-45234D01*
X46752Y-45269D01*
X46752Y-45669D01*
X46760Y-45669D01*
X46760Y-45669D01*
X46752Y-45669D01*
X46752Y-46069D01*
X46787Y-46104D01*
X46789Y-46104D01*
X46789Y-46133D01*
X46789Y-46189D01*
X46810Y-46240D01*
X46849Y-46280D01*
X46901Y-46301D01*
X46992Y-46301D01*
X47027Y-46266D01*
X47027Y-46104D01*
X47027Y-46104D01*
X47027Y-46266D01*
X47062Y-46301D01*
X47104Y-46301D01*
X47104Y-50587D01*
X47067Y-50550D01*
X47016Y-50529D01*
X46751Y-50529D01*
X46751Y-46069D01*
X46751Y-45669D01*
X46751Y-45669D01*
X46751Y-45269D01*
X46716Y-45234D01*
X46367Y-45234D01*
X46367Y-44213D01*
X46307Y-44067D01*
X46196Y-43956D01*
X46051Y-43896D01*
X45894Y-43896D01*
X45749Y-43956D01*
X45637Y-44067D01*
X45577Y-44212D01*
X45577Y-44369D01*
X45603Y-44433D01*
X44803Y-45233D01*
X44256Y-45233D01*
X44803Y-44686D01*
X45271Y-44686D01*
X45315Y-44668D01*
X45349Y-44634D01*
X45367Y-44590D01*
X45367Y-44542D01*
X45367Y-43992D01*
X45349Y-43948D01*
X45315Y-43914D01*
X45271Y-43896D01*
X45223Y-43896D01*
X44803Y-43896D01*
X44613Y-43705D01*
X44561Y-43671D01*
X44500Y-43658D01*
X36653Y-43658D01*
X36602Y-43669D01*
X36592Y-43671D01*
X36540Y-43705D01*
X36389Y-43856D01*
X36245Y-43856D01*
X36201Y-43874D01*
X36167Y-43908D01*
X36149Y-43952D01*
X36149Y-44000D01*
X36149Y-44236D01*
X36166Y-44275D01*
X36151Y-44290D01*
X36129Y-44342D01*
X36129Y-44397D01*
X36129Y-44453D01*
X36164Y-44487D01*
X36377Y-44487D01*
X36377Y-44480D01*
X36378Y-44480D01*
X36378Y-44487D01*
X36386Y-44487D01*
X36386Y-44488D01*
X36378Y-44488D01*
X36378Y-44711D01*
X36413Y-44746D01*
X36514Y-44746D01*
X36565Y-44724D01*
X36604Y-44685D01*
X36624Y-44636D01*
X36640Y-44674D01*
X36674Y-44707D01*
X36718Y-44726D01*
X36765Y-44726D01*
X36982Y-44726D01*
X37026Y-44707D01*
X37060Y-44674D01*
X37078Y-44630D01*
X37078Y-44582D01*
X37078Y-44346D01*
X37060Y-44302D01*
X37049Y-44291D01*
X37060Y-44280D01*
X37071Y-44254D01*
X37490Y-44254D01*
X37490Y-44590D01*
X37509Y-44634D01*
X37542Y-44668D01*
X37586Y-44686D01*
X37634Y-44686D01*
X38184Y-44686D01*
X38228Y-44668D01*
X38262Y-44634D01*
X38280Y-44590D01*
X38280Y-44542D01*
X38280Y-43992D01*
X38275Y-43978D01*
X38639Y-43978D01*
X38551Y-44067D01*
X38490Y-44212D01*
X38490Y-44369D01*
X38550Y-44514D01*
X38661Y-44625D01*
X38806Y-44686D01*
X38964Y-44686D01*
X39109Y-44626D01*
X39220Y-44515D01*
X39280Y-44370D01*
X39280Y-44213D01*
X39220Y-44067D01*
X39131Y-43978D01*
X40183Y-43978D01*
X40094Y-44067D01*
X40066Y-44133D01*
X40017Y-44143D01*
X39965Y-44178D01*
X38075Y-46067D01*
X38041Y-46119D01*
X38029Y-46181D01*
X38029Y-46268D01*
X38004Y-46257D01*
X37956Y-46257D01*
X37743Y-46257D01*
X37716Y-46269D01*
X37689Y-46257D01*
X37641Y-46257D01*
X37428Y-46257D01*
X37401Y-46269D01*
X37374Y-46257D01*
X37326Y-46257D01*
X37113Y-46257D01*
X37086Y-46269D01*
X37069Y-46262D01*
X37069Y-45844D01*
X37069Y-45743D01*
X37034Y-45708D01*
X36811Y-45708D01*
X36811Y-45921D01*
X36846Y-45956D01*
X36901Y-45956D01*
X36956Y-45956D01*
X37008Y-45935D01*
X37047Y-45896D01*
X37069Y-45844D01*
X37069Y-46262D01*
X37059Y-46257D01*
X37011Y-46257D01*
X36798Y-46257D01*
X36774Y-46268D01*
X36774Y-46259D01*
X36761Y-46198D01*
X36727Y-46146D01*
X36577Y-45996D01*
X36577Y-45929D01*
X36598Y-45920D01*
X36613Y-45935D01*
X36665Y-45956D01*
X36720Y-45956D01*
X36775Y-45956D01*
X36810Y-45921D01*
X36810Y-45708D01*
X36802Y-45708D01*
X36802Y-45708D01*
X36810Y-45708D01*
X36810Y-45700D01*
X36811Y-45700D01*
X36811Y-45708D01*
X37034Y-45708D01*
X37069Y-45673D01*
X37069Y-45572D01*
X37047Y-45521D01*
X37008Y-45481D01*
X36959Y-45461D01*
X36997Y-45446D01*
X37030Y-45412D01*
X37037Y-45396D01*
X38242Y-45396D01*
X38311Y-45464D01*
X38410Y-45506D01*
X38518Y-45506D01*
X38617Y-45465D01*
X38693Y-45389D01*
X38734Y-45290D01*
X38734Y-45182D01*
X38693Y-45083D01*
X38617Y-45007D01*
X38518Y-44966D01*
X38411Y-44966D01*
X38311Y-45007D01*
X38242Y-45076D01*
X37037Y-45076D01*
X37030Y-45060D01*
X36997Y-45026D01*
X36952Y-45007D01*
X36905Y-45007D01*
X36669Y-45007D01*
X36624Y-45026D01*
X36614Y-45037D01*
X36603Y-45026D01*
X36559Y-45007D01*
X36511Y-45007D01*
X36377Y-45007D01*
X36377Y-44711D01*
X36377Y-44488D01*
X36164Y-44488D01*
X36129Y-44523D01*
X36129Y-44578D01*
X36129Y-44634D01*
X36151Y-44685D01*
X36190Y-44724D01*
X36241Y-44746D01*
X36342Y-44746D01*
X36377Y-44711D01*
X36377Y-45007D01*
X36275Y-45007D01*
X36236Y-45024D01*
X36221Y-45009D01*
X36169Y-44987D01*
X36113Y-44987D01*
X36058Y-44987D01*
X36023Y-45022D01*
X36023Y-45236D01*
X36031Y-45236D01*
X36031Y-45236D01*
X36023Y-45236D01*
X36023Y-45244D01*
X36023Y-45244D01*
X36023Y-45236D01*
X36015Y-45236D01*
X36015Y-45236D01*
X36023Y-45236D01*
X36023Y-45022D01*
X35988Y-44987D01*
X35933Y-44987D01*
X35877Y-44987D01*
X35858Y-44996D01*
X35858Y-44995D01*
X35899Y-44896D01*
X35899Y-44789D01*
X35858Y-44689D01*
X35783Y-44613D01*
X35683Y-44572D01*
X35576Y-44572D01*
X35477Y-44613D01*
X35401Y-44689D01*
X35360Y-44788D01*
X35359Y-44895D01*
X35400Y-44995D01*
X35437Y-45032D01*
X35433Y-45037D01*
X35422Y-45026D01*
X35378Y-45007D01*
X35330Y-45007D01*
X35094Y-45007D01*
X35050Y-45026D01*
X35039Y-45037D01*
X35028Y-45026D01*
X34984Y-45007D01*
X34936Y-45007D01*
X34700Y-45007D01*
X34661Y-45024D01*
X34646Y-45009D01*
X34594Y-44987D01*
X34539Y-44987D01*
X34484Y-44987D01*
X34449Y-45022D01*
X34449Y-45236D01*
X34456Y-45236D01*
X34456Y-45236D01*
X34449Y-45236D01*
X34449Y-45244D01*
X34448Y-45244D01*
X34448Y-45236D01*
X34448Y-45236D01*
X34448Y-45022D01*
X34413Y-44987D01*
X34358Y-44987D01*
X34302Y-44987D01*
X34251Y-45009D01*
X34201Y-44987D01*
X34145Y-44987D01*
X34090Y-44987D01*
X34055Y-45022D01*
X34055Y-45236D01*
X34225Y-45236D01*
X34278Y-45236D01*
X34448Y-45236D01*
X34448Y-45236D01*
X34278Y-45236D01*
X34225Y-45236D01*
X34055Y-45236D01*
X34055Y-45244D01*
X34054Y-45244D01*
X34054Y-45236D01*
X34054Y-45236D01*
X34054Y-45022D01*
X34019Y-44987D01*
X33964Y-44987D01*
X33909Y-44987D01*
X33857Y-45009D01*
X33818Y-45048D01*
X33797Y-45100D01*
X33797Y-45201D01*
X33832Y-45236D01*
X34054Y-45236D01*
X34054Y-45236D01*
X33832Y-45236D01*
X33797Y-45271D01*
X33797Y-45372D01*
X33818Y-45423D01*
X33857Y-45463D01*
X33906Y-45483D01*
X33869Y-45498D01*
X33835Y-45532D01*
X33817Y-45576D01*
X33817Y-45624D01*
X33817Y-45840D01*
X33835Y-45884D01*
X33869Y-45918D01*
X33913Y-45936D01*
X33960Y-45936D01*
X34197Y-45936D01*
X34241Y-45918D01*
X34251Y-45907D01*
X34262Y-45918D01*
X34306Y-45936D01*
X34354Y-45936D01*
X34590Y-45936D01*
X34634Y-45918D01*
X34645Y-45907D01*
X34656Y-45918D01*
X34682Y-45929D01*
X34682Y-46023D01*
X34694Y-46084D01*
X34729Y-46136D01*
X35398Y-46806D01*
X35398Y-46806D01*
X35450Y-46840D01*
X35511Y-46852D01*
X35760Y-46852D01*
X35787Y-46879D01*
X35753Y-46879D01*
X35718Y-46914D01*
X35718Y-47125D01*
X35726Y-47125D01*
X35726Y-47126D01*
X35718Y-47126D01*
X35718Y-47134D01*
X35718Y-47134D01*
X35718Y-47126D01*
X35718Y-47125D01*
X35718Y-46914D01*
X35683Y-46879D01*
X35579Y-46879D01*
X35523Y-46879D01*
X35471Y-46901D01*
X35432Y-46940D01*
X35411Y-46991D01*
X35411Y-47090D01*
X35446Y-47125D01*
X35718Y-47125D01*
X35718Y-47126D01*
X35446Y-47126D01*
X35411Y-47161D01*
X35411Y-47260D01*
X35419Y-47280D01*
X35381Y-47280D01*
X35231Y-47130D01*
X35179Y-47096D01*
X35118Y-47084D01*
X35102Y-47084D01*
X35093Y-47062D01*
X35108Y-47047D01*
X35130Y-46996D01*
X35130Y-46940D01*
X35130Y-46885D01*
X35130Y-46815D01*
X35130Y-46760D01*
X35130Y-46704D01*
X35108Y-46653D01*
X35069Y-46613D01*
X35017Y-46592D01*
X34917Y-46592D01*
X34882Y-46627D01*
X34882Y-46850D01*
X35095Y-46850D01*
X35130Y-46815D01*
X35130Y-46885D01*
X35095Y-46850D01*
X34882Y-46850D01*
X34882Y-46858D01*
X34881Y-46858D01*
X34881Y-46850D01*
X34873Y-46850D01*
X34873Y-46850D01*
X34881Y-46850D01*
X34881Y-46627D01*
X34846Y-46592D01*
X34745Y-46592D01*
X34694Y-46613D01*
X34654Y-46653D01*
X34634Y-46701D01*
X34619Y-46664D01*
X34585Y-46630D01*
X34541Y-46612D01*
X34493Y-46612D01*
X34277Y-46612D01*
X34233Y-46630D01*
X34199Y-46664D01*
X34196Y-46670D01*
X33420Y-46670D01*
X31465Y-44715D01*
X31407Y-44676D01*
X31396Y-44673D01*
X31338Y-44662D01*
X31338Y-44662D01*
X29370Y-44662D01*
X28503Y-44662D01*
X28503Y-44662D01*
X28435Y-44676D01*
X28415Y-44689D01*
X28376Y-44715D01*
X28376Y-44715D01*
X28179Y-44912D01*
X28140Y-44970D01*
X28138Y-44981D01*
X28127Y-45039D01*
X28127Y-45039D01*
X28127Y-46801D01*
X28127Y-46811D01*
X28127Y-48695D01*
X28078Y-48744D01*
X28037Y-48843D01*
X28037Y-48951D01*
X28078Y-49050D01*
X28127Y-49099D01*
X28127Y-50354D01*
X28127Y-50669D01*
X28127Y-51161D01*
X28097Y-51191D01*
X28078Y-51235D01*
X28078Y-51283D01*
X28078Y-51519D01*
X28097Y-51564D01*
X28127Y-51594D01*
X28127Y-51773D01*
X28114Y-51778D01*
X28038Y-51854D01*
X27997Y-51953D01*
X27997Y-52061D01*
X28038Y-52160D01*
X28114Y-52236D01*
X28213Y-52277D01*
X28283Y-52277D01*
X28494Y-52489D01*
X28494Y-52489D01*
X28553Y-52528D01*
X28553Y-52528D01*
X28564Y-52530D01*
X28622Y-52542D01*
X28622Y-52542D01*
X28622Y-52542D01*
X33350Y-52542D01*
X33731Y-52922D01*
X33731Y-52922D01*
X33731Y-52922D01*
X33789Y-52961D01*
X33789Y-52961D01*
X33800Y-52963D01*
X33858Y-52975D01*
X33858Y-52975D01*
X33858Y-52975D01*
X37401Y-52975D01*
X37401Y-52975D01*
X37401Y-52975D01*
X37459Y-52963D01*
X37470Y-52961D01*
X37470Y-52961D01*
X37528Y-52922D01*
X38483Y-51968D01*
X38542Y-51968D01*
X38542Y-51968D01*
X38582Y-51994D01*
X38607Y-52012D01*
X38607Y-52012D01*
X38699Y-52030D01*
X38699Y-52030D01*
X38699Y-52030D01*
X39460Y-52030D01*
X39552Y-52012D01*
X39555Y-52010D01*
X39634Y-52010D01*
X39678Y-51992D01*
X39712Y-51958D01*
X39730Y-51914D01*
X39730Y-51866D01*
X39730Y-51762D01*
X39875Y-51908D01*
X39807Y-51936D01*
X39731Y-52012D01*
X39690Y-52111D01*
X39690Y-52218D01*
X39731Y-52318D01*
X39807Y-52394D01*
X39906Y-52435D01*
X40004Y-52435D01*
X40190Y-52621D01*
X40190Y-52664D01*
X40208Y-52708D01*
X40242Y-52742D01*
X40286Y-52760D01*
X40334Y-52760D01*
X40634Y-52760D01*
X40678Y-52742D01*
X40712Y-52708D01*
X40730Y-52664D01*
X40730Y-52616D01*
X40730Y-52416D01*
X40712Y-52372D01*
X40706Y-52366D01*
X40729Y-52344D01*
X40750Y-52293D01*
X40750Y-52200D01*
X40715Y-52165D01*
X40460Y-52165D01*
X40460Y-52173D01*
X40460Y-52173D01*
X40460Y-52165D01*
X40452Y-52165D01*
X40452Y-52165D01*
X40460Y-52165D01*
X40460Y-52157D01*
X40460Y-52157D01*
X40460Y-52165D01*
X40715Y-52165D01*
X40750Y-52130D01*
X40750Y-52037D01*
X40747Y-52030D01*
X41151Y-52030D01*
X41231Y-52109D01*
X41231Y-52464D01*
X41249Y-52508D01*
X41283Y-52542D01*
X41327Y-52560D01*
X41374Y-52560D01*
X41924Y-52560D01*
X41968Y-52542D01*
X42002Y-52508D01*
X42020Y-52464D01*
X42020Y-52416D01*
X42020Y-52109D01*
X42237Y-51893D01*
X42344Y-51893D01*
X42283Y-51916D01*
X42214Y-52066D01*
X42208Y-52231D01*
X42265Y-52386D01*
X42283Y-52413D01*
X42351Y-52439D01*
X42625Y-52165D01*
X42620Y-52159D01*
X42620Y-52159D01*
X42625Y-52165D01*
X42631Y-52159D01*
X42631Y-52159D01*
X42626Y-52165D01*
X42900Y-52439D01*
X42968Y-52413D01*
X43037Y-52263D01*
X43043Y-52098D01*
X42986Y-51944D01*
X42968Y-51916D01*
X42906Y-51893D01*
X43521Y-51893D01*
X43521Y-51914D01*
X43539Y-51958D01*
X43545Y-51963D01*
X43522Y-51986D01*
X43501Y-52037D01*
X43501Y-52130D01*
X43536Y-52165D01*
X43791Y-52165D01*
X43791Y-52157D01*
X43791Y-52157D01*
X43791Y-52165D01*
X43799Y-52165D01*
X43799Y-52165D01*
X43791Y-52165D01*
X43791Y-52173D01*
X43791Y-52173D01*
X43791Y-52165D01*
X43536Y-52165D01*
X43501Y-52200D01*
X43501Y-52293D01*
X43522Y-52344D01*
X43545Y-52366D01*
X43539Y-52372D01*
X43521Y-52416D01*
X43521Y-52464D01*
X43521Y-52664D01*
X43539Y-52708D01*
X43573Y-52742D01*
X43617Y-52760D01*
X43665Y-52760D01*
X43965Y-52760D01*
X44009Y-52742D01*
X44043Y-52708D01*
X44061Y-52664D01*
X44061Y-52616D01*
X44061Y-52582D01*
X44286Y-52357D01*
X44286Y-52357D01*
X44321Y-52305D01*
X44333Y-52244D01*
X44333Y-51740D01*
X44368Y-51754D01*
X44521Y-51907D01*
X44521Y-51914D01*
X44539Y-51958D01*
X44573Y-51992D01*
X44617Y-52010D01*
X44648Y-52010D01*
X44648Y-52010D01*
X44651Y-52012D01*
X44651Y-52012D01*
X44666Y-52015D01*
X44743Y-52030D01*
X44743Y-52030D01*
X44743Y-52030D01*
X44791Y-52030D01*
X45275Y-52030D01*
X45275Y-52070D01*
X45294Y-52114D01*
X45327Y-52148D01*
X45372Y-52166D01*
X45419Y-52166D01*
X45769Y-52166D01*
X45813Y-52148D01*
X45847Y-52114D01*
X45865Y-52070D01*
X45865Y-52022D01*
X45865Y-51472D01*
X45847Y-51428D01*
X45813Y-51394D01*
X45769Y-51376D01*
X45722Y-51376D01*
X45372Y-51376D01*
X45327Y-51394D01*
X45294Y-51428D01*
X45275Y-51472D01*
X45275Y-51520D01*
X45275Y-51550D01*
X45238Y-51550D01*
X45238Y-51169D01*
X45238Y-51113D01*
X45238Y-50940D01*
X45238Y-50870D01*
X45238Y-50697D01*
X45238Y-50641D01*
X45217Y-50590D01*
X45177Y-50550D01*
X45126Y-50529D01*
X44976Y-50529D01*
X44941Y-50564D01*
X44941Y-50905D01*
X45203Y-50905D01*
X45238Y-50870D01*
X45238Y-50940D01*
X45203Y-50905D01*
X44941Y-50905D01*
X44941Y-51246D01*
X44976Y-51281D01*
X45126Y-51281D01*
X45177Y-51260D01*
X45217Y-51221D01*
X45238Y-51169D01*
X45238Y-51550D01*
X44842Y-51550D01*
X44707Y-51415D01*
X44677Y-51343D01*
X44634Y-51300D01*
X44922Y-51300D01*
X44922Y-51265D01*
X44940Y-51246D01*
X44940Y-50905D01*
X44932Y-50905D01*
X44932Y-50905D01*
X44940Y-50905D01*
X44940Y-50564D01*
X44905Y-50529D01*
X44755Y-50529D01*
X44704Y-50550D01*
X44664Y-50590D01*
X44648Y-50628D01*
X43931Y-50628D01*
X43931Y-49159D01*
X43890Y-49059D01*
X43821Y-48990D01*
X43821Y-47924D01*
X43852Y-47849D01*
X43852Y-47741D01*
X43811Y-47642D01*
X43735Y-47566D01*
X43636Y-47525D01*
X43529Y-47525D01*
X43429Y-47566D01*
X43353Y-47642D01*
X43312Y-47741D01*
X43312Y-47848D01*
X43353Y-47947D01*
X43429Y-48024D01*
X43501Y-48053D01*
X43501Y-48990D01*
X43432Y-49059D01*
X43391Y-49158D01*
X43391Y-49266D01*
X43432Y-49365D01*
X43508Y-49441D01*
X43607Y-49482D01*
X43714Y-49482D01*
X43814Y-49441D01*
X43890Y-49365D01*
X43931Y-49266D01*
X43931Y-49159D01*
X43931Y-50628D01*
X42870Y-50628D01*
X42854Y-50590D01*
X42815Y-50550D01*
X42764Y-50529D01*
X42535Y-50529D01*
X42500Y-50564D01*
X42500Y-50628D01*
X42499Y-50628D01*
X42499Y-50564D01*
X42464Y-50529D01*
X42235Y-50529D01*
X42184Y-50550D01*
X42145Y-50590D01*
X42129Y-50628D01*
X41183Y-50628D01*
X41183Y-50625D01*
X41148Y-50590D01*
X40807Y-50590D01*
X40807Y-50598D01*
X40806Y-50598D01*
X40806Y-50590D01*
X40799Y-50590D01*
X40799Y-50590D01*
X40806Y-50590D01*
X40806Y-50582D01*
X40807Y-50582D01*
X40807Y-50590D01*
X41148Y-50590D01*
X41183Y-50555D01*
X41183Y-50480D01*
X41183Y-50439D01*
X41189Y-50436D01*
X41223Y-50402D01*
X41242Y-50358D01*
X41242Y-50310D01*
X41242Y-50035D01*
X41223Y-49991D01*
X41212Y-49980D01*
X41223Y-49969D01*
X41242Y-49925D01*
X41242Y-49877D01*
X41242Y-49602D01*
X41225Y-49562D01*
X41240Y-49547D01*
X41262Y-49496D01*
X41262Y-49440D01*
X41262Y-49365D01*
X41227Y-49330D01*
X40846Y-49330D01*
X40846Y-49338D01*
X40846Y-49338D01*
X40846Y-49330D01*
X40465Y-49330D01*
X40444Y-49352D01*
X40396Y-49303D01*
X40396Y-49035D01*
X40411Y-49045D01*
X40450Y-49053D01*
X40450Y-49059D01*
X40467Y-49098D01*
X40452Y-49113D01*
X40430Y-49165D01*
X40430Y-49220D01*
X40430Y-49295D01*
X40465Y-49330D01*
X40846Y-49330D01*
X40846Y-49322D01*
X40846Y-49322D01*
X40846Y-49330D01*
X41227Y-49330D01*
X41262Y-49295D01*
X41262Y-49220D01*
X41262Y-49165D01*
X41240Y-49113D01*
X41225Y-49098D01*
X41242Y-49059D01*
X41242Y-49011D01*
X41242Y-48749D01*
X41264Y-48772D01*
X41363Y-48813D01*
X41470Y-48813D01*
X41570Y-48772D01*
X41646Y-48696D01*
X41687Y-48597D01*
X41687Y-48527D01*
X43040Y-47174D01*
X43040Y-47174D01*
X43040Y-47174D01*
X43066Y-47135D01*
X43079Y-47116D01*
X43079Y-47116D01*
X43093Y-47047D01*
X43093Y-47047D01*
X43093Y-47047D01*
X43093Y-46658D01*
X43142Y-46609D01*
X43183Y-46510D01*
X43183Y-46403D01*
X43142Y-46303D01*
X43066Y-46227D01*
X42967Y-46186D01*
X42859Y-46186D01*
X42760Y-46227D01*
X42684Y-46303D01*
X42643Y-46402D01*
X42643Y-46510D01*
X42684Y-46609D01*
X42733Y-46658D01*
X42733Y-46972D01*
X41766Y-47940D01*
X41766Y-46442D01*
X41725Y-46343D01*
X41649Y-46267D01*
X41549Y-46226D01*
X41442Y-46226D01*
X41343Y-46267D01*
X41267Y-46342D01*
X41262Y-46355D01*
X41262Y-46248D01*
X41262Y-46192D01*
X41240Y-46141D01*
X41201Y-46101D01*
X41149Y-46080D01*
X40881Y-46080D01*
X40846Y-46115D01*
X40846Y-46417D01*
X40854Y-46417D01*
X40854Y-46417D01*
X40846Y-46417D01*
X40846Y-46719D01*
X40881Y-46754D01*
X41149Y-46754D01*
X41201Y-46732D01*
X41240Y-46693D01*
X41262Y-46642D01*
X41262Y-46636D01*
X41267Y-46648D01*
X41342Y-46724D01*
X41442Y-46765D01*
X41549Y-46766D01*
X41648Y-46725D01*
X41724Y-46649D01*
X41765Y-46549D01*
X41766Y-46442D01*
X41766Y-47940D01*
X41687Y-48018D01*
X41687Y-47978D01*
X41646Y-47878D01*
X41570Y-47802D01*
X41471Y-47761D01*
X41363Y-47761D01*
X41264Y-47802D01*
X41228Y-47838D01*
X41223Y-47825D01*
X41212Y-47814D01*
X41223Y-47804D01*
X41242Y-47760D01*
X41242Y-47712D01*
X41242Y-47436D01*
X41223Y-47392D01*
X41212Y-47381D01*
X41223Y-47371D01*
X41242Y-47327D01*
X41242Y-47279D01*
X41242Y-47003D01*
X41223Y-46959D01*
X41189Y-46925D01*
X41145Y-46907D01*
X41098Y-46907D01*
X40846Y-46907D01*
X40846Y-46719D01*
X40846Y-46417D01*
X40846Y-46417D01*
X40846Y-46115D01*
X40811Y-46080D01*
X40543Y-46080D01*
X40491Y-46101D01*
X40452Y-46141D01*
X40430Y-46192D01*
X40430Y-46248D01*
X40430Y-46382D01*
X40465Y-46417D01*
X40846Y-46417D01*
X40846Y-46417D01*
X40465Y-46417D01*
X40430Y-46452D01*
X40430Y-46586D01*
X40430Y-46642D01*
X40452Y-46693D01*
X40491Y-46732D01*
X40543Y-46754D01*
X40811Y-46754D01*
X40846Y-46719D01*
X40846Y-46907D01*
X40547Y-46907D01*
X40502Y-46925D01*
X40469Y-46959D01*
X40450Y-47003D01*
X40450Y-47051D01*
X40450Y-47327D01*
X40469Y-47371D01*
X40479Y-47381D01*
X40469Y-47392D01*
X40450Y-47436D01*
X40450Y-47438D01*
X40184Y-47438D01*
X39758Y-47012D01*
X39706Y-46978D01*
X39645Y-46966D01*
X39359Y-46966D01*
X39353Y-46951D01*
X39319Y-46917D01*
X39275Y-46899D01*
X39228Y-46899D01*
X39074Y-46899D01*
X40420Y-45553D01*
X44870Y-45553D01*
X44870Y-45553D01*
X44931Y-45541D01*
X44983Y-45506D01*
X45830Y-44659D01*
X45893Y-44686D01*
X46050Y-44686D01*
X46195Y-44626D01*
X46307Y-44515D01*
X46367Y-44370D01*
X46367Y-44213D01*
X46367Y-45234D01*
X46350Y-45234D01*
X46298Y-45255D01*
X46259Y-45294D01*
X46237Y-45346D01*
X46237Y-45401D01*
X46237Y-45634D01*
X46272Y-45669D01*
X46751Y-45669D01*
X46751Y-45669D01*
X46272Y-45669D01*
X46237Y-45704D01*
X46237Y-45936D01*
X46237Y-45992D01*
X46259Y-46043D01*
X46298Y-46083D01*
X46350Y-46104D01*
X46716Y-46104D01*
X46751Y-46069D01*
X46751Y-50529D01*
X46393Y-50529D01*
X46358Y-50564D01*
X46358Y-50905D01*
X46366Y-50905D01*
X46366Y-50905D01*
X46358Y-50905D01*
X46358Y-51246D01*
X46393Y-51281D01*
X47016Y-51281D01*
X47067Y-51260D01*
X47104Y-51223D01*
X47104Y-51561D01*
M02*
