G04 (created by PCBNEW (2013-mar-13)-testing) date Mon 25 May 2015 11:56:23 PM EDT*
%MOIN*%
G04 Gerber Fmt 3.4, Leading zero omitted, Abs format*
%FSLAX34Y34*%
G01*
G70*
G90*
G04 APERTURE LIST*
%ADD10C,0.005906*%
%ADD11C,0.005118*%
%ADD12C,0.007874*%
%ADD13C,0.011811*%
%ADD14C,0.003900*%
%ADD15C,0.005000*%
%ADD16C,0.012000*%
%ADD17C,0.002800*%
%ADD18C,0.008000*%
G04 APERTURE END LIST*
G54D10*
G54D11*
X32695Y-45602D02*
X32695Y-45702D01*
X32852Y-45745D02*
X32852Y-45602D01*
X32552Y-45602D01*
X32552Y-45745D01*
X32852Y-45874D02*
X32652Y-45874D01*
X32709Y-45874D02*
X32680Y-45888D01*
X32666Y-45902D01*
X32652Y-45931D01*
X32652Y-45960D01*
X32852Y-46060D02*
X32652Y-46060D01*
X32552Y-46060D02*
X32566Y-46045D01*
X32580Y-46060D01*
X32566Y-46074D01*
X32552Y-46060D01*
X32580Y-46060D01*
X32837Y-46331D02*
X32852Y-46302D01*
X32852Y-46245D01*
X32837Y-46217D01*
X32823Y-46202D01*
X32795Y-46188D01*
X32709Y-46188D01*
X32680Y-46202D01*
X32666Y-46217D01*
X32652Y-46245D01*
X32652Y-46302D01*
X32666Y-46331D01*
X32552Y-46645D02*
X32852Y-46745D01*
X32552Y-46845D01*
X32852Y-47074D02*
X32695Y-47074D01*
X32666Y-47060D01*
X32652Y-47031D01*
X32652Y-46974D01*
X32666Y-46945D01*
X32837Y-47074D02*
X32852Y-47045D01*
X32852Y-46974D01*
X32837Y-46945D01*
X32809Y-46931D01*
X32780Y-46931D01*
X32752Y-46945D01*
X32737Y-46974D01*
X32737Y-47045D01*
X32723Y-47074D01*
X32652Y-47217D02*
X32852Y-47217D01*
X32680Y-47217D02*
X32666Y-47231D01*
X32652Y-47260D01*
X32652Y-47302D01*
X32666Y-47331D01*
X32695Y-47345D01*
X32852Y-47345D01*
X32766Y-47702D02*
X32766Y-47845D01*
X32852Y-47674D02*
X32552Y-47774D01*
X32852Y-47874D01*
X32852Y-48017D02*
X32837Y-47988D01*
X32809Y-47974D01*
X32552Y-47974D01*
X32852Y-48131D02*
X32552Y-48131D01*
X32666Y-48131D02*
X32652Y-48160D01*
X32652Y-48217D01*
X32666Y-48245D01*
X32680Y-48260D01*
X32709Y-48274D01*
X32795Y-48274D01*
X32823Y-48260D01*
X32837Y-48245D01*
X32852Y-48217D01*
X32852Y-48160D01*
X32837Y-48131D01*
X32837Y-48517D02*
X32852Y-48488D01*
X32852Y-48431D01*
X32837Y-48402D01*
X32809Y-48388D01*
X32695Y-48388D01*
X32666Y-48402D01*
X32652Y-48431D01*
X32652Y-48488D01*
X32666Y-48517D01*
X32695Y-48531D01*
X32723Y-48531D01*
X32752Y-48388D01*
X32852Y-48660D02*
X32652Y-48660D01*
X32709Y-48660D02*
X32680Y-48674D01*
X32666Y-48688D01*
X32652Y-48717D01*
X32652Y-48745D01*
X32652Y-48802D02*
X32652Y-48917D01*
X32552Y-48845D02*
X32809Y-48845D01*
X32837Y-48860D01*
X32852Y-48888D01*
X32852Y-48917D01*
G54D12*
X32112Y-43933D02*
X32112Y-44120D01*
X32225Y-43895D02*
X31831Y-44026D01*
X32225Y-44158D01*
X31962Y-44458D02*
X32225Y-44458D01*
X31962Y-44289D02*
X32169Y-44289D01*
X32206Y-44308D01*
X32225Y-44345D01*
X32225Y-44401D01*
X32206Y-44439D01*
X32187Y-44458D01*
X32225Y-44814D02*
X31831Y-44814D01*
X32206Y-44814D02*
X32225Y-44776D01*
X32225Y-44701D01*
X32206Y-44664D01*
X32187Y-44645D01*
X32150Y-44626D01*
X32037Y-44626D01*
X32000Y-44645D01*
X31981Y-44664D01*
X31962Y-44701D01*
X31962Y-44776D01*
X31981Y-44814D01*
X32225Y-45001D02*
X31962Y-45001D01*
X31831Y-45001D02*
X31850Y-44983D01*
X31869Y-45001D01*
X31850Y-45020D01*
X31831Y-45001D01*
X31869Y-45001D01*
X32225Y-45189D02*
X31831Y-45189D01*
X31981Y-45189D02*
X31962Y-45226D01*
X31962Y-45301D01*
X31981Y-45339D01*
X32000Y-45358D01*
X32037Y-45376D01*
X32150Y-45376D01*
X32187Y-45358D01*
X32206Y-45339D01*
X32225Y-45301D01*
X32225Y-45226D01*
X32206Y-45189D01*
X32225Y-45601D02*
X32206Y-45564D01*
X32169Y-45545D01*
X31831Y-45545D01*
X32206Y-45901D02*
X32225Y-45864D01*
X32225Y-45789D01*
X32206Y-45751D01*
X32169Y-45733D01*
X32019Y-45733D01*
X31981Y-45751D01*
X31962Y-45789D01*
X31962Y-45864D01*
X31981Y-45901D01*
X32019Y-45920D01*
X32056Y-45920D01*
X32094Y-45733D01*
X32112Y-46370D02*
X32112Y-46557D01*
X32225Y-46332D02*
X31831Y-46464D01*
X32225Y-46595D01*
X32225Y-46782D02*
X32206Y-46745D01*
X32169Y-46726D01*
X31831Y-46726D01*
X31962Y-46876D02*
X31962Y-47026D01*
X31831Y-46932D02*
X32169Y-46932D01*
X32206Y-46951D01*
X32225Y-46989D01*
X32225Y-47026D01*
X32225Y-47157D02*
X31962Y-47157D01*
X31831Y-47157D02*
X31850Y-47139D01*
X31869Y-47157D01*
X31850Y-47176D01*
X31831Y-47157D01*
X31869Y-47157D01*
X32225Y-47345D02*
X31962Y-47345D01*
X32000Y-47345D02*
X31981Y-47364D01*
X31962Y-47401D01*
X31962Y-47457D01*
X31981Y-47495D01*
X32019Y-47514D01*
X32225Y-47514D01*
X32019Y-47514D02*
X31981Y-47532D01*
X31962Y-47570D01*
X31962Y-47626D01*
X31981Y-47664D01*
X32019Y-47682D01*
X32225Y-47682D01*
X32206Y-48020D02*
X32225Y-47982D01*
X32225Y-47907D01*
X32206Y-47870D01*
X32169Y-47851D01*
X32019Y-47851D01*
X31981Y-47870D01*
X31962Y-47907D01*
X31962Y-47982D01*
X31981Y-48020D01*
X32019Y-48038D01*
X32056Y-48038D01*
X32094Y-47851D01*
X31962Y-48151D02*
X31962Y-48301D01*
X31831Y-48207D02*
X32169Y-48207D01*
X32206Y-48226D01*
X32225Y-48263D01*
X32225Y-48301D01*
X32206Y-48582D02*
X32225Y-48545D01*
X32225Y-48470D01*
X32206Y-48432D01*
X32169Y-48413D01*
X32019Y-48413D01*
X31981Y-48432D01*
X31962Y-48470D01*
X31962Y-48545D01*
X31981Y-48582D01*
X32019Y-48601D01*
X32056Y-48601D01*
X32094Y-48413D01*
X32225Y-48770D02*
X31962Y-48770D01*
X32037Y-48770D02*
X32000Y-48788D01*
X31981Y-48807D01*
X31962Y-48845D01*
X31962Y-48882D01*
X32855Y-43952D02*
X32592Y-43952D01*
X32667Y-43952D02*
X32630Y-43970D01*
X32611Y-43989D01*
X32592Y-44026D01*
X32592Y-44064D01*
X32836Y-44345D02*
X32855Y-44308D01*
X32855Y-44233D01*
X32836Y-44195D01*
X32799Y-44176D01*
X32649Y-44176D01*
X32611Y-44195D01*
X32592Y-44233D01*
X32592Y-44308D01*
X32611Y-44345D01*
X32649Y-44364D01*
X32686Y-44364D01*
X32724Y-44176D01*
X32592Y-44495D02*
X32855Y-44589D01*
X32592Y-44683D01*
X32855Y-45339D02*
X32855Y-45114D01*
X32855Y-45226D02*
X32461Y-45226D01*
X32517Y-45189D01*
X32555Y-45151D01*
X32574Y-45114D01*
G54D11*
X42752Y-51438D02*
X42523Y-51438D01*
X41708Y-51438D02*
X41480Y-51438D01*
X41594Y-51553D02*
X41594Y-51324D01*
G54D13*
X29685Y-47047D02*
G75*
G03X29685Y-47047I-39J0D01*
G74*
G01*
G54D10*
X29921Y-47047D02*
X31102Y-47047D01*
X31102Y-47047D02*
X31102Y-45078D01*
X31102Y-45078D02*
X29921Y-45078D01*
X29921Y-45078D02*
X29921Y-47047D01*
G54D14*
X39668Y-51087D02*
X40068Y-51087D01*
X40068Y-51087D02*
X40068Y-50487D01*
X40068Y-50487D02*
X39668Y-50487D01*
X39071Y-50487D02*
X38671Y-50487D01*
X38671Y-50487D02*
X38671Y-51087D01*
X38671Y-51087D02*
X39071Y-51087D01*
X38882Y-51866D02*
X38882Y-51466D01*
X38882Y-51466D02*
X38282Y-51466D01*
X38282Y-51466D02*
X38282Y-51866D01*
X38282Y-52463D02*
X38282Y-52863D01*
X38282Y-52863D02*
X38882Y-52863D01*
X38882Y-52863D02*
X38882Y-52463D01*
X45764Y-51471D02*
X45364Y-51471D01*
X45364Y-51471D02*
X45364Y-52071D01*
X45364Y-52071D02*
X45764Y-52071D01*
X46361Y-52071D02*
X46761Y-52071D01*
X46761Y-52071D02*
X46761Y-51471D01*
X46761Y-51471D02*
X46361Y-51471D01*
G54D15*
X44641Y-51565D02*
X43941Y-51565D01*
X43941Y-51565D02*
X43941Y-52765D01*
X43941Y-52765D02*
X44641Y-52765D01*
X44641Y-52765D02*
X44641Y-51565D01*
X39610Y-52765D02*
X40310Y-52765D01*
X40310Y-52765D02*
X40310Y-51565D01*
X40310Y-51565D02*
X39610Y-51565D01*
X39610Y-51565D02*
X39610Y-52765D01*
G54D16*
X44472Y-43791D02*
X44472Y-44791D01*
X44472Y-44791D02*
X46472Y-44791D01*
X46472Y-44791D02*
X46472Y-43791D01*
X46472Y-43791D02*
X44472Y-43791D01*
G54D13*
X40649Y-45698D02*
X40649Y-51151D01*
X40649Y-51151D02*
X46948Y-51151D01*
X46948Y-51151D02*
X46948Y-45698D01*
X46948Y-45698D02*
X40649Y-45698D01*
G54D16*
X41125Y-51665D02*
X41125Y-52665D01*
X41125Y-52665D02*
X43125Y-52665D01*
X43125Y-52665D02*
X43125Y-51665D01*
X43125Y-51665D02*
X41125Y-51665D01*
G54D17*
X29332Y-45125D02*
X29532Y-45125D01*
X29532Y-45125D02*
X29532Y-45425D01*
X29532Y-45425D02*
X29332Y-45425D01*
X28935Y-45125D02*
X28735Y-45125D01*
X28735Y-45125D02*
X28735Y-45425D01*
X28735Y-45425D02*
X28935Y-45425D01*
X29332Y-46109D02*
X29532Y-46109D01*
X29532Y-46109D02*
X29532Y-46409D01*
X29532Y-46409D02*
X29332Y-46409D01*
X28935Y-46109D02*
X28735Y-46109D01*
X28735Y-46109D02*
X28735Y-46409D01*
X28735Y-46409D02*
X28935Y-46409D01*
X29214Y-49456D02*
X29414Y-49456D01*
X29414Y-49456D02*
X29414Y-49756D01*
X29414Y-49756D02*
X29214Y-49756D01*
X28817Y-49456D02*
X28617Y-49456D01*
X28617Y-49456D02*
X28617Y-49756D01*
X28617Y-49756D02*
X28817Y-49756D01*
X29214Y-50086D02*
X29414Y-50086D01*
X29414Y-50086D02*
X29414Y-50386D01*
X29414Y-50386D02*
X29214Y-50386D01*
X28817Y-50086D02*
X28617Y-50086D01*
X28617Y-50086D02*
X28617Y-50386D01*
X28617Y-50386D02*
X28817Y-50386D01*
X34844Y-49062D02*
X35044Y-49062D01*
X35044Y-49062D02*
X35044Y-49362D01*
X35044Y-49362D02*
X34844Y-49362D01*
X34447Y-49062D02*
X34247Y-49062D01*
X34247Y-49062D02*
X34247Y-49362D01*
X34247Y-49362D02*
X34447Y-49362D01*
X39565Y-50150D02*
X39365Y-50150D01*
X39365Y-50150D02*
X39365Y-49850D01*
X39365Y-49850D02*
X39565Y-49850D01*
X39962Y-50150D02*
X40162Y-50150D01*
X40162Y-50150D02*
X40162Y-49850D01*
X40162Y-49850D02*
X39962Y-49850D01*
X34447Y-47000D02*
X34247Y-47000D01*
X34247Y-47000D02*
X34247Y-46700D01*
X34247Y-46700D02*
X34447Y-46700D01*
X34844Y-47000D02*
X35044Y-47000D01*
X35044Y-47000D02*
X35044Y-46700D01*
X35044Y-46700D02*
X34844Y-46700D01*
X29922Y-51227D02*
X30122Y-51227D01*
X30122Y-51227D02*
X30122Y-51527D01*
X30122Y-51527D02*
X29922Y-51527D01*
X29525Y-51227D02*
X29325Y-51227D01*
X29325Y-51227D02*
X29325Y-51527D01*
X29325Y-51527D02*
X29525Y-51527D01*
X28344Y-51527D02*
X28144Y-51527D01*
X28144Y-51527D02*
X28144Y-51227D01*
X28144Y-51227D02*
X28344Y-51227D01*
X28741Y-51527D02*
X28941Y-51527D01*
X28941Y-51527D02*
X28941Y-51227D01*
X28941Y-51227D02*
X28741Y-51227D01*
X36173Y-45670D02*
X36173Y-45870D01*
X36173Y-45870D02*
X35873Y-45870D01*
X35873Y-45870D02*
X35873Y-45670D01*
X36173Y-45274D02*
X36173Y-45074D01*
X36173Y-45074D02*
X35873Y-45074D01*
X35873Y-45074D02*
X35873Y-45274D01*
X34205Y-45670D02*
X34205Y-45870D01*
X34205Y-45870D02*
X33905Y-45870D01*
X33905Y-45870D02*
X33905Y-45670D01*
X34205Y-45274D02*
X34205Y-45074D01*
X34205Y-45074D02*
X33905Y-45074D01*
X33905Y-45074D02*
X33905Y-45274D01*
X32206Y-49653D02*
X32406Y-49653D01*
X32406Y-49653D02*
X32406Y-49953D01*
X32406Y-49953D02*
X32206Y-49953D01*
X31809Y-49653D02*
X31609Y-49653D01*
X31609Y-49653D02*
X31609Y-49953D01*
X31609Y-49953D02*
X31809Y-49953D01*
X32206Y-50046D02*
X32406Y-50046D01*
X32406Y-50046D02*
X32406Y-50346D01*
X32406Y-50346D02*
X32206Y-50346D01*
X31809Y-50046D02*
X31609Y-50046D01*
X31609Y-50046D02*
X31609Y-50346D01*
X31609Y-50346D02*
X31809Y-50346D01*
X34447Y-49756D02*
X34247Y-49756D01*
X34247Y-49756D02*
X34247Y-49456D01*
X34247Y-49456D02*
X34447Y-49456D01*
X34844Y-49756D02*
X35044Y-49756D01*
X35044Y-49756D02*
X35044Y-49456D01*
X35044Y-49456D02*
X34844Y-49456D01*
X36812Y-43944D02*
X37012Y-43944D01*
X37012Y-43944D02*
X37012Y-44244D01*
X37012Y-44244D02*
X36812Y-44244D01*
X36415Y-43944D02*
X36215Y-43944D01*
X36215Y-43944D02*
X36215Y-44244D01*
X36215Y-44244D02*
X36415Y-44244D01*
X34447Y-48968D02*
X34247Y-48968D01*
X34247Y-48968D02*
X34247Y-48668D01*
X34247Y-48668D02*
X34447Y-48668D01*
X34844Y-48968D02*
X35044Y-48968D01*
X35044Y-48968D02*
X35044Y-48668D01*
X35044Y-48668D02*
X34844Y-48668D01*
X36812Y-44338D02*
X37012Y-44338D01*
X37012Y-44338D02*
X37012Y-44638D01*
X37012Y-44638D02*
X36812Y-44638D01*
X36415Y-44338D02*
X36215Y-44338D01*
X36215Y-44338D02*
X36215Y-44638D01*
X36215Y-44638D02*
X36415Y-44638D01*
X35086Y-45274D02*
X35086Y-45074D01*
X35086Y-45074D02*
X35386Y-45074D01*
X35386Y-45074D02*
X35386Y-45274D01*
X35086Y-45670D02*
X35086Y-45870D01*
X35086Y-45870D02*
X35386Y-45870D01*
X35386Y-45870D02*
X35386Y-45670D01*
X36759Y-50687D02*
X36759Y-50487D01*
X36759Y-50487D02*
X37059Y-50487D01*
X37059Y-50487D02*
X37059Y-50687D01*
X36759Y-51084D02*
X36759Y-51284D01*
X36759Y-51284D02*
X37059Y-51284D01*
X37059Y-51284D02*
X37059Y-51084D01*
X36365Y-50687D02*
X36365Y-50487D01*
X36365Y-50487D02*
X36665Y-50487D01*
X36665Y-50487D02*
X36665Y-50687D01*
X36365Y-51084D02*
X36365Y-51284D01*
X36365Y-51284D02*
X36665Y-51284D01*
X36665Y-51284D02*
X36665Y-51084D01*
X36267Y-45274D02*
X36267Y-45074D01*
X36267Y-45074D02*
X36567Y-45074D01*
X36567Y-45074D02*
X36567Y-45274D01*
X36267Y-45670D02*
X36267Y-45870D01*
X36267Y-45870D02*
X36567Y-45870D01*
X36567Y-45870D02*
X36567Y-45670D01*
X35479Y-45274D02*
X35479Y-45074D01*
X35479Y-45074D02*
X35779Y-45074D01*
X35779Y-45074D02*
X35779Y-45274D01*
X35479Y-45670D02*
X35479Y-45870D01*
X35479Y-45870D02*
X35779Y-45870D01*
X35779Y-45870D02*
X35779Y-45670D01*
X35972Y-50687D02*
X35972Y-50487D01*
X35972Y-50487D02*
X36272Y-50487D01*
X36272Y-50487D02*
X36272Y-50687D01*
X35972Y-51084D02*
X35972Y-51284D01*
X35972Y-51284D02*
X36272Y-51284D01*
X36272Y-51284D02*
X36272Y-51084D01*
X35578Y-50687D02*
X35578Y-50487D01*
X35578Y-50487D02*
X35878Y-50487D01*
X35878Y-50487D02*
X35878Y-50687D01*
X35578Y-51084D02*
X35578Y-51284D01*
X35578Y-51284D02*
X35878Y-51284D01*
X35878Y-51284D02*
X35878Y-51084D01*
X34692Y-45274D02*
X34692Y-45074D01*
X34692Y-45074D02*
X34992Y-45074D01*
X34992Y-45074D02*
X34992Y-45274D01*
X34692Y-45670D02*
X34692Y-45870D01*
X34692Y-45870D02*
X34992Y-45870D01*
X34992Y-45870D02*
X34992Y-45670D01*
X34298Y-45274D02*
X34298Y-45074D01*
X34298Y-45074D02*
X34598Y-45074D01*
X34598Y-45074D02*
X34598Y-45274D01*
X34298Y-45670D02*
X34298Y-45870D01*
X34298Y-45870D02*
X34598Y-45870D01*
X34598Y-45870D02*
X34598Y-45670D01*
X34844Y-48275D02*
X35044Y-48275D01*
X35044Y-48275D02*
X35044Y-48575D01*
X35044Y-48575D02*
X34844Y-48575D01*
X34447Y-48275D02*
X34247Y-48275D01*
X34247Y-48275D02*
X34247Y-48575D01*
X34247Y-48575D02*
X34447Y-48575D01*
X34844Y-47881D02*
X35044Y-47881D01*
X35044Y-47881D02*
X35044Y-48181D01*
X35044Y-48181D02*
X34844Y-48181D01*
X34447Y-47881D02*
X34247Y-47881D01*
X34247Y-47881D02*
X34247Y-48181D01*
X34247Y-48181D02*
X34447Y-48181D01*
X45667Y-52709D02*
X45467Y-52709D01*
X45467Y-52709D02*
X45467Y-52409D01*
X45467Y-52409D02*
X45667Y-52409D01*
X46064Y-52709D02*
X46264Y-52709D01*
X46264Y-52709D02*
X46264Y-52409D01*
X46264Y-52409D02*
X46064Y-52409D01*
X34844Y-47487D02*
X35044Y-47487D01*
X35044Y-47487D02*
X35044Y-47787D01*
X35044Y-47787D02*
X34844Y-47787D01*
X34447Y-47487D02*
X34247Y-47487D01*
X34247Y-47487D02*
X34247Y-47787D01*
X34247Y-47787D02*
X34447Y-47787D01*
X34844Y-47094D02*
X35044Y-47094D01*
X35044Y-47094D02*
X35044Y-47394D01*
X35044Y-47394D02*
X34844Y-47394D01*
X34447Y-47094D02*
X34247Y-47094D01*
X34247Y-47094D02*
X34247Y-47394D01*
X34247Y-47394D02*
X34447Y-47394D01*
G54D18*
X36023Y-49567D02*
X36062Y-49606D01*
X38542Y-49212D02*
G75*
G03X38542Y-49212I-157J0D01*
G74*
G01*
X36062Y-49606D02*
X38740Y-49606D01*
X38740Y-49606D02*
X38779Y-49567D01*
X38779Y-49567D02*
X38779Y-46889D01*
X38779Y-46889D02*
X38740Y-46850D01*
X38740Y-46850D02*
X36062Y-46850D01*
X36062Y-46850D02*
X36023Y-46889D01*
X36023Y-46889D02*
X36023Y-49567D01*
G54D13*
X31138Y-50629D02*
G75*
G03X31138Y-50629I-55J0D01*
G74*
G01*
G54D10*
X31102Y-49212D02*
X29921Y-49212D01*
X29921Y-49212D02*
X29921Y-50393D01*
X29921Y-50393D02*
X31102Y-50393D01*
X31102Y-50393D02*
X31102Y-49212D01*
G54D17*
X36961Y-45670D02*
X36961Y-45870D01*
X36961Y-45870D02*
X36661Y-45870D01*
X36661Y-45870D02*
X36661Y-45670D01*
X36961Y-45274D02*
X36961Y-45074D01*
X36961Y-45074D02*
X36661Y-45074D01*
X36661Y-45074D02*
X36661Y-45274D01*
G54D11*
X30740Y-44678D02*
X30740Y-44921D01*
X30726Y-44949D01*
X30711Y-44963D01*
X30683Y-44978D01*
X30626Y-44978D01*
X30597Y-44963D01*
X30583Y-44949D01*
X30568Y-44921D01*
X30568Y-44678D01*
X30268Y-44978D02*
X30440Y-44978D01*
X30354Y-44978D02*
X30354Y-44678D01*
X30383Y-44721D01*
X30411Y-44749D01*
X30440Y-44763D01*
X31553Y-44848D02*
X31253Y-44848D01*
X31467Y-44948D01*
X31253Y-45048D01*
X31553Y-45048D01*
X31553Y-45191D02*
X31253Y-45191D01*
X31253Y-45305D01*
X31267Y-45334D01*
X31281Y-45348D01*
X31310Y-45362D01*
X31353Y-45362D01*
X31381Y-45348D01*
X31395Y-45334D01*
X31410Y-45305D01*
X31410Y-45191D01*
X31553Y-45634D02*
X31553Y-45491D01*
X31253Y-45491D01*
X31253Y-45705D02*
X31253Y-45891D01*
X31367Y-45791D01*
X31367Y-45834D01*
X31381Y-45862D01*
X31395Y-45877D01*
X31424Y-45891D01*
X31495Y-45891D01*
X31524Y-45877D01*
X31538Y-45862D01*
X31553Y-45834D01*
X31553Y-45748D01*
X31538Y-45720D01*
X31524Y-45705D01*
X31553Y-46177D02*
X31553Y-46005D01*
X31553Y-46091D02*
X31253Y-46091D01*
X31295Y-46062D01*
X31324Y-46034D01*
X31338Y-46005D01*
X31553Y-46462D02*
X31553Y-46291D01*
X31553Y-46377D02*
X31253Y-46377D01*
X31295Y-46348D01*
X31324Y-46320D01*
X31338Y-46291D01*
X31253Y-46734D02*
X31253Y-46591D01*
X31395Y-46577D01*
X31381Y-46591D01*
X31367Y-46620D01*
X31367Y-46691D01*
X31381Y-46720D01*
X31395Y-46734D01*
X31424Y-46748D01*
X31495Y-46748D01*
X31524Y-46734D01*
X31538Y-46720D01*
X31553Y-46691D01*
X31553Y-46620D01*
X31538Y-46591D01*
X31524Y-46577D01*
X31467Y-46862D02*
X31467Y-47005D01*
X31553Y-46834D02*
X31253Y-46934D01*
X31553Y-47034D01*
X31281Y-47120D02*
X31267Y-47134D01*
X31253Y-47162D01*
X31253Y-47234D01*
X31267Y-47262D01*
X31281Y-47277D01*
X31310Y-47291D01*
X31338Y-47291D01*
X31381Y-47277D01*
X31553Y-47105D01*
X31553Y-47291D01*
X38552Y-50594D02*
X38566Y-50580D01*
X38580Y-50537D01*
X38580Y-50508D01*
X38566Y-50465D01*
X38537Y-50437D01*
X38509Y-50423D01*
X38452Y-50408D01*
X38409Y-50408D01*
X38352Y-50423D01*
X38323Y-50437D01*
X38294Y-50465D01*
X38280Y-50508D01*
X38280Y-50537D01*
X38294Y-50580D01*
X38309Y-50594D01*
X38580Y-50880D02*
X38580Y-50708D01*
X38580Y-50794D02*
X38280Y-50794D01*
X38323Y-50765D01*
X38352Y-50737D01*
X38366Y-50708D01*
X38380Y-51137D02*
X38580Y-51137D01*
X38266Y-51065D02*
X38480Y-50994D01*
X38480Y-51180D01*
X38138Y-52115D02*
X38152Y-52101D01*
X38167Y-52058D01*
X38167Y-52029D01*
X38152Y-51986D01*
X38124Y-51958D01*
X38095Y-51943D01*
X38038Y-51929D01*
X37995Y-51929D01*
X37938Y-51943D01*
X37910Y-51958D01*
X37881Y-51986D01*
X37867Y-52029D01*
X37867Y-52058D01*
X37881Y-52101D01*
X37895Y-52115D01*
X38167Y-52258D02*
X38167Y-52315D01*
X38152Y-52343D01*
X38138Y-52358D01*
X38095Y-52386D01*
X38038Y-52401D01*
X37924Y-52401D01*
X37895Y-52386D01*
X37881Y-52372D01*
X37867Y-52343D01*
X37867Y-52286D01*
X37881Y-52258D01*
X37895Y-52243D01*
X37924Y-52229D01*
X37995Y-52229D01*
X38024Y-52243D01*
X38038Y-52258D01*
X38052Y-52286D01*
X38052Y-52343D01*
X38038Y-52372D01*
X38024Y-52386D01*
X37995Y-52401D01*
X45264Y-51721D02*
X45278Y-51707D01*
X45293Y-51664D01*
X45293Y-51635D01*
X45278Y-51593D01*
X45250Y-51564D01*
X45221Y-51550D01*
X45164Y-51535D01*
X45121Y-51535D01*
X45064Y-51550D01*
X45036Y-51564D01*
X45007Y-51593D01*
X44993Y-51635D01*
X44993Y-51664D01*
X45007Y-51707D01*
X45021Y-51721D01*
X45121Y-51893D02*
X45107Y-51864D01*
X45093Y-51850D01*
X45064Y-51835D01*
X45050Y-51835D01*
X45021Y-51850D01*
X45007Y-51864D01*
X44993Y-51893D01*
X44993Y-51950D01*
X45007Y-51978D01*
X45021Y-51993D01*
X45050Y-52007D01*
X45064Y-52007D01*
X45093Y-51993D01*
X45107Y-51978D01*
X45121Y-51950D01*
X45121Y-51893D01*
X45136Y-51864D01*
X45150Y-51850D01*
X45178Y-51835D01*
X45236Y-51835D01*
X45264Y-51850D01*
X45278Y-51864D01*
X45293Y-51893D01*
X45293Y-51950D01*
X45278Y-51978D01*
X45264Y-51993D01*
X45236Y-52007D01*
X45178Y-52007D01*
X45150Y-51993D01*
X45136Y-51978D01*
X45121Y-51950D01*
X43870Y-51272D02*
X43870Y-51515D01*
X43856Y-51544D01*
X43841Y-51558D01*
X43813Y-51572D01*
X43756Y-51572D01*
X43727Y-51558D01*
X43713Y-51544D01*
X43698Y-51515D01*
X43698Y-51272D01*
X43413Y-51272D02*
X43556Y-51272D01*
X43570Y-51415D01*
X43556Y-51401D01*
X43527Y-51387D01*
X43456Y-51387D01*
X43427Y-51401D01*
X43413Y-51415D01*
X43398Y-51444D01*
X43398Y-51515D01*
X43413Y-51544D01*
X43427Y-51558D01*
X43456Y-51572D01*
X43527Y-51572D01*
X43556Y-51558D01*
X43570Y-51544D01*
X40051Y-51213D02*
X40051Y-51456D01*
X40037Y-51485D01*
X40022Y-51499D01*
X39994Y-51513D01*
X39937Y-51513D01*
X39908Y-51499D01*
X39894Y-51485D01*
X39879Y-51456D01*
X39879Y-51213D01*
X39608Y-51213D02*
X39665Y-51213D01*
X39694Y-51227D01*
X39708Y-51242D01*
X39737Y-51285D01*
X39751Y-51342D01*
X39751Y-51456D01*
X39737Y-51485D01*
X39722Y-51499D01*
X39694Y-51513D01*
X39637Y-51513D01*
X39608Y-51499D01*
X39594Y-51485D01*
X39579Y-51456D01*
X39579Y-51385D01*
X39594Y-51356D01*
X39608Y-51342D01*
X39637Y-51327D01*
X39694Y-51327D01*
X39722Y-51342D01*
X39737Y-51356D01*
X39751Y-51385D01*
X44255Y-43912D02*
X44269Y-43955D01*
X44269Y-44027D01*
X44255Y-44055D01*
X44241Y-44069D01*
X44212Y-44084D01*
X44183Y-44084D01*
X44155Y-44069D01*
X44141Y-44055D01*
X44126Y-44027D01*
X44112Y-43969D01*
X44098Y-43941D01*
X44083Y-43927D01*
X44055Y-43912D01*
X44026Y-43912D01*
X43998Y-43927D01*
X43983Y-43941D01*
X43969Y-43969D01*
X43969Y-44041D01*
X43983Y-44084D01*
X44269Y-44212D02*
X43969Y-44212D01*
X43969Y-44327D01*
X43983Y-44355D01*
X43998Y-44369D01*
X44026Y-44384D01*
X44069Y-44384D01*
X44098Y-44369D01*
X44112Y-44355D01*
X44126Y-44327D01*
X44126Y-44212D01*
X44269Y-44669D02*
X44269Y-44498D01*
X44269Y-44584D02*
X43969Y-44584D01*
X44012Y-44555D01*
X44041Y-44527D01*
X44055Y-44498D01*
X41193Y-45229D02*
X41193Y-45472D01*
X41178Y-45500D01*
X41164Y-45515D01*
X41135Y-45529D01*
X41078Y-45529D01*
X41050Y-45515D01*
X41035Y-45500D01*
X41021Y-45472D01*
X41021Y-45229D01*
X40750Y-45329D02*
X40750Y-45529D01*
X40821Y-45215D02*
X40893Y-45429D01*
X40707Y-45429D01*
X46297Y-47318D02*
X45997Y-47318D01*
X46211Y-47418D01*
X45997Y-47518D01*
X46297Y-47518D01*
X46297Y-47660D02*
X45997Y-47660D01*
X46268Y-47975D02*
X46282Y-47960D01*
X46297Y-47918D01*
X46297Y-47889D01*
X46282Y-47846D01*
X46254Y-47818D01*
X46225Y-47803D01*
X46168Y-47789D01*
X46125Y-47789D01*
X46068Y-47803D01*
X46039Y-47818D01*
X46011Y-47846D01*
X45997Y-47889D01*
X45997Y-47918D01*
X46011Y-47960D01*
X46025Y-47975D01*
X46297Y-48275D02*
X46154Y-48175D01*
X46297Y-48103D02*
X45997Y-48103D01*
X45997Y-48218D01*
X46011Y-48246D01*
X46025Y-48260D01*
X46054Y-48275D01*
X46097Y-48275D01*
X46125Y-48260D01*
X46139Y-48246D01*
X46154Y-48218D01*
X46154Y-48103D01*
X45997Y-48460D02*
X45997Y-48518D01*
X46011Y-48546D01*
X46039Y-48575D01*
X46097Y-48589D01*
X46197Y-48589D01*
X46254Y-48575D01*
X46282Y-48546D01*
X46297Y-48518D01*
X46297Y-48460D01*
X46282Y-48432D01*
X46254Y-48403D01*
X46197Y-48389D01*
X46097Y-48389D01*
X46039Y-48403D01*
X46011Y-48432D01*
X45997Y-48460D01*
X46182Y-48718D02*
X46182Y-48946D01*
X46282Y-49075D02*
X46297Y-49118D01*
X46297Y-49189D01*
X46282Y-49218D01*
X46268Y-49232D01*
X46239Y-49246D01*
X46211Y-49246D01*
X46182Y-49232D01*
X46168Y-49218D01*
X46154Y-49189D01*
X46139Y-49132D01*
X46125Y-49103D01*
X46111Y-49089D01*
X46082Y-49075D01*
X46054Y-49075D01*
X46025Y-49089D01*
X46011Y-49103D01*
X45997Y-49132D01*
X45997Y-49203D01*
X46011Y-49246D01*
X46297Y-49375D02*
X45997Y-49375D01*
X45997Y-49446D01*
X46011Y-49489D01*
X46039Y-49518D01*
X46068Y-49532D01*
X46125Y-49546D01*
X46168Y-49546D01*
X46225Y-49532D01*
X46254Y-49518D01*
X46282Y-49489D01*
X46297Y-49446D01*
X46297Y-49375D01*
X40825Y-51929D02*
X40839Y-51972D01*
X40853Y-51986D01*
X40882Y-52001D01*
X40925Y-52001D01*
X40953Y-51986D01*
X40967Y-51972D01*
X40982Y-51943D01*
X40982Y-51829D01*
X40682Y-51829D01*
X40682Y-51929D01*
X40696Y-51958D01*
X40710Y-51972D01*
X40739Y-51986D01*
X40767Y-51986D01*
X40796Y-51972D01*
X40810Y-51958D01*
X40825Y-51929D01*
X40825Y-51829D01*
X40682Y-52086D02*
X40682Y-52258D01*
X40982Y-52172D02*
X40682Y-52172D01*
X40982Y-52515D02*
X40982Y-52343D01*
X40982Y-52429D02*
X40682Y-52429D01*
X40725Y-52401D01*
X40753Y-52372D01*
X40767Y-52343D01*
X29183Y-44989D02*
X29198Y-45003D01*
X29241Y-45017D01*
X29269Y-45017D01*
X29312Y-45003D01*
X29341Y-44974D01*
X29355Y-44946D01*
X29369Y-44889D01*
X29369Y-44846D01*
X29355Y-44789D01*
X29341Y-44760D01*
X29312Y-44731D01*
X29269Y-44717D01*
X29241Y-44717D01*
X29198Y-44731D01*
X29183Y-44746D01*
X28898Y-45017D02*
X29069Y-45017D01*
X28983Y-45017D02*
X28983Y-44717D01*
X29012Y-44760D01*
X29041Y-44789D01*
X29069Y-44803D01*
X29341Y-45973D02*
X29355Y-45987D01*
X29398Y-46001D01*
X29427Y-46001D01*
X29469Y-45987D01*
X29498Y-45958D01*
X29512Y-45930D01*
X29527Y-45873D01*
X29527Y-45830D01*
X29512Y-45773D01*
X29498Y-45744D01*
X29469Y-45716D01*
X29427Y-45701D01*
X29398Y-45701D01*
X29355Y-45716D01*
X29341Y-45730D01*
X29227Y-45730D02*
X29212Y-45716D01*
X29184Y-45701D01*
X29112Y-45701D01*
X29084Y-45716D01*
X29069Y-45730D01*
X29055Y-45758D01*
X29055Y-45787D01*
X29069Y-45830D01*
X29241Y-46001D01*
X29055Y-46001D01*
X28492Y-49556D02*
X28507Y-49542D01*
X28521Y-49499D01*
X28521Y-49470D01*
X28507Y-49427D01*
X28478Y-49399D01*
X28450Y-49384D01*
X28392Y-49370D01*
X28350Y-49370D01*
X28292Y-49384D01*
X28264Y-49399D01*
X28235Y-49427D01*
X28221Y-49470D01*
X28221Y-49499D01*
X28235Y-49542D01*
X28250Y-49556D01*
X28221Y-49656D02*
X28221Y-49842D01*
X28335Y-49742D01*
X28335Y-49784D01*
X28350Y-49813D01*
X28364Y-49827D01*
X28392Y-49842D01*
X28464Y-49842D01*
X28492Y-49827D01*
X28507Y-49813D01*
X28521Y-49784D01*
X28521Y-49699D01*
X28507Y-49670D01*
X28492Y-49656D01*
X28492Y-50186D02*
X28507Y-50171D01*
X28521Y-50129D01*
X28521Y-50100D01*
X28507Y-50057D01*
X28478Y-50029D01*
X28450Y-50014D01*
X28392Y-50000D01*
X28350Y-50000D01*
X28292Y-50014D01*
X28264Y-50029D01*
X28235Y-50057D01*
X28221Y-50100D01*
X28221Y-50129D01*
X28235Y-50171D01*
X28250Y-50186D01*
X28321Y-50443D02*
X28521Y-50443D01*
X28207Y-50371D02*
X28421Y-50300D01*
X28421Y-50486D01*
X33947Y-49319D02*
X33961Y-49334D01*
X34004Y-49348D01*
X34033Y-49348D01*
X34076Y-49334D01*
X34104Y-49305D01*
X34119Y-49276D01*
X34133Y-49219D01*
X34133Y-49176D01*
X34119Y-49119D01*
X34104Y-49091D01*
X34076Y-49062D01*
X34033Y-49048D01*
X34004Y-49048D01*
X33961Y-49062D01*
X33947Y-49076D01*
X33676Y-49048D02*
X33819Y-49048D01*
X33833Y-49191D01*
X33819Y-49176D01*
X33790Y-49162D01*
X33719Y-49162D01*
X33690Y-49176D01*
X33676Y-49191D01*
X33661Y-49219D01*
X33661Y-49291D01*
X33676Y-49319D01*
X33690Y-49334D01*
X33719Y-49348D01*
X33790Y-49348D01*
X33819Y-49334D01*
X33833Y-49319D01*
X40030Y-49752D02*
X40044Y-49767D01*
X40087Y-49781D01*
X40116Y-49781D01*
X40158Y-49767D01*
X40187Y-49738D01*
X40201Y-49709D01*
X40216Y-49652D01*
X40216Y-49609D01*
X40201Y-49552D01*
X40187Y-49524D01*
X40158Y-49495D01*
X40116Y-49481D01*
X40087Y-49481D01*
X40044Y-49495D01*
X40030Y-49509D01*
X39773Y-49481D02*
X39830Y-49481D01*
X39858Y-49495D01*
X39873Y-49509D01*
X39901Y-49552D01*
X39916Y-49609D01*
X39916Y-49724D01*
X39901Y-49752D01*
X39887Y-49767D01*
X39858Y-49781D01*
X39801Y-49781D01*
X39773Y-49767D01*
X39758Y-49752D01*
X39744Y-49724D01*
X39744Y-49652D01*
X39758Y-49624D01*
X39773Y-49609D01*
X39801Y-49595D01*
X39858Y-49595D01*
X39887Y-49609D01*
X39901Y-49624D01*
X39916Y-49652D01*
X33947Y-46957D02*
X33961Y-46971D01*
X34004Y-46986D01*
X34033Y-46986D01*
X34076Y-46971D01*
X34104Y-46943D01*
X34119Y-46914D01*
X34133Y-46857D01*
X34133Y-46814D01*
X34119Y-46757D01*
X34104Y-46728D01*
X34076Y-46700D01*
X34033Y-46686D01*
X34004Y-46686D01*
X33961Y-46700D01*
X33947Y-46714D01*
X33847Y-46686D02*
X33647Y-46686D01*
X33776Y-46986D01*
X29917Y-51130D02*
X29931Y-51145D01*
X29974Y-51159D01*
X30002Y-51159D01*
X30045Y-51145D01*
X30074Y-51116D01*
X30088Y-51087D01*
X30102Y-51030D01*
X30102Y-50987D01*
X30088Y-50930D01*
X30074Y-50902D01*
X30045Y-50873D01*
X30002Y-50859D01*
X29974Y-50859D01*
X29931Y-50873D01*
X29917Y-50887D01*
X29631Y-51159D02*
X29802Y-51159D01*
X29717Y-51159D02*
X29717Y-50859D01*
X29745Y-50902D01*
X29774Y-50930D01*
X29802Y-50945D01*
X29445Y-50859D02*
X29417Y-50859D01*
X29388Y-50873D01*
X29374Y-50887D01*
X29360Y-50916D01*
X29345Y-50973D01*
X29345Y-51045D01*
X29360Y-51102D01*
X29374Y-51130D01*
X29388Y-51145D01*
X29417Y-51159D01*
X29445Y-51159D01*
X29474Y-51145D01*
X29488Y-51130D01*
X29502Y-51102D01*
X29517Y-51045D01*
X29517Y-50973D01*
X29502Y-50916D01*
X29488Y-50887D01*
X29474Y-50873D01*
X29445Y-50859D01*
X28736Y-51130D02*
X28750Y-51145D01*
X28793Y-51159D01*
X28821Y-51159D01*
X28864Y-51145D01*
X28893Y-51116D01*
X28907Y-51087D01*
X28921Y-51030D01*
X28921Y-50987D01*
X28907Y-50930D01*
X28893Y-50902D01*
X28864Y-50873D01*
X28821Y-50859D01*
X28793Y-50859D01*
X28750Y-50873D01*
X28736Y-50887D01*
X28450Y-51159D02*
X28621Y-51159D01*
X28536Y-51159D02*
X28536Y-50859D01*
X28564Y-50902D01*
X28593Y-50930D01*
X28621Y-50945D01*
X28164Y-51159D02*
X28336Y-51159D01*
X28250Y-51159D02*
X28250Y-50859D01*
X28279Y-50902D01*
X28307Y-50930D01*
X28336Y-50945D01*
X36216Y-46189D02*
X36230Y-46204D01*
X36273Y-46218D01*
X36302Y-46218D01*
X36345Y-46204D01*
X36373Y-46175D01*
X36387Y-46146D01*
X36402Y-46089D01*
X36402Y-46046D01*
X36387Y-45989D01*
X36373Y-45961D01*
X36345Y-45932D01*
X36302Y-45918D01*
X36273Y-45918D01*
X36230Y-45932D01*
X36216Y-45946D01*
X35930Y-46218D02*
X36102Y-46218D01*
X36016Y-46218D02*
X36016Y-45918D01*
X36045Y-45961D01*
X36073Y-45989D01*
X36102Y-46004D01*
X35816Y-45946D02*
X35802Y-45932D01*
X35773Y-45918D01*
X35702Y-45918D01*
X35673Y-45932D01*
X35659Y-45946D01*
X35645Y-45975D01*
X35645Y-46004D01*
X35659Y-46046D01*
X35830Y-46218D01*
X35645Y-46218D01*
X34162Y-44413D02*
X34176Y-44399D01*
X34190Y-44356D01*
X34190Y-44327D01*
X34176Y-44284D01*
X34147Y-44256D01*
X34119Y-44242D01*
X34062Y-44227D01*
X34019Y-44227D01*
X33962Y-44242D01*
X33933Y-44256D01*
X33905Y-44284D01*
X33890Y-44327D01*
X33890Y-44356D01*
X33905Y-44399D01*
X33919Y-44413D01*
X34190Y-44699D02*
X34190Y-44527D01*
X34190Y-44613D02*
X33890Y-44613D01*
X33933Y-44584D01*
X33962Y-44556D01*
X33976Y-44527D01*
X33890Y-44799D02*
X33890Y-44984D01*
X34005Y-44884D01*
X34005Y-44927D01*
X34019Y-44956D01*
X34033Y-44970D01*
X34062Y-44984D01*
X34133Y-44984D01*
X34162Y-44970D01*
X34176Y-44956D01*
X34190Y-44927D01*
X34190Y-44842D01*
X34176Y-44813D01*
X34162Y-44799D01*
X32812Y-49516D02*
X32670Y-49416D01*
X32812Y-49345D02*
X32512Y-49345D01*
X32512Y-49459D01*
X32527Y-49488D01*
X32541Y-49502D01*
X32570Y-49516D01*
X32612Y-49516D01*
X32641Y-49502D01*
X32655Y-49488D01*
X32670Y-49459D01*
X32670Y-49345D01*
X32812Y-49802D02*
X32812Y-49631D01*
X32812Y-49716D02*
X32512Y-49716D01*
X32555Y-49688D01*
X32584Y-49659D01*
X32598Y-49631D01*
X32458Y-50619D02*
X32315Y-50519D01*
X32458Y-50447D02*
X32158Y-50447D01*
X32158Y-50562D01*
X32172Y-50590D01*
X32187Y-50605D01*
X32215Y-50619D01*
X32258Y-50619D01*
X32287Y-50605D01*
X32301Y-50590D01*
X32315Y-50562D01*
X32315Y-50447D01*
X32187Y-50733D02*
X32172Y-50747D01*
X32158Y-50776D01*
X32158Y-50847D01*
X32172Y-50876D01*
X32187Y-50890D01*
X32215Y-50905D01*
X32244Y-50905D01*
X32287Y-50890D01*
X32458Y-50719D01*
X32458Y-50905D01*
X33947Y-49742D02*
X34047Y-49599D01*
X34119Y-49742D02*
X34119Y-49442D01*
X34004Y-49442D01*
X33976Y-49456D01*
X33961Y-49470D01*
X33947Y-49499D01*
X33947Y-49542D01*
X33961Y-49570D01*
X33976Y-49584D01*
X34004Y-49599D01*
X34119Y-49599D01*
X33690Y-49542D02*
X33690Y-49742D01*
X33761Y-49427D02*
X33833Y-49642D01*
X33647Y-49642D01*
X37333Y-44249D02*
X37433Y-44107D01*
X37504Y-44249D02*
X37504Y-43949D01*
X37390Y-43949D01*
X37362Y-43964D01*
X37347Y-43978D01*
X37333Y-44007D01*
X37333Y-44049D01*
X37347Y-44078D01*
X37362Y-44092D01*
X37390Y-44107D01*
X37504Y-44107D01*
X37062Y-43949D02*
X37204Y-43949D01*
X37219Y-44092D01*
X37204Y-44078D01*
X37176Y-44064D01*
X37104Y-44064D01*
X37076Y-44078D01*
X37062Y-44092D01*
X37047Y-44121D01*
X37047Y-44192D01*
X37062Y-44221D01*
X37076Y-44235D01*
X37104Y-44249D01*
X37176Y-44249D01*
X37204Y-44235D01*
X37219Y-44221D01*
X33947Y-48954D02*
X34047Y-48811D01*
X34119Y-48954D02*
X34119Y-48654D01*
X34004Y-48654D01*
X33976Y-48668D01*
X33961Y-48683D01*
X33947Y-48711D01*
X33947Y-48754D01*
X33961Y-48783D01*
X33976Y-48797D01*
X34004Y-48811D01*
X34119Y-48811D01*
X33690Y-48654D02*
X33747Y-48654D01*
X33776Y-48668D01*
X33790Y-48683D01*
X33819Y-48726D01*
X33833Y-48783D01*
X33833Y-48897D01*
X33819Y-48926D01*
X33804Y-48940D01*
X33776Y-48954D01*
X33719Y-48954D01*
X33690Y-48940D01*
X33676Y-48926D01*
X33661Y-48897D01*
X33661Y-48826D01*
X33676Y-48797D01*
X33690Y-48783D01*
X33719Y-48768D01*
X33776Y-48768D01*
X33804Y-48783D01*
X33819Y-48797D01*
X33833Y-48826D01*
X37333Y-44623D02*
X37433Y-44481D01*
X37504Y-44623D02*
X37504Y-44323D01*
X37390Y-44323D01*
X37362Y-44338D01*
X37347Y-44352D01*
X37333Y-44381D01*
X37333Y-44423D01*
X37347Y-44452D01*
X37362Y-44466D01*
X37390Y-44481D01*
X37504Y-44481D01*
X37233Y-44323D02*
X37033Y-44323D01*
X37162Y-44623D01*
X35371Y-44713D02*
X35229Y-44613D01*
X35371Y-44542D02*
X35071Y-44542D01*
X35071Y-44656D01*
X35086Y-44685D01*
X35100Y-44699D01*
X35129Y-44713D01*
X35171Y-44713D01*
X35200Y-44699D01*
X35214Y-44685D01*
X35229Y-44656D01*
X35229Y-44542D01*
X35200Y-44885D02*
X35186Y-44856D01*
X35171Y-44842D01*
X35143Y-44828D01*
X35129Y-44828D01*
X35100Y-44842D01*
X35086Y-44856D01*
X35071Y-44885D01*
X35071Y-44942D01*
X35086Y-44970D01*
X35100Y-44985D01*
X35129Y-44999D01*
X35143Y-44999D01*
X35171Y-44985D01*
X35186Y-44970D01*
X35200Y-44942D01*
X35200Y-44885D01*
X35214Y-44856D01*
X35229Y-44842D01*
X35257Y-44828D01*
X35314Y-44828D01*
X35343Y-44842D01*
X35357Y-44856D01*
X35371Y-44885D01*
X35371Y-44942D01*
X35357Y-44970D01*
X35343Y-44985D01*
X35314Y-44999D01*
X35257Y-44999D01*
X35229Y-44985D01*
X35214Y-44970D01*
X35200Y-44942D01*
X37045Y-50835D02*
X36902Y-50735D01*
X37045Y-50664D02*
X36745Y-50664D01*
X36745Y-50778D01*
X36759Y-50807D01*
X36773Y-50821D01*
X36802Y-50835D01*
X36845Y-50835D01*
X36873Y-50821D01*
X36888Y-50807D01*
X36902Y-50778D01*
X36902Y-50664D01*
X37045Y-50978D02*
X37045Y-51035D01*
X37030Y-51064D01*
X37016Y-51078D01*
X36973Y-51107D01*
X36916Y-51121D01*
X36802Y-51121D01*
X36773Y-51107D01*
X36759Y-51092D01*
X36745Y-51064D01*
X36745Y-51007D01*
X36759Y-50978D01*
X36773Y-50964D01*
X36802Y-50950D01*
X36873Y-50950D01*
X36902Y-50964D01*
X36916Y-50978D01*
X36930Y-51007D01*
X36930Y-51064D01*
X36916Y-51092D01*
X36902Y-51107D01*
X36873Y-51121D01*
X36651Y-50692D02*
X36508Y-50592D01*
X36651Y-50521D02*
X36351Y-50521D01*
X36351Y-50635D01*
X36365Y-50664D01*
X36380Y-50678D01*
X36408Y-50692D01*
X36451Y-50692D01*
X36480Y-50678D01*
X36494Y-50664D01*
X36508Y-50635D01*
X36508Y-50521D01*
X36651Y-50978D02*
X36651Y-50807D01*
X36651Y-50892D02*
X36351Y-50892D01*
X36394Y-50864D01*
X36422Y-50835D01*
X36437Y-50807D01*
X36351Y-51164D02*
X36351Y-51192D01*
X36365Y-51221D01*
X36380Y-51235D01*
X36408Y-51250D01*
X36465Y-51264D01*
X36537Y-51264D01*
X36594Y-51250D01*
X36622Y-51235D01*
X36637Y-51221D01*
X36651Y-51192D01*
X36651Y-51164D01*
X36637Y-51135D01*
X36622Y-51121D01*
X36594Y-51107D01*
X36537Y-51092D01*
X36465Y-51092D01*
X36408Y-51107D01*
X36380Y-51121D01*
X36365Y-51135D01*
X36351Y-51164D01*
X36610Y-45037D02*
X36710Y-44894D01*
X36781Y-45037D02*
X36781Y-44737D01*
X36667Y-44737D01*
X36638Y-44751D01*
X36624Y-44765D01*
X36610Y-44794D01*
X36610Y-44837D01*
X36624Y-44865D01*
X36638Y-44880D01*
X36667Y-44894D01*
X36781Y-44894D01*
X36324Y-45037D02*
X36495Y-45037D01*
X36410Y-45037D02*
X36410Y-44737D01*
X36438Y-44780D01*
X36467Y-44808D01*
X36495Y-44823D01*
X36038Y-45037D02*
X36210Y-45037D01*
X36124Y-45037D02*
X36124Y-44737D01*
X36153Y-44780D01*
X36181Y-44808D01*
X36210Y-44823D01*
X35745Y-44059D02*
X35603Y-43959D01*
X35745Y-43887D02*
X35445Y-43887D01*
X35445Y-44001D01*
X35460Y-44030D01*
X35474Y-44044D01*
X35503Y-44059D01*
X35545Y-44059D01*
X35574Y-44044D01*
X35588Y-44030D01*
X35603Y-44001D01*
X35603Y-43887D01*
X35745Y-44344D02*
X35745Y-44173D01*
X35745Y-44259D02*
X35445Y-44259D01*
X35488Y-44230D01*
X35517Y-44201D01*
X35531Y-44173D01*
X35474Y-44459D02*
X35460Y-44473D01*
X35445Y-44501D01*
X35445Y-44573D01*
X35460Y-44601D01*
X35474Y-44616D01*
X35503Y-44630D01*
X35531Y-44630D01*
X35574Y-44616D01*
X35745Y-44444D01*
X35745Y-44630D01*
X36257Y-50692D02*
X36114Y-50592D01*
X36257Y-50521D02*
X35957Y-50521D01*
X35957Y-50635D01*
X35972Y-50664D01*
X35986Y-50678D01*
X36014Y-50692D01*
X36057Y-50692D01*
X36086Y-50678D01*
X36100Y-50664D01*
X36114Y-50635D01*
X36114Y-50521D01*
X36257Y-50978D02*
X36257Y-50807D01*
X36257Y-50892D02*
X35957Y-50892D01*
X36000Y-50864D01*
X36029Y-50835D01*
X36043Y-50807D01*
X35957Y-51078D02*
X35957Y-51264D01*
X36072Y-51164D01*
X36072Y-51207D01*
X36086Y-51235D01*
X36100Y-51250D01*
X36129Y-51264D01*
X36200Y-51264D01*
X36229Y-51250D01*
X36243Y-51235D01*
X36257Y-51207D01*
X36257Y-51121D01*
X36243Y-51092D01*
X36229Y-51078D01*
X35864Y-50692D02*
X35721Y-50592D01*
X35864Y-50521D02*
X35564Y-50521D01*
X35564Y-50635D01*
X35578Y-50664D01*
X35592Y-50678D01*
X35621Y-50692D01*
X35664Y-50692D01*
X35692Y-50678D01*
X35706Y-50664D01*
X35721Y-50635D01*
X35721Y-50521D01*
X35864Y-50978D02*
X35864Y-50807D01*
X35864Y-50892D02*
X35564Y-50892D01*
X35606Y-50864D01*
X35635Y-50835D01*
X35649Y-50807D01*
X35664Y-51235D02*
X35864Y-51235D01*
X35549Y-51164D02*
X35764Y-51092D01*
X35764Y-51278D01*
X34958Y-44433D02*
X34815Y-44333D01*
X34958Y-44261D02*
X34658Y-44261D01*
X34658Y-44375D01*
X34672Y-44404D01*
X34687Y-44418D01*
X34715Y-44433D01*
X34758Y-44433D01*
X34787Y-44418D01*
X34801Y-44404D01*
X34815Y-44375D01*
X34815Y-44261D01*
X34958Y-44718D02*
X34958Y-44547D01*
X34958Y-44633D02*
X34658Y-44633D01*
X34701Y-44604D01*
X34729Y-44575D01*
X34744Y-44547D01*
X34658Y-44990D02*
X34658Y-44847D01*
X34801Y-44833D01*
X34787Y-44847D01*
X34772Y-44875D01*
X34772Y-44947D01*
X34787Y-44975D01*
X34801Y-44990D01*
X34829Y-45004D01*
X34901Y-45004D01*
X34929Y-44990D01*
X34944Y-44975D01*
X34958Y-44947D01*
X34958Y-44875D01*
X34944Y-44847D01*
X34929Y-44833D01*
X34564Y-44413D02*
X34421Y-44313D01*
X34564Y-44242D02*
X34264Y-44242D01*
X34264Y-44356D01*
X34279Y-44384D01*
X34293Y-44399D01*
X34321Y-44413D01*
X34364Y-44413D01*
X34393Y-44399D01*
X34407Y-44384D01*
X34421Y-44356D01*
X34421Y-44242D01*
X34564Y-44699D02*
X34564Y-44527D01*
X34564Y-44613D02*
X34264Y-44613D01*
X34307Y-44584D01*
X34336Y-44556D01*
X34350Y-44527D01*
X34264Y-44956D02*
X34264Y-44899D01*
X34279Y-44870D01*
X34293Y-44856D01*
X34336Y-44827D01*
X34393Y-44813D01*
X34507Y-44813D01*
X34536Y-44827D01*
X34550Y-44842D01*
X34564Y-44870D01*
X34564Y-44927D01*
X34550Y-44956D01*
X34536Y-44970D01*
X34507Y-44984D01*
X34436Y-44984D01*
X34407Y-44970D01*
X34393Y-44956D01*
X34379Y-44927D01*
X34379Y-44870D01*
X34393Y-44842D01*
X34407Y-44827D01*
X34436Y-44813D01*
X33736Y-48560D02*
X33836Y-48418D01*
X33907Y-48560D02*
X33907Y-48260D01*
X33793Y-48260D01*
X33764Y-48275D01*
X33750Y-48289D01*
X33736Y-48318D01*
X33736Y-48360D01*
X33750Y-48389D01*
X33764Y-48403D01*
X33793Y-48418D01*
X33907Y-48418D01*
X33450Y-48560D02*
X33621Y-48560D01*
X33536Y-48560D02*
X33536Y-48260D01*
X33564Y-48303D01*
X33593Y-48332D01*
X33621Y-48346D01*
X33350Y-48260D02*
X33150Y-48260D01*
X33279Y-48560D01*
X33736Y-48167D02*
X33836Y-48024D01*
X33907Y-48167D02*
X33907Y-47867D01*
X33793Y-47867D01*
X33764Y-47881D01*
X33750Y-47895D01*
X33736Y-47924D01*
X33736Y-47967D01*
X33750Y-47995D01*
X33764Y-48010D01*
X33793Y-48024D01*
X33907Y-48024D01*
X33450Y-48167D02*
X33621Y-48167D01*
X33536Y-48167D02*
X33536Y-47867D01*
X33564Y-47910D01*
X33593Y-47938D01*
X33621Y-47952D01*
X33279Y-47995D02*
X33307Y-47981D01*
X33321Y-47967D01*
X33336Y-47938D01*
X33336Y-47924D01*
X33321Y-47895D01*
X33307Y-47881D01*
X33279Y-47867D01*
X33221Y-47867D01*
X33193Y-47881D01*
X33179Y-47895D01*
X33164Y-47924D01*
X33164Y-47938D01*
X33179Y-47967D01*
X33193Y-47981D01*
X33221Y-47995D01*
X33279Y-47995D01*
X33307Y-48010D01*
X33321Y-48024D01*
X33336Y-48052D01*
X33336Y-48110D01*
X33321Y-48138D01*
X33307Y-48152D01*
X33279Y-48167D01*
X33221Y-48167D01*
X33193Y-48152D01*
X33179Y-48138D01*
X33164Y-48110D01*
X33164Y-48052D01*
X33179Y-48024D01*
X33193Y-48010D01*
X33221Y-47995D01*
X45391Y-52366D02*
X45248Y-52266D01*
X45391Y-52194D02*
X45091Y-52194D01*
X45091Y-52309D01*
X45105Y-52337D01*
X45120Y-52351D01*
X45148Y-52366D01*
X45191Y-52366D01*
X45220Y-52351D01*
X45234Y-52337D01*
X45248Y-52309D01*
X45248Y-52194D01*
X45391Y-52651D02*
X45391Y-52480D01*
X45391Y-52566D02*
X45091Y-52566D01*
X45134Y-52537D01*
X45163Y-52509D01*
X45177Y-52480D01*
X45391Y-52794D02*
X45391Y-52851D01*
X45377Y-52880D01*
X45363Y-52894D01*
X45320Y-52923D01*
X45263Y-52937D01*
X45148Y-52937D01*
X45120Y-52923D01*
X45105Y-52909D01*
X45091Y-52880D01*
X45091Y-52823D01*
X45105Y-52794D01*
X45120Y-52780D01*
X45148Y-52766D01*
X45220Y-52766D01*
X45248Y-52780D01*
X45263Y-52794D01*
X45277Y-52823D01*
X45277Y-52880D01*
X45263Y-52909D01*
X45248Y-52923D01*
X45220Y-52937D01*
X33696Y-47773D02*
X33796Y-47630D01*
X33868Y-47773D02*
X33868Y-47473D01*
X33753Y-47473D01*
X33725Y-47487D01*
X33711Y-47502D01*
X33696Y-47530D01*
X33696Y-47573D01*
X33711Y-47602D01*
X33725Y-47616D01*
X33753Y-47630D01*
X33868Y-47630D01*
X33582Y-47502D02*
X33568Y-47487D01*
X33539Y-47473D01*
X33468Y-47473D01*
X33439Y-47487D01*
X33425Y-47502D01*
X33411Y-47530D01*
X33411Y-47559D01*
X33425Y-47602D01*
X33596Y-47773D01*
X33411Y-47773D01*
X33225Y-47473D02*
X33196Y-47473D01*
X33168Y-47487D01*
X33153Y-47502D01*
X33139Y-47530D01*
X33125Y-47587D01*
X33125Y-47659D01*
X33139Y-47716D01*
X33153Y-47744D01*
X33168Y-47759D01*
X33196Y-47773D01*
X33225Y-47773D01*
X33253Y-47759D01*
X33268Y-47744D01*
X33282Y-47716D01*
X33296Y-47659D01*
X33296Y-47587D01*
X33282Y-47530D01*
X33268Y-47502D01*
X33253Y-47487D01*
X33225Y-47473D01*
X33696Y-47379D02*
X33796Y-47236D01*
X33868Y-47379D02*
X33868Y-47079D01*
X33753Y-47079D01*
X33725Y-47094D01*
X33711Y-47108D01*
X33696Y-47136D01*
X33696Y-47179D01*
X33711Y-47208D01*
X33725Y-47222D01*
X33753Y-47236D01*
X33868Y-47236D01*
X33582Y-47108D02*
X33568Y-47094D01*
X33539Y-47079D01*
X33468Y-47079D01*
X33439Y-47094D01*
X33425Y-47108D01*
X33411Y-47136D01*
X33411Y-47165D01*
X33425Y-47208D01*
X33596Y-47379D01*
X33411Y-47379D01*
X33125Y-47379D02*
X33296Y-47379D01*
X33211Y-47379D02*
X33211Y-47079D01*
X33239Y-47122D01*
X33268Y-47151D01*
X33296Y-47165D01*
X35537Y-49699D02*
X35780Y-49699D01*
X35808Y-49714D01*
X35823Y-49728D01*
X35837Y-49756D01*
X35837Y-49814D01*
X35823Y-49842D01*
X35808Y-49856D01*
X35780Y-49871D01*
X35537Y-49871D01*
X35537Y-49985D02*
X35537Y-50171D01*
X35651Y-50071D01*
X35651Y-50114D01*
X35665Y-50142D01*
X35680Y-50156D01*
X35708Y-50171D01*
X35780Y-50171D01*
X35808Y-50156D01*
X35823Y-50142D01*
X35837Y-50114D01*
X35837Y-50028D01*
X35823Y-49999D01*
X35808Y-49985D01*
X30701Y-48654D02*
X30701Y-48897D01*
X30686Y-48926D01*
X30672Y-48940D01*
X30643Y-48954D01*
X30586Y-48954D01*
X30558Y-48940D01*
X30543Y-48926D01*
X30529Y-48897D01*
X30529Y-48654D01*
X30401Y-48683D02*
X30386Y-48668D01*
X30358Y-48654D01*
X30286Y-48654D01*
X30258Y-48668D01*
X30243Y-48683D01*
X30229Y-48711D01*
X30229Y-48740D01*
X30243Y-48783D01*
X30415Y-48954D01*
X30229Y-48954D01*
X31553Y-48638D02*
X31253Y-48638D01*
X31467Y-48738D01*
X31253Y-48838D01*
X31553Y-48838D01*
X31553Y-48981D02*
X31253Y-48981D01*
X31253Y-49096D01*
X31267Y-49124D01*
X31281Y-49138D01*
X31310Y-49153D01*
X31353Y-49153D01*
X31381Y-49138D01*
X31395Y-49124D01*
X31410Y-49096D01*
X31410Y-48981D01*
X31253Y-49281D02*
X31495Y-49281D01*
X31524Y-49296D01*
X31538Y-49310D01*
X31553Y-49338D01*
X31553Y-49396D01*
X31538Y-49424D01*
X31524Y-49438D01*
X31495Y-49453D01*
X31253Y-49453D01*
X31438Y-49596D02*
X31438Y-49824D01*
X31553Y-49981D02*
X31553Y-50038D01*
X31538Y-50067D01*
X31524Y-50081D01*
X31481Y-50110D01*
X31424Y-50124D01*
X31310Y-50124D01*
X31281Y-50110D01*
X31267Y-50096D01*
X31253Y-50067D01*
X31253Y-50010D01*
X31267Y-49981D01*
X31281Y-49967D01*
X31310Y-49953D01*
X31381Y-49953D01*
X31410Y-49967D01*
X31424Y-49981D01*
X31438Y-50010D01*
X31438Y-50067D01*
X31424Y-50096D01*
X31410Y-50110D01*
X31381Y-50124D01*
X31281Y-50238D02*
X31267Y-50253D01*
X31253Y-50281D01*
X31253Y-50353D01*
X31267Y-50381D01*
X31281Y-50396D01*
X31310Y-50410D01*
X31338Y-50410D01*
X31381Y-50396D01*
X31553Y-50224D01*
X31553Y-50410D01*
X31253Y-50681D02*
X31253Y-50538D01*
X31395Y-50524D01*
X31381Y-50538D01*
X31367Y-50567D01*
X31367Y-50638D01*
X31381Y-50667D01*
X31395Y-50681D01*
X31424Y-50696D01*
X31495Y-50696D01*
X31524Y-50681D01*
X31538Y-50667D01*
X31553Y-50638D01*
X31553Y-50567D01*
X31538Y-50538D01*
X31524Y-50524D01*
X31253Y-50881D02*
X31253Y-50910D01*
X31267Y-50938D01*
X31281Y-50953D01*
X31310Y-50967D01*
X31367Y-50981D01*
X31438Y-50981D01*
X31495Y-50967D01*
X31524Y-50953D01*
X31538Y-50938D01*
X31553Y-50910D01*
X31553Y-50881D01*
X31538Y-50853D01*
X31524Y-50838D01*
X31495Y-50824D01*
X31438Y-50810D01*
X31367Y-50810D01*
X31310Y-50824D01*
X31281Y-50838D01*
X31267Y-50853D01*
X31253Y-50881D01*
X37360Y-45279D02*
X37217Y-45179D01*
X37360Y-45108D02*
X37060Y-45108D01*
X37060Y-45222D01*
X37074Y-45251D01*
X37088Y-45265D01*
X37117Y-45279D01*
X37160Y-45279D01*
X37188Y-45265D01*
X37202Y-45251D01*
X37217Y-45222D01*
X37217Y-45108D01*
X37088Y-45393D02*
X37074Y-45408D01*
X37060Y-45436D01*
X37060Y-45508D01*
X37074Y-45536D01*
X37088Y-45551D01*
X37117Y-45565D01*
X37145Y-45565D01*
X37188Y-45551D01*
X37360Y-45379D01*
X37360Y-45565D01*
X37088Y-45679D02*
X37074Y-45693D01*
X37060Y-45722D01*
X37060Y-45793D01*
X37074Y-45822D01*
X37088Y-45836D01*
X37117Y-45851D01*
X37145Y-45851D01*
X37188Y-45836D01*
X37360Y-45665D01*
X37360Y-45851D01*
M02*
